G04 #@! TF.GenerationSoftware,KiCad,Pcbnew,5.1.4*
G04 #@! TF.CreationDate,2019-08-27T08:05:14+02:00*
G04 #@! TF.ProjectId,CS5490_UEXT,43533534-3930-45f5-9545-58542e6b6963,rev?*
G04 #@! TF.SameCoordinates,Original*
G04 #@! TF.FileFunction,Copper,L2,Bot*
G04 #@! TF.FilePolarity,Positive*
%FSLAX46Y46*%
G04 Gerber Fmt 4.6, Leading zero omitted, Abs format (unit mm)*
G04 Created by KiCad (PCBNEW 5.1.4) date 2019-08-27 08:05:14*
%MOMM*%
%LPD*%
G04 APERTURE LIST*
%ADD10C,2.400000*%
%ADD11R,2.400000X2.400000*%
%ADD12C,2.500000*%
%ADD13O,1.700000X1.700000*%
%ADD14R,1.700000X1.700000*%
%ADD15C,1.000000*%
G04 APERTURE END LIST*
D10*
X149860000Y-104220000D03*
D11*
X149860000Y-109220000D03*
D12*
X149860000Y-85090000D03*
X149860000Y-96520000D03*
D13*
X105410000Y-85090000D03*
D14*
X107950000Y-85090000D03*
X109220000Y-107950000D03*
X105410000Y-107950000D03*
X109220000Y-101600000D03*
X105410000Y-101600000D03*
X109220000Y-95250000D03*
X105410000Y-95250000D03*
X125730000Y-106680000D03*
X116840000Y-90170000D03*
D13*
X107950000Y-90170000D03*
X105410000Y-90170000D03*
X107950000Y-87630000D03*
D14*
X105410000Y-87630000D03*
D13*
X99060000Y-96520000D03*
X96520000Y-96520000D03*
X99060000Y-93980000D03*
X96520000Y-93980000D03*
X99060000Y-91440000D03*
X96520000Y-91440000D03*
X99060000Y-88900000D03*
X96520000Y-88900000D03*
X99060000Y-86360000D03*
D14*
X96520000Y-86360000D03*
D15*
X102235000Y-87630000D02*
X100965000Y-86360000D01*
X147660000Y-109220000D02*
X136230000Y-97790000D01*
X100965000Y-86360000D02*
X99060000Y-86360000D01*
X102235000Y-96520000D02*
X102235000Y-87630000D01*
X136230000Y-97790000D02*
X103505000Y-97790000D01*
X149860000Y-109220000D02*
X147660000Y-109220000D01*
X103505000Y-97790000D02*
X102235000Y-96520000D01*
M02*
