G04 #@! TF.GenerationSoftware,KiCad,Pcbnew,5.1.4*
G04 #@! TF.CreationDate,2019-08-27T08:05:14+02:00*
G04 #@! TF.ProjectId,CS5490_UEXT,43533534-3930-45f5-9545-58542e6b6963,rev?*
G04 #@! TF.SameCoordinates,Original*
G04 #@! TF.FileFunction,Legend,Top*
G04 #@! TF.FilePolarity,Positive*
%FSLAX46Y46*%
G04 Gerber Fmt 4.6, Leading zero omitted, Abs format (unit mm)*
G04 Created by KiCad (PCBNEW 5.1.4) date 2019-08-27 08:05:14*
%MOMM*%
%LPD*%
G04 APERTURE LIST*
%ADD10C,0.150000*%
%ADD11C,0.120000*%
%ADD12C,0.010000*%
G04 APERTURE END LIST*
D10*
X112594523Y-112561666D02*
X113070714Y-112561666D01*
X112499285Y-112847380D02*
X112832619Y-111847380D01*
X113165952Y-112847380D01*
X114070714Y-112752142D02*
X114023095Y-112799761D01*
X113880238Y-112847380D01*
X113785000Y-112847380D01*
X113642142Y-112799761D01*
X113546904Y-112704523D01*
X113499285Y-112609285D01*
X113451666Y-112418809D01*
X113451666Y-112275952D01*
X113499285Y-112085476D01*
X113546904Y-111990238D01*
X113642142Y-111895000D01*
X113785000Y-111847380D01*
X113880238Y-111847380D01*
X114023095Y-111895000D01*
X114070714Y-111942619D01*
X115261190Y-112323571D02*
X115594523Y-112323571D01*
X115737380Y-112847380D02*
X115261190Y-112847380D01*
X115261190Y-111847380D01*
X115737380Y-111847380D01*
X116165952Y-112180714D02*
X116165952Y-112847380D01*
X116165952Y-112275952D02*
X116213571Y-112228333D01*
X116308809Y-112180714D01*
X116451666Y-112180714D01*
X116546904Y-112228333D01*
X116594523Y-112323571D01*
X116594523Y-112847380D01*
X117451666Y-112799761D02*
X117356428Y-112847380D01*
X117165952Y-112847380D01*
X117070714Y-112799761D01*
X117023095Y-112704523D01*
X117023095Y-112323571D01*
X117070714Y-112228333D01*
X117165952Y-112180714D01*
X117356428Y-112180714D01*
X117451666Y-112228333D01*
X117499285Y-112323571D01*
X117499285Y-112418809D01*
X117023095Y-112514047D01*
X117927857Y-112847380D02*
X117927857Y-112180714D01*
X117927857Y-112371190D02*
X117975476Y-112275952D01*
X118023095Y-112228333D01*
X118118333Y-112180714D01*
X118213571Y-112180714D01*
X118975476Y-112180714D02*
X118975476Y-112990238D01*
X118927857Y-113085476D01*
X118880238Y-113133095D01*
X118785000Y-113180714D01*
X118642142Y-113180714D01*
X118546904Y-113133095D01*
X118975476Y-112799761D02*
X118880238Y-112847380D01*
X118689761Y-112847380D01*
X118594523Y-112799761D01*
X118546904Y-112752142D01*
X118499285Y-112656904D01*
X118499285Y-112371190D01*
X118546904Y-112275952D01*
X118594523Y-112228333D01*
X118689761Y-112180714D01*
X118880238Y-112180714D01*
X118975476Y-112228333D01*
X119356428Y-112180714D02*
X119594523Y-112847380D01*
X119832619Y-112180714D02*
X119594523Y-112847380D01*
X119499285Y-113085476D01*
X119451666Y-113133095D01*
X119356428Y-113180714D01*
X120975476Y-112847380D02*
X120975476Y-111847380D01*
X121308809Y-112561666D01*
X121642142Y-111847380D01*
X121642142Y-112847380D01*
X122261190Y-112847380D02*
X122165952Y-112799761D01*
X122118333Y-112752142D01*
X122070714Y-112656904D01*
X122070714Y-112371190D01*
X122118333Y-112275952D01*
X122165952Y-112228333D01*
X122261190Y-112180714D01*
X122404047Y-112180714D01*
X122499285Y-112228333D01*
X122546904Y-112275952D01*
X122594523Y-112371190D01*
X122594523Y-112656904D01*
X122546904Y-112752142D01*
X122499285Y-112799761D01*
X122404047Y-112847380D01*
X122261190Y-112847380D01*
X123023095Y-112180714D02*
X123023095Y-112847380D01*
X123023095Y-112275952D02*
X123070714Y-112228333D01*
X123165952Y-112180714D01*
X123308809Y-112180714D01*
X123404047Y-112228333D01*
X123451666Y-112323571D01*
X123451666Y-112847380D01*
X123927857Y-112847380D02*
X123927857Y-112180714D01*
X123927857Y-111847380D02*
X123880238Y-111895000D01*
X123927857Y-111942619D01*
X123975476Y-111895000D01*
X123927857Y-111847380D01*
X123927857Y-111942619D01*
X124261190Y-112180714D02*
X124642142Y-112180714D01*
X124404047Y-111847380D02*
X124404047Y-112704523D01*
X124451666Y-112799761D01*
X124546904Y-112847380D01*
X124642142Y-112847380D01*
X125118333Y-112847380D02*
X125023095Y-112799761D01*
X124975476Y-112752142D01*
X124927857Y-112656904D01*
X124927857Y-112371190D01*
X124975476Y-112275952D01*
X125023095Y-112228333D01*
X125118333Y-112180714D01*
X125261190Y-112180714D01*
X125356428Y-112228333D01*
X125404047Y-112275952D01*
X125451666Y-112371190D01*
X125451666Y-112656904D01*
X125404047Y-112752142D01*
X125356428Y-112799761D01*
X125261190Y-112847380D01*
X125118333Y-112847380D01*
X125880238Y-112847380D02*
X125880238Y-112180714D01*
X125880238Y-112371190D02*
X125927857Y-112275952D01*
X125975476Y-112228333D01*
X126070714Y-112180714D01*
X126165952Y-112180714D01*
X127165952Y-112180714D02*
X127404047Y-112847380D01*
X127642142Y-112180714D01*
X128213571Y-111847380D02*
X128308809Y-111847380D01*
X128404047Y-111895000D01*
X128451666Y-111942619D01*
X128499285Y-112037857D01*
X128546904Y-112228333D01*
X128546904Y-112466428D01*
X128499285Y-112656904D01*
X128451666Y-112752142D01*
X128404047Y-112799761D01*
X128308809Y-112847380D01*
X128213571Y-112847380D01*
X128118333Y-112799761D01*
X128070714Y-112752142D01*
X128023095Y-112656904D01*
X127975476Y-112466428D01*
X127975476Y-112228333D01*
X128023095Y-112037857D01*
X128070714Y-111942619D01*
X128118333Y-111895000D01*
X128213571Y-111847380D01*
X128975476Y-112752142D02*
X129023095Y-112799761D01*
X128975476Y-112847380D01*
X128927857Y-112799761D01*
X128975476Y-112752142D01*
X128975476Y-112847380D01*
X129594523Y-112275952D02*
X129499285Y-112228333D01*
X129451666Y-112180714D01*
X129404047Y-112085476D01*
X129404047Y-112037857D01*
X129451666Y-111942619D01*
X129499285Y-111895000D01*
X129594523Y-111847380D01*
X129785000Y-111847380D01*
X129880238Y-111895000D01*
X129927857Y-111942619D01*
X129975476Y-112037857D01*
X129975476Y-112085476D01*
X129927857Y-112180714D01*
X129880238Y-112228333D01*
X129785000Y-112275952D01*
X129594523Y-112275952D01*
X129499285Y-112323571D01*
X129451666Y-112371190D01*
X129404047Y-112466428D01*
X129404047Y-112656904D01*
X129451666Y-112752142D01*
X129499285Y-112799761D01*
X129594523Y-112847380D01*
X129785000Y-112847380D01*
X129880238Y-112799761D01*
X129927857Y-112752142D01*
X129975476Y-112656904D01*
X129975476Y-112466428D01*
X129927857Y-112371190D01*
X129880238Y-112323571D01*
X129785000Y-112275952D01*
X156789380Y-111696190D02*
X155789380Y-111696190D01*
X156789380Y-111124761D01*
X155789380Y-111124761D01*
X156741761Y-110267619D02*
X156789380Y-110362857D01*
X156789380Y-110553333D01*
X156741761Y-110648571D01*
X156646523Y-110696190D01*
X156265571Y-110696190D01*
X156170333Y-110648571D01*
X156122714Y-110553333D01*
X156122714Y-110362857D01*
X156170333Y-110267619D01*
X156265571Y-110220000D01*
X156360809Y-110220000D01*
X156456047Y-110696190D01*
X156122714Y-109362857D02*
X156789380Y-109362857D01*
X156122714Y-109791428D02*
X156646523Y-109791428D01*
X156741761Y-109743809D01*
X156789380Y-109648571D01*
X156789380Y-109505714D01*
X156741761Y-109410476D01*
X156694142Y-109362857D01*
X156122714Y-109029523D02*
X156122714Y-108648571D01*
X155789380Y-108886666D02*
X156646523Y-108886666D01*
X156741761Y-108839047D01*
X156789380Y-108743809D01*
X156789380Y-108648571D01*
X156789380Y-108315238D02*
X156122714Y-108315238D01*
X156313190Y-108315238D02*
X156217952Y-108267619D01*
X156170333Y-108220000D01*
X156122714Y-108124761D01*
X156122714Y-108029523D01*
X156789380Y-107267619D02*
X156265571Y-107267619D01*
X156170333Y-107315238D01*
X156122714Y-107410476D01*
X156122714Y-107600952D01*
X156170333Y-107696190D01*
X156741761Y-107267619D02*
X156789380Y-107362857D01*
X156789380Y-107600952D01*
X156741761Y-107696190D01*
X156646523Y-107743809D01*
X156551285Y-107743809D01*
X156456047Y-107696190D01*
X156408428Y-107600952D01*
X156408428Y-107362857D01*
X156360809Y-107267619D01*
X156789380Y-106648571D02*
X156741761Y-106743809D01*
X156646523Y-106791428D01*
X155789380Y-106791428D01*
X95163571Y-111942619D02*
X95211190Y-111895000D01*
X95306428Y-111847380D01*
X95544523Y-111847380D01*
X95639761Y-111895000D01*
X95687380Y-111942619D01*
X95735000Y-112037857D01*
X95735000Y-112133095D01*
X95687380Y-112275952D01*
X95115952Y-112847380D01*
X95735000Y-112847380D01*
X96354047Y-111847380D02*
X96449285Y-111847380D01*
X96544523Y-111895000D01*
X96592142Y-111942619D01*
X96639761Y-112037857D01*
X96687380Y-112228333D01*
X96687380Y-112466428D01*
X96639761Y-112656904D01*
X96592142Y-112752142D01*
X96544523Y-112799761D01*
X96449285Y-112847380D01*
X96354047Y-112847380D01*
X96258809Y-112799761D01*
X96211190Y-112752142D01*
X96163571Y-112656904D01*
X96115952Y-112466428D01*
X96115952Y-112228333D01*
X96163571Y-112037857D01*
X96211190Y-111942619D01*
X96258809Y-111895000D01*
X96354047Y-111847380D01*
X97639761Y-112847380D02*
X97068333Y-112847380D01*
X97354047Y-112847380D02*
X97354047Y-111847380D01*
X97258809Y-111990238D01*
X97163571Y-112085476D01*
X97068333Y-112133095D01*
X98115952Y-112847380D02*
X98306428Y-112847380D01*
X98401666Y-112799761D01*
X98449285Y-112752142D01*
X98544523Y-112609285D01*
X98592142Y-112418809D01*
X98592142Y-112037857D01*
X98544523Y-111942619D01*
X98496904Y-111895000D01*
X98401666Y-111847380D01*
X98211190Y-111847380D01*
X98115952Y-111895000D01*
X98068333Y-111942619D01*
X98020714Y-112037857D01*
X98020714Y-112275952D01*
X98068333Y-112371190D01*
X98115952Y-112418809D01*
X98211190Y-112466428D01*
X98401666Y-112466428D01*
X98496904Y-112418809D01*
X98544523Y-112371190D01*
X98592142Y-112275952D01*
X99735000Y-112799761D02*
X99830238Y-112847380D01*
X100020714Y-112847380D01*
X100115952Y-112799761D01*
X100163571Y-112704523D01*
X100163571Y-112656904D01*
X100115952Y-112561666D01*
X100020714Y-112514047D01*
X99877857Y-112514047D01*
X99782619Y-112466428D01*
X99735000Y-112371190D01*
X99735000Y-112323571D01*
X99782619Y-112228333D01*
X99877857Y-112180714D01*
X100020714Y-112180714D01*
X100115952Y-112228333D01*
X101211190Y-112371190D02*
X101163571Y-112323571D01*
X101068333Y-112275952D01*
X100973095Y-112275952D01*
X100877857Y-112323571D01*
X100830238Y-112371190D01*
X100782619Y-112466428D01*
X100782619Y-112561666D01*
X100830238Y-112656904D01*
X100877857Y-112704523D01*
X100973095Y-112752142D01*
X101068333Y-112752142D01*
X101163571Y-112704523D01*
X101211190Y-112656904D01*
X101211190Y-112275952D02*
X101211190Y-112656904D01*
X101258809Y-112704523D01*
X101306428Y-112704523D01*
X101401666Y-112656904D01*
X101449285Y-112561666D01*
X101449285Y-112323571D01*
X101354047Y-112180714D01*
X101211190Y-112085476D01*
X101020714Y-112037857D01*
X100830238Y-112085476D01*
X100687380Y-112180714D01*
X100592142Y-112323571D01*
X100544523Y-112514047D01*
X100592142Y-112704523D01*
X100687380Y-112847380D01*
X100830238Y-112942619D01*
X101020714Y-112990238D01*
X101211190Y-112942619D01*
X101354047Y-112847380D01*
X102258809Y-112799761D02*
X102163571Y-112847380D01*
X101973095Y-112847380D01*
X101877857Y-112799761D01*
X101830238Y-112704523D01*
X101830238Y-112323571D01*
X101877857Y-112228333D01*
X101973095Y-112180714D01*
X102163571Y-112180714D01*
X102258809Y-112228333D01*
X102306428Y-112323571D01*
X102306428Y-112418809D01*
X101830238Y-112514047D01*
X103163571Y-112799761D02*
X103068333Y-112847380D01*
X102877857Y-112847380D01*
X102782619Y-112799761D01*
X102735000Y-112752142D01*
X102687380Y-112656904D01*
X102687380Y-112371190D01*
X102735000Y-112275952D01*
X102782619Y-112228333D01*
X102877857Y-112180714D01*
X103068333Y-112180714D01*
X103163571Y-112228333D01*
X103735000Y-112847380D02*
X103639761Y-112799761D01*
X103592142Y-112704523D01*
X103592142Y-111847380D01*
X104258809Y-112847380D02*
X104163571Y-112799761D01*
X104115952Y-112752142D01*
X104068333Y-112656904D01*
X104068333Y-112371190D01*
X104115952Y-112275952D01*
X104163571Y-112228333D01*
X104258809Y-112180714D01*
X104401666Y-112180714D01*
X104496904Y-112228333D01*
X104544523Y-112275952D01*
X104592142Y-112371190D01*
X104592142Y-112656904D01*
X104544523Y-112752142D01*
X104496904Y-112799761D01*
X104401666Y-112847380D01*
X104258809Y-112847380D01*
X105449285Y-112180714D02*
X105449285Y-112847380D01*
X105020714Y-112180714D02*
X105020714Y-112704523D01*
X105068333Y-112799761D01*
X105163571Y-112847380D01*
X105306428Y-112847380D01*
X105401666Y-112799761D01*
X105449285Y-112752142D01*
X106354047Y-112847380D02*
X106354047Y-111847380D01*
X106354047Y-112799761D02*
X106258809Y-112847380D01*
X106068333Y-112847380D01*
X105973095Y-112799761D01*
X105925476Y-112752142D01*
X105877857Y-112656904D01*
X105877857Y-112371190D01*
X105925476Y-112275952D01*
X105973095Y-112228333D01*
X106068333Y-112180714D01*
X106258809Y-112180714D01*
X106354047Y-112228333D01*
X106830238Y-112752142D02*
X106877857Y-112799761D01*
X106830238Y-112847380D01*
X106782619Y-112799761D01*
X106830238Y-112752142D01*
X106830238Y-112847380D01*
X107449285Y-112847380D02*
X107354047Y-112799761D01*
X107306428Y-112752142D01*
X107258809Y-112656904D01*
X107258809Y-112371190D01*
X107306428Y-112275952D01*
X107354047Y-112228333D01*
X107449285Y-112180714D01*
X107592142Y-112180714D01*
X107687380Y-112228333D01*
X107735000Y-112275952D01*
X107782619Y-112371190D01*
X107782619Y-112656904D01*
X107735000Y-112752142D01*
X107687380Y-112799761D01*
X107592142Y-112847380D01*
X107449285Y-112847380D01*
X108211190Y-112847380D02*
X108211190Y-112180714D01*
X108211190Y-112371190D02*
X108258809Y-112275952D01*
X108306428Y-112228333D01*
X108401666Y-112180714D01*
X108496904Y-112180714D01*
X109258809Y-112180714D02*
X109258809Y-112990238D01*
X109211190Y-113085476D01*
X109163571Y-113133095D01*
X109068333Y-113180714D01*
X108925476Y-113180714D01*
X108830238Y-113133095D01*
X109258809Y-112799761D02*
X109163571Y-112847380D01*
X108973095Y-112847380D01*
X108877857Y-112799761D01*
X108830238Y-112752142D01*
X108782619Y-112656904D01*
X108782619Y-112371190D01*
X108830238Y-112275952D01*
X108877857Y-112228333D01*
X108973095Y-112180714D01*
X109163571Y-112180714D01*
X109258809Y-112228333D01*
X96194761Y-99147380D02*
X96194761Y-99956904D01*
X96242380Y-100052142D01*
X96290000Y-100099761D01*
X96385238Y-100147380D01*
X96575714Y-100147380D01*
X96670952Y-100099761D01*
X96718571Y-100052142D01*
X96766190Y-99956904D01*
X96766190Y-99147380D01*
X97242380Y-99623571D02*
X97575714Y-99623571D01*
X97718571Y-100147380D02*
X97242380Y-100147380D01*
X97242380Y-99147380D01*
X97718571Y-99147380D01*
X98051904Y-99147380D02*
X98718571Y-100147380D01*
X98718571Y-99147380D02*
X98051904Y-100147380D01*
X98956666Y-99147380D02*
X99528095Y-99147380D01*
X99242380Y-100147380D02*
X99242380Y-99147380D01*
X109942380Y-86328095D02*
X109942380Y-85709047D01*
X110323333Y-86042380D01*
X110323333Y-85899523D01*
X110370952Y-85804285D01*
X110418571Y-85756666D01*
X110513809Y-85709047D01*
X110751904Y-85709047D01*
X110847142Y-85756666D01*
X110894761Y-85804285D01*
X110942380Y-85899523D01*
X110942380Y-86185238D01*
X110894761Y-86280476D01*
X110847142Y-86328095D01*
X109942380Y-85423333D02*
X110942380Y-85090000D01*
X109942380Y-84756666D01*
X109942380Y-84518571D02*
X109942380Y-83899523D01*
X110323333Y-84232857D01*
X110323333Y-84090000D01*
X110370952Y-83994761D01*
X110418571Y-83947142D01*
X110513809Y-83899523D01*
X110751904Y-83899523D01*
X110847142Y-83947142D01*
X110894761Y-83994761D01*
X110942380Y-84090000D01*
X110942380Y-84375714D01*
X110894761Y-84470952D01*
X110847142Y-84518571D01*
X102370000Y-85851904D02*
X102322380Y-85947142D01*
X102322380Y-86090000D01*
X102370000Y-86232857D01*
X102465238Y-86328095D01*
X102560476Y-86375714D01*
X102750952Y-86423333D01*
X102893809Y-86423333D01*
X103084285Y-86375714D01*
X103179523Y-86328095D01*
X103274761Y-86232857D01*
X103322380Y-86090000D01*
X103322380Y-85994761D01*
X103274761Y-85851904D01*
X103227142Y-85804285D01*
X102893809Y-85804285D01*
X102893809Y-85994761D01*
X103322380Y-85375714D02*
X102322380Y-85375714D01*
X103322380Y-84804285D01*
X102322380Y-84804285D01*
X103322380Y-84328095D02*
X102322380Y-84328095D01*
X102322380Y-84090000D01*
X102370000Y-83947142D01*
X102465238Y-83851904D01*
X102560476Y-83804285D01*
X102750952Y-83756666D01*
X102893809Y-83756666D01*
X103084285Y-83804285D01*
X103179523Y-83851904D01*
X103274761Y-83947142D01*
X103322380Y-84090000D01*
X103322380Y-84328095D01*
X103322380Y-88431666D02*
X102846190Y-88765000D01*
X103322380Y-89003095D02*
X102322380Y-89003095D01*
X102322380Y-88622142D01*
X102370000Y-88526904D01*
X102417619Y-88479285D01*
X102512857Y-88431666D01*
X102655714Y-88431666D01*
X102750952Y-88479285D01*
X102798571Y-88526904D01*
X102846190Y-88622142D01*
X102846190Y-89003095D01*
X102322380Y-88098333D02*
X103322380Y-87431666D01*
X102322380Y-87431666D02*
X103322380Y-88098333D01*
X102322380Y-91566904D02*
X102322380Y-90995476D01*
X103322380Y-91281190D02*
X102322380Y-91281190D01*
X102322380Y-90757380D02*
X103322380Y-90090714D01*
X102322380Y-90090714D02*
X103322380Y-90757380D01*
D11*
X115185436Y-87905000D02*
X116389564Y-87905000D01*
X115185436Y-86085000D02*
X116389564Y-86085000D01*
X112904000Y-84955000D02*
X116789000Y-84955000D01*
X112904000Y-82685000D02*
X112904000Y-84955000D01*
X116789000Y-82685000D02*
X112904000Y-82685000D01*
X155560000Y-112020000D02*
X155560000Y-111520000D01*
X154820000Y-112020000D02*
X155560000Y-112020000D01*
X145000000Y-101660000D02*
X155320000Y-101660000D01*
X145000000Y-111780000D02*
X155320000Y-111780000D01*
X155320000Y-111780000D02*
X155320000Y-101660000D01*
X145000000Y-111780000D02*
X145000000Y-101660000D01*
X153660000Y-111780000D02*
X153660000Y-101660000D01*
X154760000Y-111780000D02*
X154760000Y-101660000D01*
X151415000Y-104220000D02*
G75*
G03X151415000Y-104220000I-1555000J0D01*
G01*
X151415492Y-109192989D02*
G75*
G02X151292000Y-109828000I-1555492J-27011D01*
G01*
X150467742Y-110652109D02*
G75*
G02X149252000Y-110652000I-607742J1432109D01*
G01*
X148427891Y-109827742D02*
G75*
G02X148428000Y-108612000I1432109J607742D01*
G01*
X149252258Y-107787891D02*
G75*
G02X150468000Y-107788000I607742J-1432109D01*
G01*
X151291385Y-108612413D02*
G75*
G02X151415000Y-109220000I-1431385J-607587D01*
G01*
X124910436Y-99970000D02*
X126114564Y-99970000D01*
X124910436Y-98150000D02*
X126114564Y-98150000D01*
X116982500Y-96770436D02*
X116982500Y-97974564D01*
X118802500Y-96770436D02*
X118802500Y-97974564D01*
X154940000Y-99695000D02*
X144780000Y-99695000D01*
X154940000Y-81915000D02*
X154940000Y-99695000D01*
X144780000Y-81915000D02*
X154940000Y-81915000D01*
X144780000Y-99695000D02*
X144780000Y-81915000D01*
X111982500Y-84980000D02*
X117367500Y-84980000D01*
X111982500Y-82660000D02*
X111982500Y-84980000D01*
X117367500Y-82660000D02*
X111982500Y-82660000D01*
X128260000Y-88127500D02*
X128260000Y-104102500D01*
X133360000Y-88127500D02*
X128260000Y-88127500D01*
X133360000Y-104102500D02*
X133360000Y-88127500D01*
X109280000Y-86420000D02*
X107950000Y-86420000D01*
X109280000Y-85090000D02*
X109280000Y-86420000D01*
X106680000Y-86420000D02*
X104080000Y-86420000D01*
X106680000Y-83820000D02*
X106680000Y-86420000D01*
X109280000Y-83820000D02*
X106680000Y-83820000D01*
X104080000Y-86420000D02*
X104080000Y-83760000D01*
X109280000Y-83820000D02*
X109280000Y-83760000D01*
X109280000Y-83760000D02*
X104080000Y-83760000D01*
X107890000Y-106620000D02*
X109220000Y-106620000D01*
X107890000Y-107950000D02*
X107890000Y-106620000D01*
X107890000Y-109220000D02*
X110550000Y-109220000D01*
X110550000Y-109220000D02*
X110550000Y-109280000D01*
X107890000Y-109220000D02*
X107890000Y-109280000D01*
X107890000Y-109280000D02*
X110550000Y-109280000D01*
X104080000Y-106620000D02*
X105410000Y-106620000D01*
X104080000Y-107950000D02*
X104080000Y-106620000D01*
X104080000Y-109220000D02*
X106740000Y-109220000D01*
X106740000Y-109220000D02*
X106740000Y-109280000D01*
X104080000Y-109220000D02*
X104080000Y-109280000D01*
X104080000Y-109280000D02*
X106740000Y-109280000D01*
X107890000Y-100270000D02*
X109220000Y-100270000D01*
X107890000Y-101600000D02*
X107890000Y-100270000D01*
X107890000Y-102870000D02*
X110550000Y-102870000D01*
X110550000Y-102870000D02*
X110550000Y-102930000D01*
X107890000Y-102870000D02*
X107890000Y-102930000D01*
X107890000Y-102930000D02*
X110550000Y-102930000D01*
X104080000Y-100270000D02*
X105410000Y-100270000D01*
X104080000Y-101600000D02*
X104080000Y-100270000D01*
X104080000Y-102870000D02*
X106740000Y-102870000D01*
X106740000Y-102870000D02*
X106740000Y-102930000D01*
X104080000Y-102870000D02*
X104080000Y-102930000D01*
X104080000Y-102930000D02*
X106740000Y-102930000D01*
X107890000Y-93920000D02*
X109220000Y-93920000D01*
X107890000Y-95250000D02*
X107890000Y-93920000D01*
X107890000Y-96520000D02*
X110550000Y-96520000D01*
X110550000Y-96520000D02*
X110550000Y-96580000D01*
X107890000Y-96520000D02*
X107890000Y-96580000D01*
X107890000Y-96580000D02*
X110550000Y-96580000D01*
X104080000Y-93920000D02*
X105410000Y-93920000D01*
X104080000Y-95250000D02*
X104080000Y-93920000D01*
X104080000Y-96520000D02*
X106740000Y-96520000D01*
X106740000Y-96520000D02*
X106740000Y-96580000D01*
X104080000Y-96520000D02*
X104080000Y-96580000D01*
X104080000Y-96580000D02*
X106740000Y-96580000D01*
X124400000Y-105350000D02*
X125730000Y-105350000D01*
X124400000Y-106680000D02*
X124400000Y-105350000D01*
X124400000Y-107950000D02*
X127060000Y-107950000D01*
X127060000Y-107950000D02*
X127060000Y-108010000D01*
X124400000Y-107950000D02*
X124400000Y-108010000D01*
X124400000Y-108010000D02*
X127060000Y-108010000D01*
X115510000Y-88840000D02*
X116840000Y-88840000D01*
X115510000Y-90170000D02*
X115510000Y-88840000D01*
X115510000Y-91440000D02*
X118170000Y-91440000D01*
X118170000Y-91440000D02*
X118170000Y-91500000D01*
X115510000Y-91440000D02*
X115510000Y-91500000D01*
X115510000Y-91500000D02*
X118170000Y-91500000D01*
X104080000Y-86300000D02*
X105410000Y-86300000D01*
X104080000Y-87630000D02*
X104080000Y-86300000D01*
X106680000Y-86300000D02*
X109280000Y-86300000D01*
X106680000Y-88900000D02*
X106680000Y-86300000D01*
X104080000Y-88900000D02*
X106680000Y-88900000D01*
X109280000Y-86300000D02*
X109280000Y-91500000D01*
X104080000Y-88900000D02*
X104080000Y-91500000D01*
X104080000Y-91500000D02*
X109280000Y-91500000D01*
X137610436Y-91080000D02*
X138814564Y-91080000D01*
X137610436Y-89260000D02*
X138814564Y-89260000D01*
X138814564Y-93070000D02*
X137610436Y-93070000D01*
X138814564Y-94890000D02*
X137610436Y-94890000D01*
X137544564Y-96880000D02*
X136340436Y-96880000D01*
X137544564Y-98700000D02*
X136340436Y-98700000D01*
X133800436Y-111400000D02*
X135004564Y-111400000D01*
X133800436Y-109580000D02*
X135004564Y-109580000D01*
X113390000Y-95700436D02*
X113390000Y-96904564D01*
X115210000Y-95700436D02*
X115210000Y-96904564D01*
X122805436Y-84730000D02*
X124009564Y-84730000D01*
X122805436Y-82910000D02*
X124009564Y-82910000D01*
D12*
G36*
X97893910Y-104557348D02*
G01*
X97972454Y-104557778D01*
X98029298Y-104558942D01*
X98068105Y-104561207D01*
X98092538Y-104564940D01*
X98106262Y-104570506D01*
X98112940Y-104578273D01*
X98116236Y-104588605D01*
X98116556Y-104589943D01*
X98121562Y-104614079D01*
X98130829Y-104661701D01*
X98143392Y-104727741D01*
X98158287Y-104807128D01*
X98174551Y-104894796D01*
X98175119Y-104897875D01*
X98191410Y-104983789D01*
X98206652Y-105059696D01*
X98219861Y-105121045D01*
X98230054Y-105163282D01*
X98236248Y-105181855D01*
X98236543Y-105182184D01*
X98254788Y-105191253D01*
X98292405Y-105206367D01*
X98341271Y-105224262D01*
X98341543Y-105224358D01*
X98403093Y-105247493D01*
X98475657Y-105276965D01*
X98544057Y-105306597D01*
X98547294Y-105308062D01*
X98658702Y-105358626D01*
X98905399Y-105190160D01*
X98981077Y-105138803D01*
X99049631Y-105092889D01*
X99107088Y-105055030D01*
X99149476Y-105027837D01*
X99172825Y-105013921D01*
X99175042Y-105012889D01*
X99192010Y-105017484D01*
X99223701Y-105039655D01*
X99271352Y-105080447D01*
X99336198Y-105140905D01*
X99402397Y-105205227D01*
X99466214Y-105268612D01*
X99523329Y-105326451D01*
X99570305Y-105375175D01*
X99603703Y-105411210D01*
X99620085Y-105430984D01*
X99620694Y-105432002D01*
X99622505Y-105445572D01*
X99615683Y-105467733D01*
X99598540Y-105501478D01*
X99569393Y-105549800D01*
X99526555Y-105615692D01*
X99469448Y-105700517D01*
X99418766Y-105775177D01*
X99373461Y-105842140D01*
X99336150Y-105897516D01*
X99309452Y-105937420D01*
X99295985Y-105957962D01*
X99295137Y-105959356D01*
X99296781Y-105979038D01*
X99309245Y-106017293D01*
X99330048Y-106066889D01*
X99337462Y-106082728D01*
X99369814Y-106153290D01*
X99404328Y-106233353D01*
X99432365Y-106302629D01*
X99452568Y-106354045D01*
X99468615Y-106393119D01*
X99477888Y-106413541D01*
X99479041Y-106415114D01*
X99496096Y-106417721D01*
X99536298Y-106424863D01*
X99594302Y-106435523D01*
X99664763Y-106448685D01*
X99742335Y-106463333D01*
X99821672Y-106478449D01*
X99897431Y-106493018D01*
X99964264Y-106506022D01*
X100016828Y-106516445D01*
X100049776Y-106523270D01*
X100057857Y-106525199D01*
X100066205Y-106529962D01*
X100072506Y-106540718D01*
X100077045Y-106561098D01*
X100080104Y-106594734D01*
X100081967Y-106645255D01*
X100082918Y-106716292D01*
X100083240Y-106811476D01*
X100083257Y-106850492D01*
X100083257Y-107167799D01*
X100007057Y-107182839D01*
X99964663Y-107190995D01*
X99901400Y-107202899D01*
X99824962Y-107217116D01*
X99743043Y-107232210D01*
X99720400Y-107236355D01*
X99644806Y-107251053D01*
X99578953Y-107265505D01*
X99528366Y-107278375D01*
X99498574Y-107288322D01*
X99493612Y-107291287D01*
X99481426Y-107312283D01*
X99463953Y-107352967D01*
X99444577Y-107405322D01*
X99440734Y-107416600D01*
X99415339Y-107486523D01*
X99383817Y-107565418D01*
X99352969Y-107636266D01*
X99352817Y-107636595D01*
X99301447Y-107747733D01*
X99470399Y-107996253D01*
X99639352Y-108244772D01*
X99422429Y-108462058D01*
X99356819Y-108526726D01*
X99296979Y-108583733D01*
X99246267Y-108630033D01*
X99208046Y-108662584D01*
X99185675Y-108678343D01*
X99182466Y-108679343D01*
X99163626Y-108671469D01*
X99125180Y-108649578D01*
X99071330Y-108616267D01*
X99006276Y-108574131D01*
X98935940Y-108526943D01*
X98864555Y-108478810D01*
X98800908Y-108436928D01*
X98749041Y-108403871D01*
X98712995Y-108382218D01*
X98696867Y-108374543D01*
X98677189Y-108381037D01*
X98639875Y-108398150D01*
X98592621Y-108422326D01*
X98587612Y-108425013D01*
X98523977Y-108456927D01*
X98480341Y-108472579D01*
X98453202Y-108472745D01*
X98439057Y-108458204D01*
X98438975Y-108458000D01*
X98431905Y-108440779D01*
X98415042Y-108399899D01*
X98389695Y-108338525D01*
X98357171Y-108259819D01*
X98318778Y-108166947D01*
X98275822Y-108063072D01*
X98234222Y-107962502D01*
X98188504Y-107851516D01*
X98146526Y-107748703D01*
X98109548Y-107657215D01*
X98078827Y-107580201D01*
X98055622Y-107520815D01*
X98041190Y-107482209D01*
X98036743Y-107467800D01*
X98047896Y-107451272D01*
X98077069Y-107424930D01*
X98115971Y-107395887D01*
X98226757Y-107304039D01*
X98313351Y-107198759D01*
X98374716Y-107082266D01*
X98409815Y-106956776D01*
X98417608Y-106824507D01*
X98411943Y-106763457D01*
X98381078Y-106636795D01*
X98327920Y-106524941D01*
X98255767Y-106429001D01*
X98167917Y-106350076D01*
X98067665Y-106289270D01*
X97958310Y-106247687D01*
X97843147Y-106226428D01*
X97725475Y-106226599D01*
X97608590Y-106249301D01*
X97495789Y-106295638D01*
X97390369Y-106366713D01*
X97346368Y-106406911D01*
X97261979Y-106510129D01*
X97203222Y-106622925D01*
X97169704Y-106742010D01*
X97161035Y-106864095D01*
X97176823Y-106985893D01*
X97216678Y-107104116D01*
X97280207Y-107215475D01*
X97367021Y-107316684D01*
X97464029Y-107395887D01*
X97504437Y-107426162D01*
X97532982Y-107452219D01*
X97543257Y-107467825D01*
X97537877Y-107484843D01*
X97522575Y-107525500D01*
X97498612Y-107586642D01*
X97467244Y-107665119D01*
X97429732Y-107757780D01*
X97387333Y-107861472D01*
X97345663Y-107962526D01*
X97299690Y-108073607D01*
X97257107Y-108176541D01*
X97219221Y-108268165D01*
X97187340Y-108345316D01*
X97162771Y-108404831D01*
X97146820Y-108443544D01*
X97140910Y-108458000D01*
X97126948Y-108472685D01*
X97099940Y-108472642D01*
X97056413Y-108457099D01*
X96992890Y-108425284D01*
X96992388Y-108425013D01*
X96944560Y-108400323D01*
X96905897Y-108382338D01*
X96884095Y-108374614D01*
X96883133Y-108374543D01*
X96866721Y-108382378D01*
X96830487Y-108404165D01*
X96778474Y-108437328D01*
X96714725Y-108479291D01*
X96644060Y-108526943D01*
X96572116Y-108575191D01*
X96507274Y-108617151D01*
X96453735Y-108650227D01*
X96415697Y-108671821D01*
X96397533Y-108679343D01*
X96380808Y-108669457D01*
X96347180Y-108641826D01*
X96300010Y-108599495D01*
X96242658Y-108545505D01*
X96178484Y-108482899D01*
X96157497Y-108461983D01*
X95940499Y-108244623D01*
X96105668Y-108002220D01*
X96155864Y-107927781D01*
X96199919Y-107860972D01*
X96235362Y-107805665D01*
X96259719Y-107765729D01*
X96270522Y-107745036D01*
X96270838Y-107743563D01*
X96265143Y-107724058D01*
X96249826Y-107684822D01*
X96227537Y-107632430D01*
X96211893Y-107597355D01*
X96182641Y-107530201D01*
X96155094Y-107462358D01*
X96133737Y-107405034D01*
X96127935Y-107387572D01*
X96111452Y-107340938D01*
X96095340Y-107304905D01*
X96086490Y-107291287D01*
X96066960Y-107282952D01*
X96024334Y-107271137D01*
X95964145Y-107257181D01*
X95891922Y-107242422D01*
X95859600Y-107236355D01*
X95777522Y-107221273D01*
X95698795Y-107206669D01*
X95631109Y-107193980D01*
X95582160Y-107184642D01*
X95572943Y-107182839D01*
X95496743Y-107167799D01*
X95496743Y-106850492D01*
X95496914Y-106746154D01*
X95497616Y-106667213D01*
X95499134Y-106610038D01*
X95501749Y-106570999D01*
X95505746Y-106546465D01*
X95511409Y-106532805D01*
X95519020Y-106526389D01*
X95522143Y-106525199D01*
X95540978Y-106520980D01*
X95582588Y-106512562D01*
X95641630Y-106500961D01*
X95712757Y-106487195D01*
X95790625Y-106472280D01*
X95869887Y-106457232D01*
X95945198Y-106443069D01*
X96011213Y-106430806D01*
X96062587Y-106421461D01*
X96093975Y-106416050D01*
X96100959Y-106415114D01*
X96107285Y-106402596D01*
X96121290Y-106369246D01*
X96140355Y-106321377D01*
X96147634Y-106302629D01*
X96176996Y-106230195D01*
X96211571Y-106150170D01*
X96242537Y-106082728D01*
X96265323Y-106031159D01*
X96280482Y-105988785D01*
X96285542Y-105962834D01*
X96284736Y-105959356D01*
X96274041Y-105942936D01*
X96249620Y-105906417D01*
X96214095Y-105853687D01*
X96170087Y-105788635D01*
X96120217Y-105715151D01*
X96110356Y-105700645D01*
X96052492Y-105614704D01*
X96009956Y-105549261D01*
X95981054Y-105501304D01*
X95964090Y-105467820D01*
X95957367Y-105445795D01*
X95959190Y-105432217D01*
X95959236Y-105432131D01*
X95973586Y-105414297D01*
X96005323Y-105379817D01*
X96051010Y-105332268D01*
X96107204Y-105275222D01*
X96170468Y-105212255D01*
X96177602Y-105205227D01*
X96257330Y-105128020D01*
X96318857Y-105071330D01*
X96363421Y-105034110D01*
X96392257Y-105015315D01*
X96404958Y-105012889D01*
X96423494Y-105023471D01*
X96461961Y-105047916D01*
X96516386Y-105083612D01*
X96582798Y-105127947D01*
X96657225Y-105178311D01*
X96674601Y-105190160D01*
X96921297Y-105358626D01*
X97032706Y-105308062D01*
X97100457Y-105278595D01*
X97173183Y-105248959D01*
X97235703Y-105225330D01*
X97238457Y-105224358D01*
X97287360Y-105206457D01*
X97325057Y-105191320D01*
X97343425Y-105182210D01*
X97343456Y-105182184D01*
X97349285Y-105165717D01*
X97359192Y-105125219D01*
X97372195Y-105065242D01*
X97387309Y-104990340D01*
X97403552Y-104905064D01*
X97404881Y-104897875D01*
X97421175Y-104810014D01*
X97436133Y-104730260D01*
X97448791Y-104663681D01*
X97458186Y-104615347D01*
X97463354Y-104590325D01*
X97463444Y-104589943D01*
X97466589Y-104579299D01*
X97472704Y-104571262D01*
X97485453Y-104565467D01*
X97508500Y-104561547D01*
X97545509Y-104559135D01*
X97600144Y-104557865D01*
X97676067Y-104557371D01*
X97776944Y-104557286D01*
X97790000Y-104557286D01*
X97893910Y-104557348D01*
X97893910Y-104557348D01*
G37*
X97893910Y-104557348D02*
X97972454Y-104557778D01*
X98029298Y-104558942D01*
X98068105Y-104561207D01*
X98092538Y-104564940D01*
X98106262Y-104570506D01*
X98112940Y-104578273D01*
X98116236Y-104588605D01*
X98116556Y-104589943D01*
X98121562Y-104614079D01*
X98130829Y-104661701D01*
X98143392Y-104727741D01*
X98158287Y-104807128D01*
X98174551Y-104894796D01*
X98175119Y-104897875D01*
X98191410Y-104983789D01*
X98206652Y-105059696D01*
X98219861Y-105121045D01*
X98230054Y-105163282D01*
X98236248Y-105181855D01*
X98236543Y-105182184D01*
X98254788Y-105191253D01*
X98292405Y-105206367D01*
X98341271Y-105224262D01*
X98341543Y-105224358D01*
X98403093Y-105247493D01*
X98475657Y-105276965D01*
X98544057Y-105306597D01*
X98547294Y-105308062D01*
X98658702Y-105358626D01*
X98905399Y-105190160D01*
X98981077Y-105138803D01*
X99049631Y-105092889D01*
X99107088Y-105055030D01*
X99149476Y-105027837D01*
X99172825Y-105013921D01*
X99175042Y-105012889D01*
X99192010Y-105017484D01*
X99223701Y-105039655D01*
X99271352Y-105080447D01*
X99336198Y-105140905D01*
X99402397Y-105205227D01*
X99466214Y-105268612D01*
X99523329Y-105326451D01*
X99570305Y-105375175D01*
X99603703Y-105411210D01*
X99620085Y-105430984D01*
X99620694Y-105432002D01*
X99622505Y-105445572D01*
X99615683Y-105467733D01*
X99598540Y-105501478D01*
X99569393Y-105549800D01*
X99526555Y-105615692D01*
X99469448Y-105700517D01*
X99418766Y-105775177D01*
X99373461Y-105842140D01*
X99336150Y-105897516D01*
X99309452Y-105937420D01*
X99295985Y-105957962D01*
X99295137Y-105959356D01*
X99296781Y-105979038D01*
X99309245Y-106017293D01*
X99330048Y-106066889D01*
X99337462Y-106082728D01*
X99369814Y-106153290D01*
X99404328Y-106233353D01*
X99432365Y-106302629D01*
X99452568Y-106354045D01*
X99468615Y-106393119D01*
X99477888Y-106413541D01*
X99479041Y-106415114D01*
X99496096Y-106417721D01*
X99536298Y-106424863D01*
X99594302Y-106435523D01*
X99664763Y-106448685D01*
X99742335Y-106463333D01*
X99821672Y-106478449D01*
X99897431Y-106493018D01*
X99964264Y-106506022D01*
X100016828Y-106516445D01*
X100049776Y-106523270D01*
X100057857Y-106525199D01*
X100066205Y-106529962D01*
X100072506Y-106540718D01*
X100077045Y-106561098D01*
X100080104Y-106594734D01*
X100081967Y-106645255D01*
X100082918Y-106716292D01*
X100083240Y-106811476D01*
X100083257Y-106850492D01*
X100083257Y-107167799D01*
X100007057Y-107182839D01*
X99964663Y-107190995D01*
X99901400Y-107202899D01*
X99824962Y-107217116D01*
X99743043Y-107232210D01*
X99720400Y-107236355D01*
X99644806Y-107251053D01*
X99578953Y-107265505D01*
X99528366Y-107278375D01*
X99498574Y-107288322D01*
X99493612Y-107291287D01*
X99481426Y-107312283D01*
X99463953Y-107352967D01*
X99444577Y-107405322D01*
X99440734Y-107416600D01*
X99415339Y-107486523D01*
X99383817Y-107565418D01*
X99352969Y-107636266D01*
X99352817Y-107636595D01*
X99301447Y-107747733D01*
X99470399Y-107996253D01*
X99639352Y-108244772D01*
X99422429Y-108462058D01*
X99356819Y-108526726D01*
X99296979Y-108583733D01*
X99246267Y-108630033D01*
X99208046Y-108662584D01*
X99185675Y-108678343D01*
X99182466Y-108679343D01*
X99163626Y-108671469D01*
X99125180Y-108649578D01*
X99071330Y-108616267D01*
X99006276Y-108574131D01*
X98935940Y-108526943D01*
X98864555Y-108478810D01*
X98800908Y-108436928D01*
X98749041Y-108403871D01*
X98712995Y-108382218D01*
X98696867Y-108374543D01*
X98677189Y-108381037D01*
X98639875Y-108398150D01*
X98592621Y-108422326D01*
X98587612Y-108425013D01*
X98523977Y-108456927D01*
X98480341Y-108472579D01*
X98453202Y-108472745D01*
X98439057Y-108458204D01*
X98438975Y-108458000D01*
X98431905Y-108440779D01*
X98415042Y-108399899D01*
X98389695Y-108338525D01*
X98357171Y-108259819D01*
X98318778Y-108166947D01*
X98275822Y-108063072D01*
X98234222Y-107962502D01*
X98188504Y-107851516D01*
X98146526Y-107748703D01*
X98109548Y-107657215D01*
X98078827Y-107580201D01*
X98055622Y-107520815D01*
X98041190Y-107482209D01*
X98036743Y-107467800D01*
X98047896Y-107451272D01*
X98077069Y-107424930D01*
X98115971Y-107395887D01*
X98226757Y-107304039D01*
X98313351Y-107198759D01*
X98374716Y-107082266D01*
X98409815Y-106956776D01*
X98417608Y-106824507D01*
X98411943Y-106763457D01*
X98381078Y-106636795D01*
X98327920Y-106524941D01*
X98255767Y-106429001D01*
X98167917Y-106350076D01*
X98067665Y-106289270D01*
X97958310Y-106247687D01*
X97843147Y-106226428D01*
X97725475Y-106226599D01*
X97608590Y-106249301D01*
X97495789Y-106295638D01*
X97390369Y-106366713D01*
X97346368Y-106406911D01*
X97261979Y-106510129D01*
X97203222Y-106622925D01*
X97169704Y-106742010D01*
X97161035Y-106864095D01*
X97176823Y-106985893D01*
X97216678Y-107104116D01*
X97280207Y-107215475D01*
X97367021Y-107316684D01*
X97464029Y-107395887D01*
X97504437Y-107426162D01*
X97532982Y-107452219D01*
X97543257Y-107467825D01*
X97537877Y-107484843D01*
X97522575Y-107525500D01*
X97498612Y-107586642D01*
X97467244Y-107665119D01*
X97429732Y-107757780D01*
X97387333Y-107861472D01*
X97345663Y-107962526D01*
X97299690Y-108073607D01*
X97257107Y-108176541D01*
X97219221Y-108268165D01*
X97187340Y-108345316D01*
X97162771Y-108404831D01*
X97146820Y-108443544D01*
X97140910Y-108458000D01*
X97126948Y-108472685D01*
X97099940Y-108472642D01*
X97056413Y-108457099D01*
X96992890Y-108425284D01*
X96992388Y-108425013D01*
X96944560Y-108400323D01*
X96905897Y-108382338D01*
X96884095Y-108374614D01*
X96883133Y-108374543D01*
X96866721Y-108382378D01*
X96830487Y-108404165D01*
X96778474Y-108437328D01*
X96714725Y-108479291D01*
X96644060Y-108526943D01*
X96572116Y-108575191D01*
X96507274Y-108617151D01*
X96453735Y-108650227D01*
X96415697Y-108671821D01*
X96397533Y-108679343D01*
X96380808Y-108669457D01*
X96347180Y-108641826D01*
X96300010Y-108599495D01*
X96242658Y-108545505D01*
X96178484Y-108482899D01*
X96157497Y-108461983D01*
X95940499Y-108244623D01*
X96105668Y-108002220D01*
X96155864Y-107927781D01*
X96199919Y-107860972D01*
X96235362Y-107805665D01*
X96259719Y-107765729D01*
X96270522Y-107745036D01*
X96270838Y-107743563D01*
X96265143Y-107724058D01*
X96249826Y-107684822D01*
X96227537Y-107632430D01*
X96211893Y-107597355D01*
X96182641Y-107530201D01*
X96155094Y-107462358D01*
X96133737Y-107405034D01*
X96127935Y-107387572D01*
X96111452Y-107340938D01*
X96095340Y-107304905D01*
X96086490Y-107291287D01*
X96066960Y-107282952D01*
X96024334Y-107271137D01*
X95964145Y-107257181D01*
X95891922Y-107242422D01*
X95859600Y-107236355D01*
X95777522Y-107221273D01*
X95698795Y-107206669D01*
X95631109Y-107193980D01*
X95582160Y-107184642D01*
X95572943Y-107182839D01*
X95496743Y-107167799D01*
X95496743Y-106850492D01*
X95496914Y-106746154D01*
X95497616Y-106667213D01*
X95499134Y-106610038D01*
X95501749Y-106570999D01*
X95505746Y-106546465D01*
X95511409Y-106532805D01*
X95519020Y-106526389D01*
X95522143Y-106525199D01*
X95540978Y-106520980D01*
X95582588Y-106512562D01*
X95641630Y-106500961D01*
X95712757Y-106487195D01*
X95790625Y-106472280D01*
X95869887Y-106457232D01*
X95945198Y-106443069D01*
X96011213Y-106430806D01*
X96062587Y-106421461D01*
X96093975Y-106416050D01*
X96100959Y-106415114D01*
X96107285Y-106402596D01*
X96121290Y-106369246D01*
X96140355Y-106321377D01*
X96147634Y-106302629D01*
X96176996Y-106230195D01*
X96211571Y-106150170D01*
X96242537Y-106082728D01*
X96265323Y-106031159D01*
X96280482Y-105988785D01*
X96285542Y-105962834D01*
X96284736Y-105959356D01*
X96274041Y-105942936D01*
X96249620Y-105906417D01*
X96214095Y-105853687D01*
X96170087Y-105788635D01*
X96120217Y-105715151D01*
X96110356Y-105700645D01*
X96052492Y-105614704D01*
X96009956Y-105549261D01*
X95981054Y-105501304D01*
X95964090Y-105467820D01*
X95957367Y-105445795D01*
X95959190Y-105432217D01*
X95959236Y-105432131D01*
X95973586Y-105414297D01*
X96005323Y-105379817D01*
X96051010Y-105332268D01*
X96107204Y-105275222D01*
X96170468Y-105212255D01*
X96177602Y-105205227D01*
X96257330Y-105128020D01*
X96318857Y-105071330D01*
X96363421Y-105034110D01*
X96392257Y-105015315D01*
X96404958Y-105012889D01*
X96423494Y-105023471D01*
X96461961Y-105047916D01*
X96516386Y-105083612D01*
X96582798Y-105127947D01*
X96657225Y-105178311D01*
X96674601Y-105190160D01*
X96921297Y-105358626D01*
X97032706Y-105308062D01*
X97100457Y-105278595D01*
X97173183Y-105248959D01*
X97235703Y-105225330D01*
X97238457Y-105224358D01*
X97287360Y-105206457D01*
X97325057Y-105191320D01*
X97343425Y-105182210D01*
X97343456Y-105182184D01*
X97349285Y-105165717D01*
X97359192Y-105125219D01*
X97372195Y-105065242D01*
X97387309Y-104990340D01*
X97403552Y-104905064D01*
X97404881Y-104897875D01*
X97421175Y-104810014D01*
X97436133Y-104730260D01*
X97448791Y-104663681D01*
X97458186Y-104615347D01*
X97463354Y-104590325D01*
X97463444Y-104589943D01*
X97466589Y-104579299D01*
X97472704Y-104571262D01*
X97485453Y-104565467D01*
X97508500Y-104561547D01*
X97545509Y-104559135D01*
X97600144Y-104557865D01*
X97676067Y-104557371D01*
X97776944Y-104557286D01*
X97790000Y-104557286D01*
X97893910Y-104557348D01*
G36*
X100943595Y-109281966D02*
G01*
X101001021Y-109319497D01*
X101028719Y-109353096D01*
X101050662Y-109414064D01*
X101052405Y-109462308D01*
X101048457Y-109526816D01*
X100899686Y-109591934D01*
X100827349Y-109625202D01*
X100780084Y-109651964D01*
X100755507Y-109675144D01*
X100751237Y-109697667D01*
X100764889Y-109722455D01*
X100779943Y-109738886D01*
X100823746Y-109765235D01*
X100871389Y-109767081D01*
X100915145Y-109746546D01*
X100947289Y-109705752D01*
X100953038Y-109691347D01*
X100980576Y-109646356D01*
X101012258Y-109627182D01*
X101055714Y-109610779D01*
X101055714Y-109672966D01*
X101051872Y-109715283D01*
X101036823Y-109750969D01*
X101005280Y-109791943D01*
X101000592Y-109797267D01*
X100965506Y-109833720D01*
X100935347Y-109853283D01*
X100897615Y-109862283D01*
X100866335Y-109865230D01*
X100810385Y-109865965D01*
X100770555Y-109856660D01*
X100745708Y-109842846D01*
X100706656Y-109812467D01*
X100679625Y-109779613D01*
X100662517Y-109738294D01*
X100653238Y-109682521D01*
X100649693Y-109606305D01*
X100649410Y-109567622D01*
X100650372Y-109521247D01*
X100738007Y-109521247D01*
X100739023Y-109546126D01*
X100741556Y-109550200D01*
X100758274Y-109544665D01*
X100794249Y-109530017D01*
X100842331Y-109509190D01*
X100852386Y-109504714D01*
X100913152Y-109473814D01*
X100946632Y-109446657D01*
X100953990Y-109421220D01*
X100936391Y-109395481D01*
X100921856Y-109384109D01*
X100869410Y-109361364D01*
X100820322Y-109365122D01*
X100779227Y-109392884D01*
X100750758Y-109442152D01*
X100741631Y-109481257D01*
X100738007Y-109521247D01*
X100650372Y-109521247D01*
X100651285Y-109477249D01*
X100658196Y-109410384D01*
X100671884Y-109361695D01*
X100694096Y-109325849D01*
X100726574Y-109297513D01*
X100740733Y-109288355D01*
X100805053Y-109264507D01*
X100875473Y-109263006D01*
X100943595Y-109281966D01*
X100943595Y-109281966D01*
G37*
X100943595Y-109281966D02*
X101001021Y-109319497D01*
X101028719Y-109353096D01*
X101050662Y-109414064D01*
X101052405Y-109462308D01*
X101048457Y-109526816D01*
X100899686Y-109591934D01*
X100827349Y-109625202D01*
X100780084Y-109651964D01*
X100755507Y-109675144D01*
X100751237Y-109697667D01*
X100764889Y-109722455D01*
X100779943Y-109738886D01*
X100823746Y-109765235D01*
X100871389Y-109767081D01*
X100915145Y-109746546D01*
X100947289Y-109705752D01*
X100953038Y-109691347D01*
X100980576Y-109646356D01*
X101012258Y-109627182D01*
X101055714Y-109610779D01*
X101055714Y-109672966D01*
X101051872Y-109715283D01*
X101036823Y-109750969D01*
X101005280Y-109791943D01*
X101000592Y-109797267D01*
X100965506Y-109833720D01*
X100935347Y-109853283D01*
X100897615Y-109862283D01*
X100866335Y-109865230D01*
X100810385Y-109865965D01*
X100770555Y-109856660D01*
X100745708Y-109842846D01*
X100706656Y-109812467D01*
X100679625Y-109779613D01*
X100662517Y-109738294D01*
X100653238Y-109682521D01*
X100649693Y-109606305D01*
X100649410Y-109567622D01*
X100650372Y-109521247D01*
X100738007Y-109521247D01*
X100739023Y-109546126D01*
X100741556Y-109550200D01*
X100758274Y-109544665D01*
X100794249Y-109530017D01*
X100842331Y-109509190D01*
X100852386Y-109504714D01*
X100913152Y-109473814D01*
X100946632Y-109446657D01*
X100953990Y-109421220D01*
X100936391Y-109395481D01*
X100921856Y-109384109D01*
X100869410Y-109361364D01*
X100820322Y-109365122D01*
X100779227Y-109392884D01*
X100750758Y-109442152D01*
X100741631Y-109481257D01*
X100738007Y-109521247D01*
X100650372Y-109521247D01*
X100651285Y-109477249D01*
X100658196Y-109410384D01*
X100671884Y-109361695D01*
X100694096Y-109325849D01*
X100726574Y-109297513D01*
X100740733Y-109288355D01*
X100805053Y-109264507D01*
X100875473Y-109263006D01*
X100943595Y-109281966D01*
G36*
X100442600Y-109273752D02*
G01*
X100459948Y-109281334D01*
X100501356Y-109314128D01*
X100536765Y-109361547D01*
X100558664Y-109412151D01*
X100562229Y-109437098D01*
X100550279Y-109471927D01*
X100524067Y-109490357D01*
X100495964Y-109501516D01*
X100483095Y-109503572D01*
X100476829Y-109488649D01*
X100464456Y-109456175D01*
X100459028Y-109441502D01*
X100428590Y-109390744D01*
X100384520Y-109365427D01*
X100328010Y-109366206D01*
X100323825Y-109367203D01*
X100293655Y-109381507D01*
X100271476Y-109409393D01*
X100256327Y-109454287D01*
X100247250Y-109519615D01*
X100243286Y-109608804D01*
X100242914Y-109656261D01*
X100242730Y-109731071D01*
X100241522Y-109782069D01*
X100238309Y-109814471D01*
X100232109Y-109833495D01*
X100221940Y-109844356D01*
X100206819Y-109852272D01*
X100205946Y-109852670D01*
X100176828Y-109864981D01*
X100162403Y-109869514D01*
X100160186Y-109855809D01*
X100158289Y-109817925D01*
X100156847Y-109760715D01*
X100155998Y-109689027D01*
X100155829Y-109636565D01*
X100156692Y-109535047D01*
X100160070Y-109458032D01*
X100167142Y-109401023D01*
X100179088Y-109359526D01*
X100197090Y-109329043D01*
X100222327Y-109305080D01*
X100247247Y-109288355D01*
X100307171Y-109266097D01*
X100376911Y-109261076D01*
X100442600Y-109273752D01*
X100442600Y-109273752D01*
G37*
X100442600Y-109273752D02*
X100459948Y-109281334D01*
X100501356Y-109314128D01*
X100536765Y-109361547D01*
X100558664Y-109412151D01*
X100562229Y-109437098D01*
X100550279Y-109471927D01*
X100524067Y-109490357D01*
X100495964Y-109501516D01*
X100483095Y-109503572D01*
X100476829Y-109488649D01*
X100464456Y-109456175D01*
X100459028Y-109441502D01*
X100428590Y-109390744D01*
X100384520Y-109365427D01*
X100328010Y-109366206D01*
X100323825Y-109367203D01*
X100293655Y-109381507D01*
X100271476Y-109409393D01*
X100256327Y-109454287D01*
X100247250Y-109519615D01*
X100243286Y-109608804D01*
X100242914Y-109656261D01*
X100242730Y-109731071D01*
X100241522Y-109782069D01*
X100238309Y-109814471D01*
X100232109Y-109833495D01*
X100221940Y-109844356D01*
X100206819Y-109852272D01*
X100205946Y-109852670D01*
X100176828Y-109864981D01*
X100162403Y-109869514D01*
X100160186Y-109855809D01*
X100158289Y-109817925D01*
X100156847Y-109760715D01*
X100155998Y-109689027D01*
X100155829Y-109636565D01*
X100156692Y-109535047D01*
X100160070Y-109458032D01*
X100167142Y-109401023D01*
X100179088Y-109359526D01*
X100197090Y-109329043D01*
X100222327Y-109305080D01*
X100247247Y-109288355D01*
X100307171Y-109266097D01*
X100376911Y-109261076D01*
X100442600Y-109273752D01*
G36*
X99934876Y-109271335D02*
G01*
X99976667Y-109290344D01*
X100009469Y-109313378D01*
X100033503Y-109339133D01*
X100050097Y-109372358D01*
X100060577Y-109417800D01*
X100066271Y-109480207D01*
X100068507Y-109564327D01*
X100068743Y-109619721D01*
X100068743Y-109835826D01*
X100031774Y-109852670D01*
X100002656Y-109864981D01*
X99988231Y-109869514D01*
X99985472Y-109856025D01*
X99983282Y-109819653D01*
X99981942Y-109766542D01*
X99981657Y-109724372D01*
X99980434Y-109663447D01*
X99977136Y-109615115D01*
X99972321Y-109585518D01*
X99968496Y-109579229D01*
X99942783Y-109585652D01*
X99902418Y-109602125D01*
X99855679Y-109624458D01*
X99810845Y-109648457D01*
X99776193Y-109669930D01*
X99760002Y-109684685D01*
X99759938Y-109684845D01*
X99761330Y-109712152D01*
X99773818Y-109738219D01*
X99795743Y-109759392D01*
X99827743Y-109766474D01*
X99855092Y-109765649D01*
X99893826Y-109765042D01*
X99914158Y-109774116D01*
X99926369Y-109798092D01*
X99927909Y-109802613D01*
X99933203Y-109836806D01*
X99919047Y-109857568D01*
X99882148Y-109867462D01*
X99842289Y-109869292D01*
X99770562Y-109855727D01*
X99733432Y-109836355D01*
X99687576Y-109790845D01*
X99663256Y-109734983D01*
X99661073Y-109675957D01*
X99681629Y-109620953D01*
X99712549Y-109586486D01*
X99743420Y-109567189D01*
X99791942Y-109542759D01*
X99848485Y-109517985D01*
X99857910Y-109514199D01*
X99920019Y-109486791D01*
X99955822Y-109462634D01*
X99967337Y-109438619D01*
X99956580Y-109411635D01*
X99938114Y-109390543D01*
X99894469Y-109364572D01*
X99846446Y-109362624D01*
X99802406Y-109382637D01*
X99770709Y-109422551D01*
X99766549Y-109432848D01*
X99742327Y-109470724D01*
X99706965Y-109498842D01*
X99662343Y-109521917D01*
X99662343Y-109456485D01*
X99664969Y-109416506D01*
X99676230Y-109384997D01*
X99701199Y-109351378D01*
X99725169Y-109325484D01*
X99762441Y-109288817D01*
X99791401Y-109269121D01*
X99822505Y-109261220D01*
X99857713Y-109259914D01*
X99934876Y-109271335D01*
X99934876Y-109271335D01*
G37*
X99934876Y-109271335D02*
X99976667Y-109290344D01*
X100009469Y-109313378D01*
X100033503Y-109339133D01*
X100050097Y-109372358D01*
X100060577Y-109417800D01*
X100066271Y-109480207D01*
X100068507Y-109564327D01*
X100068743Y-109619721D01*
X100068743Y-109835826D01*
X100031774Y-109852670D01*
X100002656Y-109864981D01*
X99988231Y-109869514D01*
X99985472Y-109856025D01*
X99983282Y-109819653D01*
X99981942Y-109766542D01*
X99981657Y-109724372D01*
X99980434Y-109663447D01*
X99977136Y-109615115D01*
X99972321Y-109585518D01*
X99968496Y-109579229D01*
X99942783Y-109585652D01*
X99902418Y-109602125D01*
X99855679Y-109624458D01*
X99810845Y-109648457D01*
X99776193Y-109669930D01*
X99760002Y-109684685D01*
X99759938Y-109684845D01*
X99761330Y-109712152D01*
X99773818Y-109738219D01*
X99795743Y-109759392D01*
X99827743Y-109766474D01*
X99855092Y-109765649D01*
X99893826Y-109765042D01*
X99914158Y-109774116D01*
X99926369Y-109798092D01*
X99927909Y-109802613D01*
X99933203Y-109836806D01*
X99919047Y-109857568D01*
X99882148Y-109867462D01*
X99842289Y-109869292D01*
X99770562Y-109855727D01*
X99733432Y-109836355D01*
X99687576Y-109790845D01*
X99663256Y-109734983D01*
X99661073Y-109675957D01*
X99681629Y-109620953D01*
X99712549Y-109586486D01*
X99743420Y-109567189D01*
X99791942Y-109542759D01*
X99848485Y-109517985D01*
X99857910Y-109514199D01*
X99920019Y-109486791D01*
X99955822Y-109462634D01*
X99967337Y-109438619D01*
X99956580Y-109411635D01*
X99938114Y-109390543D01*
X99894469Y-109364572D01*
X99846446Y-109362624D01*
X99802406Y-109382637D01*
X99770709Y-109422551D01*
X99766549Y-109432848D01*
X99742327Y-109470724D01*
X99706965Y-109498842D01*
X99662343Y-109521917D01*
X99662343Y-109456485D01*
X99664969Y-109416506D01*
X99676230Y-109384997D01*
X99701199Y-109351378D01*
X99725169Y-109325484D01*
X99762441Y-109288817D01*
X99791401Y-109269121D01*
X99822505Y-109261220D01*
X99857713Y-109259914D01*
X99934876Y-109271335D01*
G36*
X99569833Y-109273663D02*
G01*
X99572048Y-109311850D01*
X99573784Y-109369886D01*
X99574899Y-109443180D01*
X99575257Y-109520055D01*
X99575257Y-109780196D01*
X99529326Y-109826127D01*
X99497675Y-109854429D01*
X99469890Y-109865893D01*
X99431915Y-109865168D01*
X99416840Y-109863321D01*
X99369726Y-109857948D01*
X99330756Y-109854869D01*
X99321257Y-109854585D01*
X99289233Y-109856445D01*
X99243432Y-109861114D01*
X99225674Y-109863321D01*
X99182057Y-109866735D01*
X99152745Y-109859320D01*
X99123680Y-109836427D01*
X99113188Y-109826127D01*
X99067257Y-109780196D01*
X99067257Y-109293602D01*
X99104226Y-109276758D01*
X99136059Y-109264282D01*
X99154683Y-109259914D01*
X99159458Y-109273718D01*
X99163921Y-109312286D01*
X99167775Y-109371356D01*
X99170722Y-109446663D01*
X99172143Y-109510286D01*
X99176114Y-109760657D01*
X99210759Y-109765556D01*
X99242268Y-109762131D01*
X99257708Y-109751041D01*
X99262023Y-109730308D01*
X99265708Y-109686145D01*
X99268469Y-109624146D01*
X99270012Y-109549909D01*
X99270235Y-109511706D01*
X99270457Y-109291783D01*
X99316166Y-109275849D01*
X99348518Y-109265015D01*
X99366115Y-109259962D01*
X99366623Y-109259914D01*
X99368388Y-109273648D01*
X99370329Y-109311730D01*
X99372282Y-109369482D01*
X99374084Y-109442227D01*
X99375343Y-109510286D01*
X99379314Y-109760657D01*
X99466400Y-109760657D01*
X99470396Y-109532240D01*
X99474392Y-109303822D01*
X99516847Y-109281868D01*
X99548192Y-109266793D01*
X99566744Y-109259951D01*
X99567279Y-109259914D01*
X99569833Y-109273663D01*
X99569833Y-109273663D01*
G37*
X99569833Y-109273663D02*
X99572048Y-109311850D01*
X99573784Y-109369886D01*
X99574899Y-109443180D01*
X99575257Y-109520055D01*
X99575257Y-109780196D01*
X99529326Y-109826127D01*
X99497675Y-109854429D01*
X99469890Y-109865893D01*
X99431915Y-109865168D01*
X99416840Y-109863321D01*
X99369726Y-109857948D01*
X99330756Y-109854869D01*
X99321257Y-109854585D01*
X99289233Y-109856445D01*
X99243432Y-109861114D01*
X99225674Y-109863321D01*
X99182057Y-109866735D01*
X99152745Y-109859320D01*
X99123680Y-109836427D01*
X99113188Y-109826127D01*
X99067257Y-109780196D01*
X99067257Y-109293602D01*
X99104226Y-109276758D01*
X99136059Y-109264282D01*
X99154683Y-109259914D01*
X99159458Y-109273718D01*
X99163921Y-109312286D01*
X99167775Y-109371356D01*
X99170722Y-109446663D01*
X99172143Y-109510286D01*
X99176114Y-109760657D01*
X99210759Y-109765556D01*
X99242268Y-109762131D01*
X99257708Y-109751041D01*
X99262023Y-109730308D01*
X99265708Y-109686145D01*
X99268469Y-109624146D01*
X99270012Y-109549909D01*
X99270235Y-109511706D01*
X99270457Y-109291783D01*
X99316166Y-109275849D01*
X99348518Y-109265015D01*
X99366115Y-109259962D01*
X99366623Y-109259914D01*
X99368388Y-109273648D01*
X99370329Y-109311730D01*
X99372282Y-109369482D01*
X99374084Y-109442227D01*
X99375343Y-109510286D01*
X99379314Y-109760657D01*
X99466400Y-109760657D01*
X99470396Y-109532240D01*
X99474392Y-109303822D01*
X99516847Y-109281868D01*
X99548192Y-109266793D01*
X99566744Y-109259951D01*
X99567279Y-109259914D01*
X99569833Y-109273663D01*
G36*
X98980117Y-109380358D02*
G01*
X98979933Y-109488837D01*
X98979219Y-109572287D01*
X98977675Y-109634704D01*
X98975001Y-109680085D01*
X98970894Y-109712429D01*
X98965055Y-109735733D01*
X98957182Y-109753995D01*
X98951221Y-109764418D01*
X98901855Y-109820945D01*
X98839264Y-109856377D01*
X98770013Y-109869090D01*
X98700668Y-109857463D01*
X98659375Y-109836568D01*
X98616025Y-109800422D01*
X98586481Y-109756276D01*
X98568655Y-109698462D01*
X98560463Y-109621313D01*
X98559302Y-109564714D01*
X98559458Y-109560647D01*
X98660857Y-109560647D01*
X98661476Y-109625550D01*
X98664314Y-109668514D01*
X98670840Y-109696622D01*
X98682523Y-109716953D01*
X98696483Y-109732288D01*
X98743365Y-109761890D01*
X98793701Y-109764419D01*
X98841276Y-109739705D01*
X98844979Y-109736356D01*
X98860783Y-109718935D01*
X98870693Y-109698209D01*
X98876058Y-109667362D01*
X98878228Y-109619577D01*
X98878571Y-109566748D01*
X98877827Y-109500381D01*
X98874748Y-109456106D01*
X98868061Y-109427009D01*
X98856496Y-109406173D01*
X98847013Y-109395107D01*
X98802960Y-109367198D01*
X98752224Y-109363843D01*
X98703796Y-109385159D01*
X98694450Y-109393073D01*
X98678540Y-109410647D01*
X98668610Y-109431587D01*
X98663278Y-109462782D01*
X98661163Y-109511122D01*
X98660857Y-109560647D01*
X98559458Y-109560647D01*
X98562810Y-109473568D01*
X98574726Y-109405086D01*
X98597135Y-109353600D01*
X98632124Y-109313443D01*
X98659375Y-109292861D01*
X98708907Y-109270625D01*
X98766316Y-109260304D01*
X98819682Y-109263067D01*
X98849543Y-109274212D01*
X98861261Y-109277383D01*
X98869037Y-109265557D01*
X98874465Y-109233866D01*
X98878571Y-109185593D01*
X98883067Y-109131829D01*
X98889313Y-109099482D01*
X98900676Y-109080985D01*
X98920528Y-109068770D01*
X98933000Y-109063362D01*
X98980171Y-109043601D01*
X98980117Y-109380358D01*
X98980117Y-109380358D01*
G37*
X98980117Y-109380358D02*
X98979933Y-109488837D01*
X98979219Y-109572287D01*
X98977675Y-109634704D01*
X98975001Y-109680085D01*
X98970894Y-109712429D01*
X98965055Y-109735733D01*
X98957182Y-109753995D01*
X98951221Y-109764418D01*
X98901855Y-109820945D01*
X98839264Y-109856377D01*
X98770013Y-109869090D01*
X98700668Y-109857463D01*
X98659375Y-109836568D01*
X98616025Y-109800422D01*
X98586481Y-109756276D01*
X98568655Y-109698462D01*
X98560463Y-109621313D01*
X98559302Y-109564714D01*
X98559458Y-109560647D01*
X98660857Y-109560647D01*
X98661476Y-109625550D01*
X98664314Y-109668514D01*
X98670840Y-109696622D01*
X98682523Y-109716953D01*
X98696483Y-109732288D01*
X98743365Y-109761890D01*
X98793701Y-109764419D01*
X98841276Y-109739705D01*
X98844979Y-109736356D01*
X98860783Y-109718935D01*
X98870693Y-109698209D01*
X98876058Y-109667362D01*
X98878228Y-109619577D01*
X98878571Y-109566748D01*
X98877827Y-109500381D01*
X98874748Y-109456106D01*
X98868061Y-109427009D01*
X98856496Y-109406173D01*
X98847013Y-109395107D01*
X98802960Y-109367198D01*
X98752224Y-109363843D01*
X98703796Y-109385159D01*
X98694450Y-109393073D01*
X98678540Y-109410647D01*
X98668610Y-109431587D01*
X98663278Y-109462782D01*
X98661163Y-109511122D01*
X98660857Y-109560647D01*
X98559458Y-109560647D01*
X98562810Y-109473568D01*
X98574726Y-109405086D01*
X98597135Y-109353600D01*
X98632124Y-109313443D01*
X98659375Y-109292861D01*
X98708907Y-109270625D01*
X98766316Y-109260304D01*
X98819682Y-109263067D01*
X98849543Y-109274212D01*
X98861261Y-109277383D01*
X98869037Y-109265557D01*
X98874465Y-109233866D01*
X98878571Y-109185593D01*
X98883067Y-109131829D01*
X98889313Y-109099482D01*
X98900676Y-109080985D01*
X98920528Y-109068770D01*
X98933000Y-109063362D01*
X98980171Y-109043601D01*
X98980117Y-109380358D01*
G36*
X98319926Y-109264755D02*
G01*
X98385858Y-109289084D01*
X98439273Y-109332117D01*
X98460164Y-109362409D01*
X98482939Y-109417994D01*
X98482466Y-109458186D01*
X98458562Y-109485217D01*
X98449717Y-109489813D01*
X98411530Y-109504144D01*
X98392028Y-109500472D01*
X98385422Y-109476407D01*
X98385086Y-109463114D01*
X98372992Y-109414210D01*
X98341471Y-109379999D01*
X98297659Y-109363476D01*
X98248695Y-109367634D01*
X98208894Y-109389227D01*
X98195450Y-109401544D01*
X98185921Y-109416487D01*
X98179485Y-109439075D01*
X98175317Y-109474328D01*
X98172597Y-109527266D01*
X98170502Y-109602907D01*
X98169960Y-109626857D01*
X98167981Y-109708790D01*
X98165731Y-109766455D01*
X98162357Y-109804608D01*
X98157006Y-109828004D01*
X98148824Y-109841398D01*
X98136959Y-109849545D01*
X98129362Y-109853144D01*
X98097102Y-109865452D01*
X98078111Y-109869514D01*
X98071836Y-109855948D01*
X98068006Y-109814934D01*
X98066600Y-109745999D01*
X98067598Y-109648669D01*
X98067908Y-109633657D01*
X98070101Y-109544859D01*
X98072693Y-109480019D01*
X98076382Y-109434067D01*
X98081864Y-109401935D01*
X98089835Y-109378553D01*
X98100993Y-109358852D01*
X98106830Y-109350410D01*
X98140296Y-109313057D01*
X98177727Y-109284003D01*
X98182309Y-109281467D01*
X98249426Y-109261443D01*
X98319926Y-109264755D01*
X98319926Y-109264755D01*
G37*
X98319926Y-109264755D02*
X98385858Y-109289084D01*
X98439273Y-109332117D01*
X98460164Y-109362409D01*
X98482939Y-109417994D01*
X98482466Y-109458186D01*
X98458562Y-109485217D01*
X98449717Y-109489813D01*
X98411530Y-109504144D01*
X98392028Y-109500472D01*
X98385422Y-109476407D01*
X98385086Y-109463114D01*
X98372992Y-109414210D01*
X98341471Y-109379999D01*
X98297659Y-109363476D01*
X98248695Y-109367634D01*
X98208894Y-109389227D01*
X98195450Y-109401544D01*
X98185921Y-109416487D01*
X98179485Y-109439075D01*
X98175317Y-109474328D01*
X98172597Y-109527266D01*
X98170502Y-109602907D01*
X98169960Y-109626857D01*
X98167981Y-109708790D01*
X98165731Y-109766455D01*
X98162357Y-109804608D01*
X98157006Y-109828004D01*
X98148824Y-109841398D01*
X98136959Y-109849545D01*
X98129362Y-109853144D01*
X98097102Y-109865452D01*
X98078111Y-109869514D01*
X98071836Y-109855948D01*
X98068006Y-109814934D01*
X98066600Y-109745999D01*
X98067598Y-109648669D01*
X98067908Y-109633657D01*
X98070101Y-109544859D01*
X98072693Y-109480019D01*
X98076382Y-109434067D01*
X98081864Y-109401935D01*
X98089835Y-109378553D01*
X98100993Y-109358852D01*
X98106830Y-109350410D01*
X98140296Y-109313057D01*
X98177727Y-109284003D01*
X98182309Y-109281467D01*
X98249426Y-109261443D01*
X98319926Y-109264755D01*
G36*
X97829744Y-109265968D02*
G01*
X97886616Y-109287087D01*
X97887267Y-109287493D01*
X97922440Y-109313380D01*
X97948407Y-109343633D01*
X97966670Y-109383058D01*
X97978732Y-109436462D01*
X97986096Y-109508651D01*
X97990264Y-109604432D01*
X97990629Y-109618078D01*
X97995876Y-109823842D01*
X97951716Y-109846678D01*
X97919763Y-109862110D01*
X97900470Y-109869423D01*
X97899578Y-109869514D01*
X97896239Y-109856022D01*
X97893587Y-109819626D01*
X97891956Y-109766452D01*
X97891600Y-109723393D01*
X97891592Y-109653641D01*
X97888403Y-109609837D01*
X97877288Y-109588944D01*
X97853501Y-109587925D01*
X97812296Y-109603741D01*
X97750086Y-109632815D01*
X97704341Y-109656963D01*
X97680813Y-109677913D01*
X97673896Y-109700747D01*
X97673886Y-109701877D01*
X97685299Y-109741212D01*
X97719092Y-109762462D01*
X97770809Y-109765539D01*
X97808061Y-109765006D01*
X97827703Y-109775735D01*
X97839952Y-109801505D01*
X97847002Y-109834337D01*
X97836842Y-109852966D01*
X97833017Y-109855632D01*
X97797001Y-109866340D01*
X97746566Y-109867856D01*
X97694626Y-109860759D01*
X97657822Y-109847788D01*
X97606938Y-109804585D01*
X97578014Y-109744446D01*
X97572286Y-109697462D01*
X97576657Y-109655082D01*
X97592475Y-109620488D01*
X97623797Y-109589763D01*
X97674678Y-109558990D01*
X97749176Y-109524252D01*
X97753714Y-109522288D01*
X97820821Y-109491287D01*
X97862232Y-109465862D01*
X97879981Y-109443014D01*
X97876107Y-109419745D01*
X97852643Y-109393056D01*
X97845627Y-109386914D01*
X97798630Y-109363100D01*
X97749933Y-109364103D01*
X97707522Y-109387451D01*
X97679384Y-109430675D01*
X97676769Y-109439160D01*
X97651308Y-109480308D01*
X97619001Y-109500128D01*
X97572286Y-109519770D01*
X97572286Y-109468950D01*
X97586496Y-109395082D01*
X97628675Y-109327327D01*
X97650624Y-109304661D01*
X97700517Y-109275569D01*
X97763967Y-109262400D01*
X97829744Y-109265968D01*
X97829744Y-109265968D01*
G37*
X97829744Y-109265968D02*
X97886616Y-109287087D01*
X97887267Y-109287493D01*
X97922440Y-109313380D01*
X97948407Y-109343633D01*
X97966670Y-109383058D01*
X97978732Y-109436462D01*
X97986096Y-109508651D01*
X97990264Y-109604432D01*
X97990629Y-109618078D01*
X97995876Y-109823842D01*
X97951716Y-109846678D01*
X97919763Y-109862110D01*
X97900470Y-109869423D01*
X97899578Y-109869514D01*
X97896239Y-109856022D01*
X97893587Y-109819626D01*
X97891956Y-109766452D01*
X97891600Y-109723393D01*
X97891592Y-109653641D01*
X97888403Y-109609837D01*
X97877288Y-109588944D01*
X97853501Y-109587925D01*
X97812296Y-109603741D01*
X97750086Y-109632815D01*
X97704341Y-109656963D01*
X97680813Y-109677913D01*
X97673896Y-109700747D01*
X97673886Y-109701877D01*
X97685299Y-109741212D01*
X97719092Y-109762462D01*
X97770809Y-109765539D01*
X97808061Y-109765006D01*
X97827703Y-109775735D01*
X97839952Y-109801505D01*
X97847002Y-109834337D01*
X97836842Y-109852966D01*
X97833017Y-109855632D01*
X97797001Y-109866340D01*
X97746566Y-109867856D01*
X97694626Y-109860759D01*
X97657822Y-109847788D01*
X97606938Y-109804585D01*
X97578014Y-109744446D01*
X97572286Y-109697462D01*
X97576657Y-109655082D01*
X97592475Y-109620488D01*
X97623797Y-109589763D01*
X97674678Y-109558990D01*
X97749176Y-109524252D01*
X97753714Y-109522288D01*
X97820821Y-109491287D01*
X97862232Y-109465862D01*
X97879981Y-109443014D01*
X97876107Y-109419745D01*
X97852643Y-109393056D01*
X97845627Y-109386914D01*
X97798630Y-109363100D01*
X97749933Y-109364103D01*
X97707522Y-109387451D01*
X97679384Y-109430675D01*
X97676769Y-109439160D01*
X97651308Y-109480308D01*
X97619001Y-109500128D01*
X97572286Y-109519770D01*
X97572286Y-109468950D01*
X97586496Y-109395082D01*
X97628675Y-109327327D01*
X97650624Y-109304661D01*
X97700517Y-109275569D01*
X97763967Y-109262400D01*
X97829744Y-109265968D01*
G36*
X97165886Y-109166289D02*
G01*
X97170139Y-109225613D01*
X97175025Y-109260572D01*
X97181795Y-109275820D01*
X97191702Y-109276015D01*
X97194914Y-109274195D01*
X97237644Y-109261015D01*
X97293227Y-109261785D01*
X97349737Y-109275333D01*
X97385082Y-109292861D01*
X97421321Y-109320861D01*
X97447813Y-109352549D01*
X97465999Y-109392813D01*
X97477322Y-109446543D01*
X97483222Y-109518626D01*
X97485143Y-109613951D01*
X97485177Y-109632237D01*
X97485200Y-109837646D01*
X97439491Y-109853580D01*
X97407027Y-109864420D01*
X97389215Y-109869468D01*
X97388691Y-109869514D01*
X97386937Y-109855828D01*
X97385444Y-109818076D01*
X97384326Y-109761224D01*
X97383697Y-109690234D01*
X97383600Y-109647073D01*
X97383398Y-109561973D01*
X97382358Y-109500981D01*
X97379831Y-109459177D01*
X97375164Y-109431642D01*
X97367707Y-109413456D01*
X97356811Y-109399698D01*
X97350007Y-109393073D01*
X97303272Y-109366375D01*
X97252272Y-109364375D01*
X97206001Y-109386955D01*
X97197444Y-109395107D01*
X97184893Y-109410436D01*
X97176188Y-109428618D01*
X97170631Y-109454909D01*
X97167526Y-109494562D01*
X97166176Y-109552832D01*
X97165886Y-109633173D01*
X97165886Y-109837646D01*
X97120177Y-109853580D01*
X97087713Y-109864420D01*
X97069901Y-109869468D01*
X97069377Y-109869514D01*
X97068037Y-109855623D01*
X97066828Y-109816439D01*
X97065801Y-109755700D01*
X97065002Y-109677141D01*
X97064481Y-109584498D01*
X97064286Y-109481509D01*
X97064286Y-109084342D01*
X97111457Y-109064444D01*
X97158629Y-109044547D01*
X97165886Y-109166289D01*
X97165886Y-109166289D01*
G37*
X97165886Y-109166289D02*
X97170139Y-109225613D01*
X97175025Y-109260572D01*
X97181795Y-109275820D01*
X97191702Y-109276015D01*
X97194914Y-109274195D01*
X97237644Y-109261015D01*
X97293227Y-109261785D01*
X97349737Y-109275333D01*
X97385082Y-109292861D01*
X97421321Y-109320861D01*
X97447813Y-109352549D01*
X97465999Y-109392813D01*
X97477322Y-109446543D01*
X97483222Y-109518626D01*
X97485143Y-109613951D01*
X97485177Y-109632237D01*
X97485200Y-109837646D01*
X97439491Y-109853580D01*
X97407027Y-109864420D01*
X97389215Y-109869468D01*
X97388691Y-109869514D01*
X97386937Y-109855828D01*
X97385444Y-109818076D01*
X97384326Y-109761224D01*
X97383697Y-109690234D01*
X97383600Y-109647073D01*
X97383398Y-109561973D01*
X97382358Y-109500981D01*
X97379831Y-109459177D01*
X97375164Y-109431642D01*
X97367707Y-109413456D01*
X97356811Y-109399698D01*
X97350007Y-109393073D01*
X97303272Y-109366375D01*
X97252272Y-109364375D01*
X97206001Y-109386955D01*
X97197444Y-109395107D01*
X97184893Y-109410436D01*
X97176188Y-109428618D01*
X97170631Y-109454909D01*
X97167526Y-109494562D01*
X97166176Y-109552832D01*
X97165886Y-109633173D01*
X97165886Y-109837646D01*
X97120177Y-109853580D01*
X97087713Y-109864420D01*
X97069901Y-109869468D01*
X97069377Y-109869514D01*
X97068037Y-109855623D01*
X97066828Y-109816439D01*
X97065801Y-109755700D01*
X97065002Y-109677141D01*
X97064481Y-109584498D01*
X97064286Y-109481509D01*
X97064286Y-109084342D01*
X97111457Y-109064444D01*
X97158629Y-109044547D01*
X97165886Y-109166289D01*
G36*
X95958303Y-109246239D02*
G01*
X96015527Y-109284735D01*
X96059749Y-109340335D01*
X96086167Y-109411086D01*
X96091510Y-109463162D01*
X96090903Y-109484893D01*
X96085822Y-109501531D01*
X96071855Y-109516437D01*
X96044589Y-109532973D01*
X95999612Y-109554498D01*
X95932511Y-109584374D01*
X95932171Y-109584524D01*
X95870407Y-109612813D01*
X95819759Y-109637933D01*
X95785404Y-109657179D01*
X95772518Y-109667848D01*
X95772514Y-109667934D01*
X95783872Y-109691166D01*
X95810431Y-109716774D01*
X95840923Y-109735221D01*
X95856370Y-109738886D01*
X95898515Y-109726212D01*
X95934808Y-109694471D01*
X95952517Y-109659572D01*
X95969552Y-109633845D01*
X96002922Y-109604546D01*
X96042149Y-109579235D01*
X96076756Y-109565471D01*
X96083993Y-109564714D01*
X96092139Y-109577160D01*
X96092630Y-109608972D01*
X96086643Y-109651866D01*
X96075357Y-109697558D01*
X96059950Y-109737761D01*
X96059171Y-109739322D01*
X96012804Y-109804062D01*
X95952711Y-109848097D01*
X95884465Y-109869711D01*
X95813638Y-109867185D01*
X95745804Y-109838804D01*
X95742788Y-109836808D01*
X95689427Y-109788448D01*
X95654340Y-109725352D01*
X95634922Y-109642387D01*
X95632316Y-109619078D01*
X95627701Y-109509055D01*
X95633233Y-109457748D01*
X95772514Y-109457748D01*
X95774324Y-109489753D01*
X95784222Y-109499093D01*
X95808898Y-109492105D01*
X95847795Y-109475587D01*
X95891275Y-109454881D01*
X95892356Y-109454333D01*
X95929209Y-109434949D01*
X95944000Y-109422013D01*
X95940353Y-109408451D01*
X95924995Y-109390632D01*
X95885923Y-109364845D01*
X95843846Y-109362950D01*
X95806103Y-109381717D01*
X95780034Y-109417915D01*
X95772514Y-109457748D01*
X95633233Y-109457748D01*
X95637194Y-109421027D01*
X95661550Y-109351212D01*
X95695456Y-109302302D01*
X95756653Y-109252878D01*
X95824063Y-109228359D01*
X95892880Y-109226797D01*
X95958303Y-109246239D01*
X95958303Y-109246239D01*
G37*
X95958303Y-109246239D02*
X96015527Y-109284735D01*
X96059749Y-109340335D01*
X96086167Y-109411086D01*
X96091510Y-109463162D01*
X96090903Y-109484893D01*
X96085822Y-109501531D01*
X96071855Y-109516437D01*
X96044589Y-109532973D01*
X95999612Y-109554498D01*
X95932511Y-109584374D01*
X95932171Y-109584524D01*
X95870407Y-109612813D01*
X95819759Y-109637933D01*
X95785404Y-109657179D01*
X95772518Y-109667848D01*
X95772514Y-109667934D01*
X95783872Y-109691166D01*
X95810431Y-109716774D01*
X95840923Y-109735221D01*
X95856370Y-109738886D01*
X95898515Y-109726212D01*
X95934808Y-109694471D01*
X95952517Y-109659572D01*
X95969552Y-109633845D01*
X96002922Y-109604546D01*
X96042149Y-109579235D01*
X96076756Y-109565471D01*
X96083993Y-109564714D01*
X96092139Y-109577160D01*
X96092630Y-109608972D01*
X96086643Y-109651866D01*
X96075357Y-109697558D01*
X96059950Y-109737761D01*
X96059171Y-109739322D01*
X96012804Y-109804062D01*
X95952711Y-109848097D01*
X95884465Y-109869711D01*
X95813638Y-109867185D01*
X95745804Y-109838804D01*
X95742788Y-109836808D01*
X95689427Y-109788448D01*
X95654340Y-109725352D01*
X95634922Y-109642387D01*
X95632316Y-109619078D01*
X95627701Y-109509055D01*
X95633233Y-109457748D01*
X95772514Y-109457748D01*
X95774324Y-109489753D01*
X95784222Y-109499093D01*
X95808898Y-109492105D01*
X95847795Y-109475587D01*
X95891275Y-109454881D01*
X95892356Y-109454333D01*
X95929209Y-109434949D01*
X95944000Y-109422013D01*
X95940353Y-109408451D01*
X95924995Y-109390632D01*
X95885923Y-109364845D01*
X95843846Y-109362950D01*
X95806103Y-109381717D01*
X95780034Y-109417915D01*
X95772514Y-109457748D01*
X95633233Y-109457748D01*
X95637194Y-109421027D01*
X95661550Y-109351212D01*
X95695456Y-109302302D01*
X95756653Y-109252878D01*
X95824063Y-109228359D01*
X95892880Y-109226797D01*
X95958303Y-109246239D01*
G36*
X94831115Y-109236962D02*
G01*
X94899145Y-109272733D01*
X94949351Y-109330301D01*
X94967185Y-109367312D01*
X94981063Y-109422882D01*
X94988167Y-109493096D01*
X94988840Y-109569727D01*
X94983427Y-109644552D01*
X94972270Y-109709342D01*
X94955714Y-109755873D01*
X94950626Y-109763887D01*
X94890355Y-109823707D01*
X94818769Y-109859535D01*
X94741092Y-109870020D01*
X94662548Y-109853810D01*
X94640689Y-109844092D01*
X94598122Y-109814143D01*
X94560763Y-109774433D01*
X94557232Y-109769397D01*
X94542881Y-109745124D01*
X94533394Y-109719178D01*
X94527790Y-109685022D01*
X94525086Y-109636119D01*
X94524299Y-109565935D01*
X94524286Y-109550200D01*
X94524322Y-109545192D01*
X94669429Y-109545192D01*
X94670273Y-109611430D01*
X94673596Y-109655386D01*
X94680583Y-109683779D01*
X94692416Y-109703325D01*
X94698457Y-109709857D01*
X94733186Y-109734680D01*
X94766903Y-109733548D01*
X94800995Y-109712016D01*
X94821329Y-109689029D01*
X94833371Y-109655478D01*
X94840134Y-109602569D01*
X94840598Y-109596399D01*
X94841752Y-109500513D01*
X94829688Y-109429299D01*
X94804570Y-109383194D01*
X94766560Y-109362635D01*
X94752992Y-109361514D01*
X94717364Y-109367152D01*
X94692994Y-109386686D01*
X94678093Y-109424042D01*
X94670875Y-109483150D01*
X94669429Y-109545192D01*
X94524322Y-109545192D01*
X94524826Y-109475413D01*
X94527096Y-109423159D01*
X94532068Y-109386949D01*
X94540713Y-109360299D01*
X94554005Y-109336722D01*
X94556943Y-109332338D01*
X94606313Y-109273249D01*
X94660109Y-109238947D01*
X94725602Y-109225331D01*
X94747842Y-109224665D01*
X94831115Y-109236962D01*
X94831115Y-109236962D01*
G37*
X94831115Y-109236962D02*
X94899145Y-109272733D01*
X94949351Y-109330301D01*
X94967185Y-109367312D01*
X94981063Y-109422882D01*
X94988167Y-109493096D01*
X94988840Y-109569727D01*
X94983427Y-109644552D01*
X94972270Y-109709342D01*
X94955714Y-109755873D01*
X94950626Y-109763887D01*
X94890355Y-109823707D01*
X94818769Y-109859535D01*
X94741092Y-109870020D01*
X94662548Y-109853810D01*
X94640689Y-109844092D01*
X94598122Y-109814143D01*
X94560763Y-109774433D01*
X94557232Y-109769397D01*
X94542881Y-109745124D01*
X94533394Y-109719178D01*
X94527790Y-109685022D01*
X94525086Y-109636119D01*
X94524299Y-109565935D01*
X94524286Y-109550200D01*
X94524322Y-109545192D01*
X94669429Y-109545192D01*
X94670273Y-109611430D01*
X94673596Y-109655386D01*
X94680583Y-109683779D01*
X94692416Y-109703325D01*
X94698457Y-109709857D01*
X94733186Y-109734680D01*
X94766903Y-109733548D01*
X94800995Y-109712016D01*
X94821329Y-109689029D01*
X94833371Y-109655478D01*
X94840134Y-109602569D01*
X94840598Y-109596399D01*
X94841752Y-109500513D01*
X94829688Y-109429299D01*
X94804570Y-109383194D01*
X94766560Y-109362635D01*
X94752992Y-109361514D01*
X94717364Y-109367152D01*
X94692994Y-109386686D01*
X94678093Y-109424042D01*
X94670875Y-109483150D01*
X94669429Y-109545192D01*
X94524322Y-109545192D01*
X94524826Y-109475413D01*
X94527096Y-109423159D01*
X94532068Y-109386949D01*
X94540713Y-109360299D01*
X94554005Y-109336722D01*
X94556943Y-109332338D01*
X94606313Y-109273249D01*
X94660109Y-109238947D01*
X94725602Y-109225331D01*
X94747842Y-109224665D01*
X94831115Y-109236962D01*
G36*
X96506093Y-109242780D02*
G01*
X96552672Y-109269723D01*
X96585057Y-109296466D01*
X96608742Y-109324484D01*
X96625059Y-109358748D01*
X96635339Y-109404227D01*
X96640914Y-109465892D01*
X96643116Y-109548711D01*
X96643371Y-109608246D01*
X96643371Y-109827391D01*
X96581686Y-109855044D01*
X96520000Y-109882697D01*
X96512743Y-109642670D01*
X96509744Y-109553028D01*
X96506598Y-109487962D01*
X96502701Y-109443026D01*
X96497447Y-109413770D01*
X96490231Y-109395748D01*
X96480450Y-109384511D01*
X96477312Y-109382079D01*
X96429761Y-109363083D01*
X96381697Y-109370600D01*
X96353086Y-109390543D01*
X96341447Y-109404675D01*
X96333391Y-109423220D01*
X96328271Y-109451334D01*
X96325441Y-109494173D01*
X96324256Y-109556895D01*
X96324057Y-109622261D01*
X96324018Y-109704268D01*
X96322614Y-109762316D01*
X96317914Y-109801465D01*
X96307987Y-109826780D01*
X96290903Y-109843323D01*
X96264732Y-109856156D01*
X96229775Y-109869491D01*
X96191596Y-109884007D01*
X96196141Y-109626389D01*
X96197971Y-109533519D01*
X96200112Y-109464889D01*
X96203181Y-109415711D01*
X96207794Y-109381198D01*
X96214568Y-109356562D01*
X96224119Y-109337016D01*
X96235634Y-109319770D01*
X96291190Y-109264680D01*
X96358980Y-109232822D01*
X96432713Y-109225191D01*
X96506093Y-109242780D01*
X96506093Y-109242780D01*
G37*
X96506093Y-109242780D02*
X96552672Y-109269723D01*
X96585057Y-109296466D01*
X96608742Y-109324484D01*
X96625059Y-109358748D01*
X96635339Y-109404227D01*
X96640914Y-109465892D01*
X96643116Y-109548711D01*
X96643371Y-109608246D01*
X96643371Y-109827391D01*
X96581686Y-109855044D01*
X96520000Y-109882697D01*
X96512743Y-109642670D01*
X96509744Y-109553028D01*
X96506598Y-109487962D01*
X96502701Y-109443026D01*
X96497447Y-109413770D01*
X96490231Y-109395748D01*
X96480450Y-109384511D01*
X96477312Y-109382079D01*
X96429761Y-109363083D01*
X96381697Y-109370600D01*
X96353086Y-109390543D01*
X96341447Y-109404675D01*
X96333391Y-109423220D01*
X96328271Y-109451334D01*
X96325441Y-109494173D01*
X96324256Y-109556895D01*
X96324057Y-109622261D01*
X96324018Y-109704268D01*
X96322614Y-109762316D01*
X96317914Y-109801465D01*
X96307987Y-109826780D01*
X96290903Y-109843323D01*
X96264732Y-109856156D01*
X96229775Y-109869491D01*
X96191596Y-109884007D01*
X96196141Y-109626389D01*
X96197971Y-109533519D01*
X96200112Y-109464889D01*
X96203181Y-109415711D01*
X96207794Y-109381198D01*
X96214568Y-109356562D01*
X96224119Y-109337016D01*
X96235634Y-109319770D01*
X96291190Y-109264680D01*
X96358980Y-109232822D01*
X96432713Y-109225191D01*
X96506093Y-109242780D01*
G36*
X95389744Y-109234918D02*
G01*
X95445201Y-109262568D01*
X95494148Y-109313480D01*
X95507629Y-109332338D01*
X95522314Y-109357015D01*
X95531842Y-109383816D01*
X95537293Y-109419587D01*
X95539747Y-109471169D01*
X95540286Y-109539267D01*
X95537852Y-109632588D01*
X95529394Y-109702657D01*
X95513174Y-109754931D01*
X95487454Y-109794869D01*
X95450497Y-109827929D01*
X95447782Y-109829886D01*
X95411360Y-109849908D01*
X95367502Y-109859815D01*
X95311724Y-109862257D01*
X95221048Y-109862257D01*
X95221010Y-109950283D01*
X95220166Y-109999308D01*
X95215024Y-110028065D01*
X95201587Y-110045311D01*
X95175858Y-110059808D01*
X95169679Y-110062769D01*
X95140764Y-110076648D01*
X95118376Y-110085414D01*
X95101729Y-110086171D01*
X95090036Y-110076023D01*
X95082510Y-110052073D01*
X95078366Y-110011426D01*
X95076815Y-109951186D01*
X95077071Y-109868455D01*
X95078349Y-109760339D01*
X95078748Y-109728000D01*
X95080185Y-109616524D01*
X95081472Y-109543603D01*
X95220971Y-109543603D01*
X95221755Y-109605499D01*
X95225240Y-109645997D01*
X95233124Y-109672708D01*
X95247105Y-109693244D01*
X95256597Y-109703260D01*
X95295404Y-109732567D01*
X95329763Y-109734952D01*
X95365216Y-109710750D01*
X95366114Y-109709857D01*
X95380539Y-109691153D01*
X95389313Y-109665732D01*
X95393739Y-109626584D01*
X95395118Y-109566697D01*
X95395143Y-109553430D01*
X95391812Y-109470901D01*
X95380969Y-109413691D01*
X95361340Y-109378766D01*
X95331650Y-109363094D01*
X95314491Y-109361514D01*
X95273766Y-109368926D01*
X95245832Y-109393330D01*
X95229017Y-109437980D01*
X95221650Y-109506130D01*
X95220971Y-109543603D01*
X95081472Y-109543603D01*
X95081708Y-109530245D01*
X95083677Y-109465333D01*
X95086450Y-109417958D01*
X95090388Y-109384290D01*
X95095849Y-109360498D01*
X95103192Y-109342753D01*
X95112777Y-109327224D01*
X95116887Y-109321381D01*
X95171405Y-109266185D01*
X95240336Y-109234890D01*
X95320072Y-109226165D01*
X95389744Y-109234918D01*
X95389744Y-109234918D01*
G37*
X95389744Y-109234918D02*
X95445201Y-109262568D01*
X95494148Y-109313480D01*
X95507629Y-109332338D01*
X95522314Y-109357015D01*
X95531842Y-109383816D01*
X95537293Y-109419587D01*
X95539747Y-109471169D01*
X95540286Y-109539267D01*
X95537852Y-109632588D01*
X95529394Y-109702657D01*
X95513174Y-109754931D01*
X95487454Y-109794869D01*
X95450497Y-109827929D01*
X95447782Y-109829886D01*
X95411360Y-109849908D01*
X95367502Y-109859815D01*
X95311724Y-109862257D01*
X95221048Y-109862257D01*
X95221010Y-109950283D01*
X95220166Y-109999308D01*
X95215024Y-110028065D01*
X95201587Y-110045311D01*
X95175858Y-110059808D01*
X95169679Y-110062769D01*
X95140764Y-110076648D01*
X95118376Y-110085414D01*
X95101729Y-110086171D01*
X95090036Y-110076023D01*
X95082510Y-110052073D01*
X95078366Y-110011426D01*
X95076815Y-109951186D01*
X95077071Y-109868455D01*
X95078349Y-109760339D01*
X95078748Y-109728000D01*
X95080185Y-109616524D01*
X95081472Y-109543603D01*
X95220971Y-109543603D01*
X95221755Y-109605499D01*
X95225240Y-109645997D01*
X95233124Y-109672708D01*
X95247105Y-109693244D01*
X95256597Y-109703260D01*
X95295404Y-109732567D01*
X95329763Y-109734952D01*
X95365216Y-109710750D01*
X95366114Y-109709857D01*
X95380539Y-109691153D01*
X95389313Y-109665732D01*
X95393739Y-109626584D01*
X95395118Y-109566697D01*
X95395143Y-109553430D01*
X95391812Y-109470901D01*
X95380969Y-109413691D01*
X95361340Y-109378766D01*
X95331650Y-109363094D01*
X95314491Y-109361514D01*
X95273766Y-109368926D01*
X95245832Y-109393330D01*
X95229017Y-109437980D01*
X95221650Y-109506130D01*
X95220971Y-109543603D01*
X95081472Y-109543603D01*
X95081708Y-109530245D01*
X95083677Y-109465333D01*
X95086450Y-109417958D01*
X95090388Y-109384290D01*
X95095849Y-109360498D01*
X95103192Y-109342753D01*
X95112777Y-109327224D01*
X95116887Y-109321381D01*
X95171405Y-109266185D01*
X95240336Y-109234890D01*
X95320072Y-109226165D01*
X95389744Y-109234918D01*
D11*
X141330000Y-88080436D02*
X141330000Y-89284564D01*
X143150000Y-88080436D02*
X143150000Y-89284564D01*
X141330000Y-95700436D02*
X141330000Y-96904564D01*
X143150000Y-95700436D02*
X143150000Y-96904564D01*
X137610436Y-102510000D02*
X138814564Y-102510000D01*
X137610436Y-100690000D02*
X138814564Y-100690000D01*
X140150436Y-84730000D02*
X141354564Y-84730000D01*
X140150436Y-82910000D02*
X141354564Y-82910000D01*
X136165000Y-106429564D02*
X136165000Y-105225436D01*
X134345000Y-106429564D02*
X134345000Y-105225436D01*
X141354564Y-105770000D02*
X140150436Y-105770000D01*
X141354564Y-107590000D02*
X140150436Y-107590000D01*
X141354564Y-109580000D02*
X140150436Y-109580000D01*
X141354564Y-111400000D02*
X140150436Y-111400000D01*
X124910436Y-103780000D02*
X126114564Y-103780000D01*
X124910436Y-101960000D02*
X126114564Y-101960000D01*
X123190000Y-96500000D02*
X126640000Y-96500000D01*
X123190000Y-96500000D02*
X121240000Y-96500000D01*
X123190000Y-86380000D02*
X125140000Y-86380000D01*
X123190000Y-86380000D02*
X121240000Y-86380000D01*
D10*
X112228333Y-87447380D02*
X111895000Y-86971190D01*
X111656904Y-87447380D02*
X111656904Y-86447380D01*
X112037857Y-86447380D01*
X112133095Y-86495000D01*
X112180714Y-86542619D01*
X112228333Y-86637857D01*
X112228333Y-86780714D01*
X112180714Y-86875952D01*
X112133095Y-86923571D01*
X112037857Y-86971190D01*
X111656904Y-86971190D01*
X112799761Y-86875952D02*
X112704523Y-86828333D01*
X112656904Y-86780714D01*
X112609285Y-86685476D01*
X112609285Y-86637857D01*
X112656904Y-86542619D01*
X112704523Y-86495000D01*
X112799761Y-86447380D01*
X112990238Y-86447380D01*
X113085476Y-86495000D01*
X113133095Y-86542619D01*
X113180714Y-86637857D01*
X113180714Y-86685476D01*
X113133095Y-86780714D01*
X113085476Y-86828333D01*
X112990238Y-86875952D01*
X112799761Y-86875952D01*
X112704523Y-86923571D01*
X112656904Y-86971190D01*
X112609285Y-87066428D01*
X112609285Y-87256904D01*
X112656904Y-87352142D01*
X112704523Y-87399761D01*
X112799761Y-87447380D01*
X112990238Y-87447380D01*
X113085476Y-87399761D01*
X113133095Y-87352142D01*
X113180714Y-87256904D01*
X113180714Y-87066428D01*
X113133095Y-86971190D01*
X113085476Y-86923571D01*
X112990238Y-86875952D01*
X115641380Y-84558095D02*
X114641380Y-84558095D01*
X114641380Y-84320000D01*
X114689000Y-84177142D01*
X114784238Y-84081904D01*
X114879476Y-84034285D01*
X115069952Y-83986666D01*
X115212809Y-83986666D01*
X115403285Y-84034285D01*
X115498523Y-84081904D01*
X115593761Y-84177142D01*
X115641380Y-84320000D01*
X115641380Y-84558095D01*
X115641380Y-83034285D02*
X115641380Y-83605714D01*
X115641380Y-83320000D02*
X114641380Y-83320000D01*
X114784238Y-83415238D01*
X114879476Y-83510476D01*
X114927095Y-83605714D01*
X156789380Y-104314523D02*
X156789380Y-104790714D01*
X155789380Y-104790714D01*
X156789380Y-103981190D02*
X156122714Y-103981190D01*
X155789380Y-103981190D02*
X155837000Y-104028809D01*
X155884619Y-103981190D01*
X155837000Y-103933571D01*
X155789380Y-103981190D01*
X155884619Y-103981190D01*
X156122714Y-103505000D02*
X156789380Y-103505000D01*
X156217952Y-103505000D02*
X156170333Y-103457380D01*
X156122714Y-103362142D01*
X156122714Y-103219285D01*
X156170333Y-103124047D01*
X156265571Y-103076428D01*
X156789380Y-103076428D01*
X156741761Y-102219285D02*
X156789380Y-102314523D01*
X156789380Y-102505000D01*
X156741761Y-102600238D01*
X156646523Y-102647857D01*
X156265571Y-102647857D01*
X156170333Y-102600238D01*
X156122714Y-102505000D01*
X156122714Y-102314523D01*
X156170333Y-102219285D01*
X156265571Y-102171666D01*
X156360809Y-102171666D01*
X156456047Y-102647857D01*
X125563333Y-101322142D02*
X125515714Y-101369761D01*
X125372857Y-101417380D01*
X125277619Y-101417380D01*
X125134761Y-101369761D01*
X125039523Y-101274523D01*
X124991904Y-101179285D01*
X124944285Y-100988809D01*
X124944285Y-100845952D01*
X124991904Y-100655476D01*
X125039523Y-100560238D01*
X125134761Y-100465000D01*
X125277619Y-100417380D01*
X125372857Y-100417380D01*
X125515714Y-100465000D01*
X125563333Y-100512619D01*
X126468095Y-100417380D02*
X125991904Y-100417380D01*
X125944285Y-100893571D01*
X125991904Y-100845952D01*
X126087142Y-100798333D01*
X126325238Y-100798333D01*
X126420476Y-100845952D01*
X126468095Y-100893571D01*
X126515714Y-100988809D01*
X126515714Y-101226904D01*
X126468095Y-101322142D01*
X126420476Y-101369761D01*
X126325238Y-101417380D01*
X126087142Y-101417380D01*
X125991904Y-101369761D01*
X125944285Y-101322142D01*
X117943333Y-101122142D02*
X117895714Y-101169761D01*
X117752857Y-101217380D01*
X117657619Y-101217380D01*
X117514761Y-101169761D01*
X117419523Y-101074523D01*
X117371904Y-100979285D01*
X117324285Y-100788809D01*
X117324285Y-100645952D01*
X117371904Y-100455476D01*
X117419523Y-100360238D01*
X117514761Y-100265000D01*
X117657619Y-100217380D01*
X117752857Y-100217380D01*
X117895714Y-100265000D01*
X117943333Y-100312619D01*
X118276666Y-100217380D02*
X118943333Y-100217380D01*
X118514761Y-101217380D01*
X156694142Y-97566904D02*
X156741761Y-97614523D01*
X156789380Y-97757380D01*
X156789380Y-97852619D01*
X156741761Y-97995476D01*
X156646523Y-98090714D01*
X156551285Y-98138333D01*
X156360809Y-98185952D01*
X156217952Y-98185952D01*
X156027476Y-98138333D01*
X155932238Y-98090714D01*
X155837000Y-97995476D01*
X155789380Y-97852619D01*
X155789380Y-97757380D01*
X155837000Y-97614523D01*
X155884619Y-97566904D01*
X156122714Y-96709761D02*
X156789380Y-96709761D01*
X156122714Y-97138333D02*
X156646523Y-97138333D01*
X156741761Y-97090714D01*
X156789380Y-96995476D01*
X156789380Y-96852619D01*
X156741761Y-96757380D01*
X156694142Y-96709761D01*
X156789380Y-96233571D02*
X156122714Y-96233571D01*
X156313190Y-96233571D02*
X156217952Y-96185952D01*
X156170333Y-96138333D01*
X156122714Y-96043095D01*
X156122714Y-95947857D01*
X156789380Y-95614523D02*
X156122714Y-95614523D01*
X156313190Y-95614523D02*
X156217952Y-95566904D01*
X156170333Y-95519285D01*
X156122714Y-95424047D01*
X156122714Y-95328809D01*
X156741761Y-94614523D02*
X156789380Y-94709761D01*
X156789380Y-94900238D01*
X156741761Y-94995476D01*
X156646523Y-95043095D01*
X156265571Y-95043095D01*
X156170333Y-94995476D01*
X156122714Y-94900238D01*
X156122714Y-94709761D01*
X156170333Y-94614523D01*
X156265571Y-94566904D01*
X156360809Y-94566904D01*
X156456047Y-95043095D01*
X156122714Y-94138333D02*
X156789380Y-94138333D01*
X156217952Y-94138333D02*
X156170333Y-94090714D01*
X156122714Y-93995476D01*
X156122714Y-93852619D01*
X156170333Y-93757380D01*
X156265571Y-93709761D01*
X156789380Y-93709761D01*
X156122714Y-93376428D02*
X156122714Y-92995476D01*
X155789380Y-93233571D02*
X156646523Y-93233571D01*
X156741761Y-93185952D01*
X156789380Y-93090714D01*
X156789380Y-92995476D01*
X155789380Y-92043095D02*
X155789380Y-91471666D01*
X156789380Y-91757380D02*
X155789380Y-91757380D01*
X156789380Y-91138333D02*
X156122714Y-91138333D01*
X156313190Y-91138333D02*
X156217952Y-91090714D01*
X156170333Y-91043095D01*
X156122714Y-90947857D01*
X156122714Y-90852619D01*
X156789380Y-90090714D02*
X156265571Y-90090714D01*
X156170333Y-90138333D01*
X156122714Y-90233571D01*
X156122714Y-90424047D01*
X156170333Y-90519285D01*
X156741761Y-90090714D02*
X156789380Y-90185952D01*
X156789380Y-90424047D01*
X156741761Y-90519285D01*
X156646523Y-90566904D01*
X156551285Y-90566904D01*
X156456047Y-90519285D01*
X156408428Y-90424047D01*
X156408428Y-90185952D01*
X156360809Y-90090714D01*
X156122714Y-89614523D02*
X156789380Y-89614523D01*
X156217952Y-89614523D02*
X156170333Y-89566904D01*
X156122714Y-89471666D01*
X156122714Y-89328809D01*
X156170333Y-89233571D01*
X156265571Y-89185952D01*
X156789380Y-89185952D01*
X156741761Y-88757380D02*
X156789380Y-88662142D01*
X156789380Y-88471666D01*
X156741761Y-88376428D01*
X156646523Y-88328809D01*
X156598904Y-88328809D01*
X156503666Y-88376428D01*
X156456047Y-88471666D01*
X156456047Y-88614523D01*
X156408428Y-88709761D01*
X156313190Y-88757380D01*
X156265571Y-88757380D01*
X156170333Y-88709761D01*
X156122714Y-88614523D01*
X156122714Y-88471666D01*
X156170333Y-88376428D01*
X156122714Y-88043095D02*
X156122714Y-87662142D01*
X156789380Y-87900238D02*
X155932238Y-87900238D01*
X155837000Y-87852619D01*
X155789380Y-87757380D01*
X155789380Y-87662142D01*
X156789380Y-87185952D02*
X156741761Y-87281190D01*
X156694142Y-87328809D01*
X156598904Y-87376428D01*
X156313190Y-87376428D01*
X156217952Y-87328809D01*
X156170333Y-87281190D01*
X156122714Y-87185952D01*
X156122714Y-87043095D01*
X156170333Y-86947857D01*
X156217952Y-86900238D01*
X156313190Y-86852619D01*
X156598904Y-86852619D01*
X156694142Y-86900238D01*
X156741761Y-86947857D01*
X156789380Y-87043095D01*
X156789380Y-87185952D01*
X156789380Y-86424047D02*
X156122714Y-86424047D01*
X156313190Y-86424047D02*
X156217952Y-86376428D01*
X156170333Y-86328809D01*
X156122714Y-86233571D01*
X156122714Y-86138333D01*
X156789380Y-85805000D02*
X156122714Y-85805000D01*
X156217952Y-85805000D02*
X156170333Y-85757380D01*
X156122714Y-85662142D01*
X156122714Y-85519285D01*
X156170333Y-85424047D01*
X156265571Y-85376428D01*
X156789380Y-85376428D01*
X156265571Y-85376428D02*
X156170333Y-85328809D01*
X156122714Y-85233571D01*
X156122714Y-85090714D01*
X156170333Y-84995476D01*
X156265571Y-84947857D01*
X156789380Y-84947857D01*
X156741761Y-84090714D02*
X156789380Y-84185952D01*
X156789380Y-84376428D01*
X156741761Y-84471666D01*
X156646523Y-84519285D01*
X156265571Y-84519285D01*
X156170333Y-84471666D01*
X156122714Y-84376428D01*
X156122714Y-84185952D01*
X156170333Y-84090714D01*
X156265571Y-84043095D01*
X156360809Y-84043095D01*
X156456047Y-84519285D01*
X156789380Y-83614523D02*
X156122714Y-83614523D01*
X156313190Y-83614523D02*
X156217952Y-83566904D01*
X156170333Y-83519285D01*
X156122714Y-83424047D01*
X156122714Y-83328809D01*
X114379404Y-82422380D02*
X114379404Y-81422380D01*
X114617500Y-81422380D01*
X114760357Y-81470000D01*
X114855595Y-81565238D01*
X114903214Y-81660476D01*
X114950833Y-81850952D01*
X114950833Y-81993809D01*
X114903214Y-82184285D01*
X114855595Y-82279523D01*
X114760357Y-82374761D01*
X114617500Y-82422380D01*
X114379404Y-82422380D01*
X115903214Y-82422380D02*
X115331785Y-82422380D01*
X115617500Y-82422380D02*
X115617500Y-81422380D01*
X115522261Y-81565238D01*
X115427023Y-81660476D01*
X115331785Y-81708095D01*
X134336190Y-98678690D02*
X134812380Y-98678690D01*
X133812380Y-99012023D02*
X134336190Y-98678690D01*
X133812380Y-98345357D01*
X134812380Y-97488214D02*
X134812380Y-98059642D01*
X134812380Y-97773928D02*
X133812380Y-97773928D01*
X133955238Y-97869166D01*
X134050476Y-97964404D01*
X134098095Y-98059642D01*
X106346666Y-84542380D02*
X106346666Y-85256666D01*
X106299047Y-85399523D01*
X106203809Y-85494761D01*
X106060952Y-85542380D01*
X105965714Y-85542380D01*
X107251428Y-84875714D02*
X107251428Y-85542380D01*
X107013333Y-84494761D02*
X106775238Y-85209047D01*
X107394285Y-85209047D01*
X107481904Y-106072380D02*
X108053333Y-106072380D01*
X107767619Y-107072380D02*
X107767619Y-106072380D01*
X108386666Y-107072380D02*
X108386666Y-106072380D01*
X108767619Y-106072380D01*
X108862857Y-106120000D01*
X108910476Y-106167619D01*
X108958095Y-106262857D01*
X108958095Y-106405714D01*
X108910476Y-106500952D01*
X108862857Y-106548571D01*
X108767619Y-106596190D01*
X108386666Y-106596190D01*
X109910476Y-107072380D02*
X109339047Y-107072380D01*
X109624761Y-107072380D02*
X109624761Y-106072380D01*
X109529523Y-106215238D01*
X109434285Y-106310476D01*
X109339047Y-106358095D01*
X110529523Y-106072380D02*
X110624761Y-106072380D01*
X110720000Y-106120000D01*
X110767619Y-106167619D01*
X110815238Y-106262857D01*
X110862857Y-106453333D01*
X110862857Y-106691428D01*
X110815238Y-106881904D01*
X110767619Y-106977142D01*
X110720000Y-107024761D01*
X110624761Y-107072380D01*
X110529523Y-107072380D01*
X110434285Y-107024761D01*
X110386666Y-106977142D01*
X110339047Y-106881904D01*
X110291428Y-106691428D01*
X110291428Y-106453333D01*
X110339047Y-106262857D01*
X110386666Y-106167619D01*
X110434285Y-106120000D01*
X110529523Y-106072380D01*
X107600952Y-110684761D02*
X107743809Y-110732380D01*
X107981904Y-110732380D01*
X108077142Y-110684761D01*
X108124761Y-110637142D01*
X108172380Y-110541904D01*
X108172380Y-110446666D01*
X108124761Y-110351428D01*
X108077142Y-110303809D01*
X107981904Y-110256190D01*
X107791428Y-110208571D01*
X107696190Y-110160952D01*
X107648571Y-110113333D01*
X107600952Y-110018095D01*
X107600952Y-109922857D01*
X107648571Y-109827619D01*
X107696190Y-109780000D01*
X107791428Y-109732380D01*
X108029523Y-109732380D01*
X108172380Y-109780000D01*
X108553333Y-110684761D02*
X108696190Y-110732380D01*
X108934285Y-110732380D01*
X109029523Y-110684761D01*
X109077142Y-110637142D01*
X109124761Y-110541904D01*
X109124761Y-110446666D01*
X109077142Y-110351428D01*
X109029523Y-110303809D01*
X108934285Y-110256190D01*
X108743809Y-110208571D01*
X108648571Y-110160952D01*
X108600952Y-110113333D01*
X108553333Y-110018095D01*
X108553333Y-109922857D01*
X108600952Y-109827619D01*
X108648571Y-109780000D01*
X108743809Y-109732380D01*
X108981904Y-109732380D01*
X109124761Y-109780000D01*
X109553333Y-110208571D02*
X109886666Y-110208571D01*
X110029523Y-110732380D02*
X109553333Y-110732380D01*
X109553333Y-109732380D01*
X110029523Y-109732380D01*
X110934285Y-110732380D02*
X110458095Y-110732380D01*
X110458095Y-109732380D01*
X104148095Y-106072380D02*
X104719523Y-106072380D01*
X104433809Y-107072380D02*
X104433809Y-106072380D01*
X105052857Y-107072380D02*
X105052857Y-106072380D01*
X105433809Y-106072380D01*
X105529047Y-106120000D01*
X105576666Y-106167619D01*
X105624285Y-106262857D01*
X105624285Y-106405714D01*
X105576666Y-106500952D01*
X105529047Y-106548571D01*
X105433809Y-106596190D01*
X105052857Y-106596190D01*
X106100476Y-107072380D02*
X106290952Y-107072380D01*
X106386190Y-107024761D01*
X106433809Y-106977142D01*
X106529047Y-106834285D01*
X106576666Y-106643809D01*
X106576666Y-106262857D01*
X106529047Y-106167619D01*
X106481428Y-106120000D01*
X106386190Y-106072380D01*
X106195714Y-106072380D01*
X106100476Y-106120000D01*
X106052857Y-106167619D01*
X106005238Y-106262857D01*
X106005238Y-106500952D01*
X106052857Y-106596190D01*
X106100476Y-106643809D01*
X106195714Y-106691428D01*
X106386190Y-106691428D01*
X106481428Y-106643809D01*
X106529047Y-106596190D01*
X106576666Y-106500952D01*
X104124285Y-110684761D02*
X104267142Y-110732380D01*
X104505238Y-110732380D01*
X104600476Y-110684761D01*
X104648095Y-110637142D01*
X104695714Y-110541904D01*
X104695714Y-110446666D01*
X104648095Y-110351428D01*
X104600476Y-110303809D01*
X104505238Y-110256190D01*
X104314761Y-110208571D01*
X104219523Y-110160952D01*
X104171904Y-110113333D01*
X104124285Y-110018095D01*
X104124285Y-109922857D01*
X104171904Y-109827619D01*
X104219523Y-109780000D01*
X104314761Y-109732380D01*
X104552857Y-109732380D01*
X104695714Y-109780000D01*
X105695714Y-110637142D02*
X105648095Y-110684761D01*
X105505238Y-110732380D01*
X105410000Y-110732380D01*
X105267142Y-110684761D01*
X105171904Y-110589523D01*
X105124285Y-110494285D01*
X105076666Y-110303809D01*
X105076666Y-110160952D01*
X105124285Y-109970476D01*
X105171904Y-109875238D01*
X105267142Y-109780000D01*
X105410000Y-109732380D01*
X105505238Y-109732380D01*
X105648095Y-109780000D01*
X105695714Y-109827619D01*
X106124285Y-110732380D02*
X106124285Y-109732380D01*
X106695714Y-110732380D02*
X106267142Y-110160952D01*
X106695714Y-109732380D02*
X106124285Y-110303809D01*
X107958095Y-99722380D02*
X108529523Y-99722380D01*
X108243809Y-100722380D02*
X108243809Y-99722380D01*
X108862857Y-100722380D02*
X108862857Y-99722380D01*
X109243809Y-99722380D01*
X109339047Y-99770000D01*
X109386666Y-99817619D01*
X109434285Y-99912857D01*
X109434285Y-100055714D01*
X109386666Y-100150952D01*
X109339047Y-100198571D01*
X109243809Y-100246190D01*
X108862857Y-100246190D01*
X110005714Y-100150952D02*
X109910476Y-100103333D01*
X109862857Y-100055714D01*
X109815238Y-99960476D01*
X109815238Y-99912857D01*
X109862857Y-99817619D01*
X109910476Y-99770000D01*
X110005714Y-99722380D01*
X110196190Y-99722380D01*
X110291428Y-99770000D01*
X110339047Y-99817619D01*
X110386666Y-99912857D01*
X110386666Y-99960476D01*
X110339047Y-100055714D01*
X110291428Y-100103333D01*
X110196190Y-100150952D01*
X110005714Y-100150952D01*
X109910476Y-100198571D01*
X109862857Y-100246190D01*
X109815238Y-100341428D01*
X109815238Y-100531904D01*
X109862857Y-100627142D01*
X109910476Y-100674761D01*
X110005714Y-100722380D01*
X110196190Y-100722380D01*
X110291428Y-100674761D01*
X110339047Y-100627142D01*
X110386666Y-100531904D01*
X110386666Y-100341428D01*
X110339047Y-100246190D01*
X110291428Y-100198571D01*
X110196190Y-100150952D01*
X107648571Y-104382380D02*
X107648571Y-103382380D01*
X107981904Y-104096666D01*
X108315238Y-103382380D01*
X108315238Y-104382380D01*
X108981904Y-103382380D02*
X109172380Y-103382380D01*
X109267619Y-103430000D01*
X109362857Y-103525238D01*
X109410476Y-103715714D01*
X109410476Y-104049047D01*
X109362857Y-104239523D01*
X109267619Y-104334761D01*
X109172380Y-104382380D01*
X108981904Y-104382380D01*
X108886666Y-104334761D01*
X108791428Y-104239523D01*
X108743809Y-104049047D01*
X108743809Y-103715714D01*
X108791428Y-103525238D01*
X108886666Y-103430000D01*
X108981904Y-103382380D01*
X109791428Y-104334761D02*
X109934285Y-104382380D01*
X110172380Y-104382380D01*
X110267619Y-104334761D01*
X110315238Y-104287142D01*
X110362857Y-104191904D01*
X110362857Y-104096666D01*
X110315238Y-104001428D01*
X110267619Y-103953809D01*
X110172380Y-103906190D01*
X109981904Y-103858571D01*
X109886666Y-103810952D01*
X109839047Y-103763333D01*
X109791428Y-103668095D01*
X109791428Y-103572857D01*
X109839047Y-103477619D01*
X109886666Y-103430000D01*
X109981904Y-103382380D01*
X110220000Y-103382380D01*
X110362857Y-103430000D01*
X110791428Y-104382380D02*
X110791428Y-103382380D01*
X104148095Y-99722380D02*
X104719523Y-99722380D01*
X104433809Y-100722380D02*
X104433809Y-99722380D01*
X105052857Y-100722380D02*
X105052857Y-99722380D01*
X105433809Y-99722380D01*
X105529047Y-99770000D01*
X105576666Y-99817619D01*
X105624285Y-99912857D01*
X105624285Y-100055714D01*
X105576666Y-100150952D01*
X105529047Y-100198571D01*
X105433809Y-100246190D01*
X105052857Y-100246190D01*
X105957619Y-99722380D02*
X106624285Y-99722380D01*
X106195714Y-100722380D01*
X103838571Y-104382380D02*
X103838571Y-103382380D01*
X104171904Y-104096666D01*
X104505238Y-103382380D01*
X104505238Y-104382380D01*
X104981428Y-104382380D02*
X104981428Y-103382380D01*
X105410000Y-104334761D02*
X105552857Y-104382380D01*
X105790952Y-104382380D01*
X105886190Y-104334761D01*
X105933809Y-104287142D01*
X105981428Y-104191904D01*
X105981428Y-104096666D01*
X105933809Y-104001428D01*
X105886190Y-103953809D01*
X105790952Y-103906190D01*
X105600476Y-103858571D01*
X105505238Y-103810952D01*
X105457619Y-103763333D01*
X105410000Y-103668095D01*
X105410000Y-103572857D01*
X105457619Y-103477619D01*
X105505238Y-103430000D01*
X105600476Y-103382380D01*
X105838571Y-103382380D01*
X105981428Y-103430000D01*
X106600476Y-103382380D02*
X106790952Y-103382380D01*
X106886190Y-103430000D01*
X106981428Y-103525238D01*
X107029047Y-103715714D01*
X107029047Y-104049047D01*
X106981428Y-104239523D01*
X106886190Y-104334761D01*
X106790952Y-104382380D01*
X106600476Y-104382380D01*
X106505238Y-104334761D01*
X106410000Y-104239523D01*
X106362380Y-104049047D01*
X106362380Y-103715714D01*
X106410000Y-103525238D01*
X106505238Y-103430000D01*
X106600476Y-103382380D01*
X107958095Y-93432380D02*
X108529523Y-93432380D01*
X108243809Y-94432380D02*
X108243809Y-93432380D01*
X108862857Y-94432380D02*
X108862857Y-93432380D01*
X109243809Y-93432380D01*
X109339047Y-93480000D01*
X109386666Y-93527619D01*
X109434285Y-93622857D01*
X109434285Y-93765714D01*
X109386666Y-93860952D01*
X109339047Y-93908571D01*
X109243809Y-93956190D01*
X108862857Y-93956190D01*
X110291428Y-93432380D02*
X110100952Y-93432380D01*
X110005714Y-93480000D01*
X109958095Y-93527619D01*
X109862857Y-93670476D01*
X109815238Y-93860952D01*
X109815238Y-94241904D01*
X109862857Y-94337142D01*
X109910476Y-94384761D01*
X110005714Y-94432380D01*
X110196190Y-94432380D01*
X110291428Y-94384761D01*
X110339047Y-94337142D01*
X110386666Y-94241904D01*
X110386666Y-94003809D01*
X110339047Y-93908571D01*
X110291428Y-93860952D01*
X110196190Y-93813333D01*
X110005714Y-93813333D01*
X109910476Y-93860952D01*
X109862857Y-93908571D01*
X109815238Y-94003809D01*
X108005714Y-97984761D02*
X108148571Y-98032380D01*
X108386666Y-98032380D01*
X108481904Y-97984761D01*
X108529523Y-97937142D01*
X108577142Y-97841904D01*
X108577142Y-97746666D01*
X108529523Y-97651428D01*
X108481904Y-97603809D01*
X108386666Y-97556190D01*
X108196190Y-97508571D01*
X108100952Y-97460952D01*
X108053333Y-97413333D01*
X108005714Y-97318095D01*
X108005714Y-97222857D01*
X108053333Y-97127619D01*
X108100952Y-97080000D01*
X108196190Y-97032380D01*
X108434285Y-97032380D01*
X108577142Y-97080000D01*
X109005714Y-98032380D02*
X109005714Y-97032380D01*
X109243809Y-97032380D01*
X109386666Y-97080000D01*
X109481904Y-97175238D01*
X109529523Y-97270476D01*
X109577142Y-97460952D01*
X109577142Y-97603809D01*
X109529523Y-97794285D01*
X109481904Y-97889523D01*
X109386666Y-97984761D01*
X109243809Y-98032380D01*
X109005714Y-98032380D01*
X109958095Y-97746666D02*
X110434285Y-97746666D01*
X109862857Y-98032380D02*
X110196190Y-97032380D01*
X110529523Y-98032380D01*
X104148095Y-93432380D02*
X104719523Y-93432380D01*
X104433809Y-94432380D02*
X104433809Y-93432380D01*
X105052857Y-94432380D02*
X105052857Y-93432380D01*
X105433809Y-93432380D01*
X105529047Y-93480000D01*
X105576666Y-93527619D01*
X105624285Y-93622857D01*
X105624285Y-93765714D01*
X105576666Y-93860952D01*
X105529047Y-93908571D01*
X105433809Y-93956190D01*
X105052857Y-93956190D01*
X106529047Y-93432380D02*
X106052857Y-93432380D01*
X106005238Y-93908571D01*
X106052857Y-93860952D01*
X106148095Y-93813333D01*
X106386190Y-93813333D01*
X106481428Y-93860952D01*
X106529047Y-93908571D01*
X106576666Y-94003809D01*
X106576666Y-94241904D01*
X106529047Y-94337142D01*
X106481428Y-94384761D01*
X106386190Y-94432380D01*
X106148095Y-94432380D01*
X106052857Y-94384761D01*
X106005238Y-94337142D01*
X104219523Y-97984761D02*
X104362380Y-98032380D01*
X104600476Y-98032380D01*
X104695714Y-97984761D01*
X104743333Y-97937142D01*
X104790952Y-97841904D01*
X104790952Y-97746666D01*
X104743333Y-97651428D01*
X104695714Y-97603809D01*
X104600476Y-97556190D01*
X104410000Y-97508571D01*
X104314761Y-97460952D01*
X104267142Y-97413333D01*
X104219523Y-97318095D01*
X104219523Y-97222857D01*
X104267142Y-97127619D01*
X104314761Y-97080000D01*
X104410000Y-97032380D01*
X104648095Y-97032380D01*
X104790952Y-97080000D01*
X105790952Y-97937142D02*
X105743333Y-97984761D01*
X105600476Y-98032380D01*
X105505238Y-98032380D01*
X105362380Y-97984761D01*
X105267142Y-97889523D01*
X105219523Y-97794285D01*
X105171904Y-97603809D01*
X105171904Y-97460952D01*
X105219523Y-97270476D01*
X105267142Y-97175238D01*
X105362380Y-97080000D01*
X105505238Y-97032380D01*
X105600476Y-97032380D01*
X105743333Y-97080000D01*
X105790952Y-97127619D01*
X106695714Y-98032380D02*
X106219523Y-98032380D01*
X106219523Y-97032380D01*
X119023095Y-106400000D02*
X120023095Y-106400000D01*
X119832619Y-107767380D02*
X119499285Y-107291190D01*
X119261190Y-107767380D02*
X119261190Y-106767380D01*
X119642142Y-106767380D01*
X119737380Y-106815000D01*
X119785000Y-106862619D01*
X119832619Y-106957857D01*
X119832619Y-107100714D01*
X119785000Y-107195952D01*
X119737380Y-107243571D01*
X119642142Y-107291190D01*
X119261190Y-107291190D01*
X120023095Y-106400000D02*
X120927857Y-106400000D01*
X120261190Y-107243571D02*
X120594523Y-107243571D01*
X120737380Y-107767380D02*
X120261190Y-107767380D01*
X120261190Y-106767380D01*
X120737380Y-106767380D01*
X120927857Y-106400000D02*
X121880238Y-106400000D01*
X121118333Y-107719761D02*
X121261190Y-107767380D01*
X121499285Y-107767380D01*
X121594523Y-107719761D01*
X121642142Y-107672142D01*
X121689761Y-107576904D01*
X121689761Y-107481666D01*
X121642142Y-107386428D01*
X121594523Y-107338809D01*
X121499285Y-107291190D01*
X121308809Y-107243571D01*
X121213571Y-107195952D01*
X121165952Y-107148333D01*
X121118333Y-107053095D01*
X121118333Y-106957857D01*
X121165952Y-106862619D01*
X121213571Y-106815000D01*
X121308809Y-106767380D01*
X121546904Y-106767380D01*
X121689761Y-106815000D01*
X121880238Y-106400000D02*
X122785000Y-106400000D01*
X122118333Y-107243571D02*
X122451666Y-107243571D01*
X122594523Y-107767380D02*
X122118333Y-107767380D01*
X122118333Y-106767380D01*
X122594523Y-106767380D01*
X122785000Y-106400000D02*
X123546904Y-106400000D01*
X122880238Y-106767380D02*
X123451666Y-106767380D01*
X123165952Y-107767380D02*
X123165952Y-106767380D01*
X114935238Y-93162380D02*
X114935238Y-92162380D01*
X115173333Y-92162380D01*
X115316190Y-92210000D01*
X115411428Y-92305238D01*
X115459047Y-92400476D01*
X115506666Y-92590952D01*
X115506666Y-92733809D01*
X115459047Y-92924285D01*
X115411428Y-93019523D01*
X115316190Y-93114761D01*
X115173333Y-93162380D01*
X114935238Y-93162380D01*
X116887619Y-92162380D02*
X117078095Y-92162380D01*
X117173333Y-92210000D01*
X117268571Y-92305238D01*
X117316190Y-92495714D01*
X117316190Y-92829047D01*
X117268571Y-93019523D01*
X117173333Y-93114761D01*
X117078095Y-93162380D01*
X116887619Y-93162380D01*
X116792380Y-93114761D01*
X116697142Y-93019523D01*
X116649523Y-92829047D01*
X116649523Y-92495714D01*
X116697142Y-92305238D01*
X116792380Y-92210000D01*
X116887619Y-92162380D01*
X118173333Y-92495714D02*
X118173333Y-93162380D01*
X117744761Y-92495714D02*
X117744761Y-93019523D01*
X117792380Y-93114761D01*
X117887619Y-93162380D01*
X118030476Y-93162380D01*
X118125714Y-93114761D01*
X118173333Y-93067142D01*
X118506666Y-92495714D02*
X118887619Y-92495714D01*
X118649523Y-92162380D02*
X118649523Y-93019523D01*
X118697142Y-93114761D01*
X118792380Y-93162380D01*
X118887619Y-93162380D01*
X106346666Y-88352380D02*
X106346666Y-89066666D01*
X106299047Y-89209523D01*
X106203809Y-89304761D01*
X106060952Y-89352380D01*
X105965714Y-89352380D01*
X106727619Y-88352380D02*
X107346666Y-88352380D01*
X107013333Y-88733333D01*
X107156190Y-88733333D01*
X107251428Y-88780952D01*
X107299047Y-88828571D01*
X107346666Y-88923809D01*
X107346666Y-89161904D01*
X107299047Y-89257142D01*
X107251428Y-89304761D01*
X107156190Y-89352380D01*
X106870476Y-89352380D01*
X106775238Y-89304761D01*
X106727619Y-89257142D01*
X138045833Y-92432142D02*
X137998214Y-92479761D01*
X137855357Y-92527380D01*
X137760119Y-92527380D01*
X137617261Y-92479761D01*
X137522023Y-92384523D01*
X137474404Y-92289285D01*
X137426785Y-92098809D01*
X137426785Y-91955952D01*
X137474404Y-91765476D01*
X137522023Y-91670238D01*
X137617261Y-91575000D01*
X137760119Y-91527380D01*
X137855357Y-91527380D01*
X137998214Y-91575000D01*
X138045833Y-91622619D01*
X138998214Y-92527380D02*
X138426785Y-92527380D01*
X138712500Y-92527380D02*
X138712500Y-91527380D01*
X138617261Y-91670238D01*
X138522023Y-91765476D01*
X138426785Y-91813095D01*
X138045833Y-96157142D02*
X137998214Y-96204761D01*
X137855357Y-96252380D01*
X137760119Y-96252380D01*
X137617261Y-96204761D01*
X137522023Y-96109523D01*
X137474404Y-96014285D01*
X137426785Y-95823809D01*
X137426785Y-95680952D01*
X137474404Y-95490476D01*
X137522023Y-95395238D01*
X137617261Y-95300000D01*
X137760119Y-95252380D01*
X137855357Y-95252380D01*
X137998214Y-95300000D01*
X138045833Y-95347619D01*
X138426785Y-95347619D02*
X138474404Y-95300000D01*
X138569642Y-95252380D01*
X138807738Y-95252380D01*
X138902976Y-95300000D01*
X138950595Y-95347619D01*
X138998214Y-95442857D01*
X138998214Y-95538095D01*
X138950595Y-95680952D01*
X138379166Y-96252380D01*
X138998214Y-96252380D01*
X136775833Y-99967142D02*
X136728214Y-100014761D01*
X136585357Y-100062380D01*
X136490119Y-100062380D01*
X136347261Y-100014761D01*
X136252023Y-99919523D01*
X136204404Y-99824285D01*
X136156785Y-99633809D01*
X136156785Y-99490952D01*
X136204404Y-99300476D01*
X136252023Y-99205238D01*
X136347261Y-99110000D01*
X136490119Y-99062380D01*
X136585357Y-99062380D01*
X136728214Y-99110000D01*
X136775833Y-99157619D01*
X137109166Y-99062380D02*
X137728214Y-99062380D01*
X137394880Y-99443333D01*
X137537738Y-99443333D01*
X137632976Y-99490952D01*
X137680595Y-99538571D01*
X137728214Y-99633809D01*
X137728214Y-99871904D01*
X137680595Y-99967142D01*
X137632976Y-100014761D01*
X137537738Y-100062380D01*
X137252023Y-100062380D01*
X137156785Y-100014761D01*
X137109166Y-99967142D01*
X134453333Y-112752142D02*
X134405714Y-112799761D01*
X134262857Y-112847380D01*
X134167619Y-112847380D01*
X134024761Y-112799761D01*
X133929523Y-112704523D01*
X133881904Y-112609285D01*
X133834285Y-112418809D01*
X133834285Y-112275952D01*
X133881904Y-112085476D01*
X133929523Y-111990238D01*
X134024761Y-111895000D01*
X134167619Y-111847380D01*
X134262857Y-111847380D01*
X134405714Y-111895000D01*
X134453333Y-111942619D01*
X135310476Y-112180714D02*
X135310476Y-112847380D01*
X135072380Y-111799761D02*
X134834285Y-112514047D01*
X135453333Y-112514047D01*
X114133333Y-100052142D02*
X114085714Y-100099761D01*
X113942857Y-100147380D01*
X113847619Y-100147380D01*
X113704761Y-100099761D01*
X113609523Y-100004523D01*
X113561904Y-99909285D01*
X113514285Y-99718809D01*
X113514285Y-99575952D01*
X113561904Y-99385476D01*
X113609523Y-99290238D01*
X113704761Y-99195000D01*
X113847619Y-99147380D01*
X113942857Y-99147380D01*
X114085714Y-99195000D01*
X114133333Y-99242619D01*
X114990476Y-99147380D02*
X114800000Y-99147380D01*
X114704761Y-99195000D01*
X114657142Y-99242619D01*
X114561904Y-99385476D01*
X114514285Y-99575952D01*
X114514285Y-99956904D01*
X114561904Y-100052142D01*
X114609523Y-100099761D01*
X114704761Y-100147380D01*
X114895238Y-100147380D01*
X114990476Y-100099761D01*
X115038095Y-100052142D01*
X115085714Y-99956904D01*
X115085714Y-99718809D01*
X115038095Y-99623571D01*
X114990476Y-99575952D01*
X114895238Y-99528333D01*
X114704761Y-99528333D01*
X114609523Y-99575952D01*
X114561904Y-99623571D01*
X114514285Y-99718809D01*
X123240833Y-82357142D02*
X123193214Y-82404761D01*
X123050357Y-82452380D01*
X122955119Y-82452380D01*
X122812261Y-82404761D01*
X122717023Y-82309523D01*
X122669404Y-82214285D01*
X122621785Y-82023809D01*
X122621785Y-81880952D01*
X122669404Y-81690476D01*
X122717023Y-81595238D01*
X122812261Y-81500000D01*
X122955119Y-81452380D01*
X123050357Y-81452380D01*
X123193214Y-81500000D01*
X123240833Y-81547619D01*
X123812261Y-81880952D02*
X123717023Y-81833333D01*
X123669404Y-81785714D01*
X123621785Y-81690476D01*
X123621785Y-81642857D01*
X123669404Y-81547619D01*
X123717023Y-81500000D01*
X123812261Y-81452380D01*
X124002738Y-81452380D01*
X124097976Y-81500000D01*
X124145595Y-81547619D01*
X124193214Y-81642857D01*
X124193214Y-81690476D01*
X124145595Y-81785714D01*
X124097976Y-81833333D01*
X124002738Y-81880952D01*
X123812261Y-81880952D01*
X123717023Y-81928571D01*
X123669404Y-81976190D01*
X123621785Y-82071428D01*
X123621785Y-82261904D01*
X123669404Y-82357142D01*
X123717023Y-82404761D01*
X123812261Y-82452380D01*
X124002738Y-82452380D01*
X124097976Y-82404761D01*
X124145595Y-82357142D01*
X124193214Y-82261904D01*
X124193214Y-82071428D01*
X124145595Y-81976190D01*
X124097976Y-81928571D01*
X124002738Y-81880952D01*
X144512380Y-88849166D02*
X144036190Y-89182500D01*
X144512380Y-89420595D02*
X143512380Y-89420595D01*
X143512380Y-89039642D01*
X143560000Y-88944404D01*
X143607619Y-88896785D01*
X143702857Y-88849166D01*
X143845714Y-88849166D01*
X143940952Y-88896785D01*
X143988571Y-88944404D01*
X144036190Y-89039642D01*
X144036190Y-89420595D01*
X144512380Y-87896785D02*
X144512380Y-88468214D01*
X144512380Y-88182500D02*
X143512380Y-88182500D01*
X143655238Y-88277738D01*
X143750476Y-88372976D01*
X143798095Y-88468214D01*
X144512380Y-96469166D02*
X144036190Y-96802500D01*
X144512380Y-97040595D02*
X143512380Y-97040595D01*
X143512380Y-96659642D01*
X143560000Y-96564404D01*
X143607619Y-96516785D01*
X143702857Y-96469166D01*
X143845714Y-96469166D01*
X143940952Y-96516785D01*
X143988571Y-96564404D01*
X144036190Y-96659642D01*
X144036190Y-97040595D01*
X143607619Y-96088214D02*
X143560000Y-96040595D01*
X143512380Y-95945357D01*
X143512380Y-95707261D01*
X143560000Y-95612023D01*
X143607619Y-95564404D01*
X143702857Y-95516785D01*
X143798095Y-95516785D01*
X143940952Y-95564404D01*
X144512380Y-96135833D01*
X144512380Y-95516785D01*
X138045833Y-103957380D02*
X137712500Y-103481190D01*
X137474404Y-103957380D02*
X137474404Y-102957380D01*
X137855357Y-102957380D01*
X137950595Y-103005000D01*
X137998214Y-103052619D01*
X138045833Y-103147857D01*
X138045833Y-103290714D01*
X137998214Y-103385952D01*
X137950595Y-103433571D01*
X137855357Y-103481190D01*
X137474404Y-103481190D01*
X138379166Y-102957380D02*
X138998214Y-102957380D01*
X138664880Y-103338333D01*
X138807738Y-103338333D01*
X138902976Y-103385952D01*
X138950595Y-103433571D01*
X138998214Y-103528809D01*
X138998214Y-103766904D01*
X138950595Y-103862142D01*
X138902976Y-103909761D01*
X138807738Y-103957380D01*
X138522023Y-103957380D01*
X138426785Y-103909761D01*
X138379166Y-103862142D01*
X140585833Y-82452380D02*
X140252500Y-81976190D01*
X140014404Y-82452380D02*
X140014404Y-81452380D01*
X140395357Y-81452380D01*
X140490595Y-81500000D01*
X140538214Y-81547619D01*
X140585833Y-81642857D01*
X140585833Y-81785714D01*
X140538214Y-81880952D01*
X140490595Y-81928571D01*
X140395357Y-81976190D01*
X140014404Y-81976190D01*
X141442976Y-81785714D02*
X141442976Y-82452380D01*
X141204880Y-81404761D02*
X140966785Y-82119047D01*
X141585833Y-82119047D01*
X133887380Y-105994166D02*
X133411190Y-106327500D01*
X133887380Y-106565595D02*
X132887380Y-106565595D01*
X132887380Y-106184642D01*
X132935000Y-106089404D01*
X132982619Y-106041785D01*
X133077857Y-105994166D01*
X133220714Y-105994166D01*
X133315952Y-106041785D01*
X133363571Y-106089404D01*
X133411190Y-106184642D01*
X133411190Y-106565595D01*
X132887380Y-105089404D02*
X132887380Y-105565595D01*
X133363571Y-105613214D01*
X133315952Y-105565595D01*
X133268333Y-105470357D01*
X133268333Y-105232261D01*
X133315952Y-105137023D01*
X133363571Y-105089404D01*
X133458809Y-105041785D01*
X133696904Y-105041785D01*
X133792142Y-105089404D01*
X133839761Y-105137023D01*
X133887380Y-105232261D01*
X133887380Y-105470357D01*
X133839761Y-105565595D01*
X133792142Y-105613214D01*
X140585833Y-108952380D02*
X140252500Y-108476190D01*
X140014404Y-108952380D02*
X140014404Y-107952380D01*
X140395357Y-107952380D01*
X140490595Y-108000000D01*
X140538214Y-108047619D01*
X140585833Y-108142857D01*
X140585833Y-108285714D01*
X140538214Y-108380952D01*
X140490595Y-108428571D01*
X140395357Y-108476190D01*
X140014404Y-108476190D01*
X141442976Y-107952380D02*
X141252500Y-107952380D01*
X141157261Y-108000000D01*
X141109642Y-108047619D01*
X141014404Y-108190476D01*
X140966785Y-108380952D01*
X140966785Y-108761904D01*
X141014404Y-108857142D01*
X141062023Y-108904761D01*
X141157261Y-108952380D01*
X141347738Y-108952380D01*
X141442976Y-108904761D01*
X141490595Y-108857142D01*
X141538214Y-108761904D01*
X141538214Y-108523809D01*
X141490595Y-108428571D01*
X141442976Y-108380952D01*
X141347738Y-108333333D01*
X141157261Y-108333333D01*
X141062023Y-108380952D01*
X141014404Y-108428571D01*
X140966785Y-108523809D01*
X140585833Y-112762380D02*
X140252500Y-112286190D01*
X140014404Y-112762380D02*
X140014404Y-111762380D01*
X140395357Y-111762380D01*
X140490595Y-111810000D01*
X140538214Y-111857619D01*
X140585833Y-111952857D01*
X140585833Y-112095714D01*
X140538214Y-112190952D01*
X140490595Y-112238571D01*
X140395357Y-112286190D01*
X140014404Y-112286190D01*
X140919166Y-111762380D02*
X141585833Y-111762380D01*
X141157261Y-112762380D01*
X125563333Y-105227380D02*
X125230000Y-104751190D01*
X124991904Y-105227380D02*
X124991904Y-104227380D01*
X125372857Y-104227380D01*
X125468095Y-104275000D01*
X125515714Y-104322619D01*
X125563333Y-104417857D01*
X125563333Y-104560714D01*
X125515714Y-104655952D01*
X125468095Y-104703571D01*
X125372857Y-104751190D01*
X124991904Y-104751190D01*
X126039523Y-105227380D02*
X126230000Y-105227380D01*
X126325238Y-105179761D01*
X126372857Y-105132142D01*
X126468095Y-104989285D01*
X126515714Y-104798809D01*
X126515714Y-104417857D01*
X126468095Y-104322619D01*
X126420476Y-104275000D01*
X126325238Y-104227380D01*
X126134761Y-104227380D01*
X126039523Y-104275000D01*
X125991904Y-104322619D01*
X125944285Y-104417857D01*
X125944285Y-104655952D01*
X125991904Y-104751190D01*
X126039523Y-104798809D01*
X126134761Y-104846428D01*
X126325238Y-104846428D01*
X126420476Y-104798809D01*
X126468095Y-104751190D01*
X126515714Y-104655952D01*
X121118571Y-97697142D02*
X121070952Y-97744761D01*
X120928095Y-97792380D01*
X120832857Y-97792380D01*
X120690000Y-97744761D01*
X120594761Y-97649523D01*
X120547142Y-97554285D01*
X120499523Y-97363809D01*
X120499523Y-97220952D01*
X120547142Y-97030476D01*
X120594761Y-96935238D01*
X120690000Y-96840000D01*
X120832857Y-96792380D01*
X120928095Y-96792380D01*
X121070952Y-96840000D01*
X121118571Y-96887619D01*
X121499523Y-97744761D02*
X121642380Y-97792380D01*
X121880476Y-97792380D01*
X121975714Y-97744761D01*
X122023333Y-97697142D01*
X122070952Y-97601904D01*
X122070952Y-97506666D01*
X122023333Y-97411428D01*
X121975714Y-97363809D01*
X121880476Y-97316190D01*
X121690000Y-97268571D01*
X121594761Y-97220952D01*
X121547142Y-97173333D01*
X121499523Y-97078095D01*
X121499523Y-96982857D01*
X121547142Y-96887619D01*
X121594761Y-96840000D01*
X121690000Y-96792380D01*
X121928095Y-96792380D01*
X122070952Y-96840000D01*
X122975714Y-96792380D02*
X122499523Y-96792380D01*
X122451904Y-97268571D01*
X122499523Y-97220952D01*
X122594761Y-97173333D01*
X122832857Y-97173333D01*
X122928095Y-97220952D01*
X122975714Y-97268571D01*
X123023333Y-97363809D01*
X123023333Y-97601904D01*
X122975714Y-97697142D01*
X122928095Y-97744761D01*
X122832857Y-97792380D01*
X122594761Y-97792380D01*
X122499523Y-97744761D01*
X122451904Y-97697142D01*
X123880476Y-97125714D02*
X123880476Y-97792380D01*
X123642380Y-96744761D02*
X123404285Y-97459047D01*
X124023333Y-97459047D01*
X124451904Y-97792380D02*
X124642380Y-97792380D01*
X124737619Y-97744761D01*
X124785238Y-97697142D01*
X124880476Y-97554285D01*
X124928095Y-97363809D01*
X124928095Y-96982857D01*
X124880476Y-96887619D01*
X124832857Y-96840000D01*
X124737619Y-96792380D01*
X124547142Y-96792380D01*
X124451904Y-96840000D01*
X124404285Y-96887619D01*
X124356666Y-96982857D01*
X124356666Y-97220952D01*
X124404285Y-97316190D01*
X124451904Y-97363809D01*
X124547142Y-97411428D01*
X124737619Y-97411428D01*
X124832857Y-97363809D01*
X124880476Y-97316190D01*
X124928095Y-97220952D01*
X125547142Y-96792380D02*
X125642380Y-96792380D01*
X125737619Y-96840000D01*
X125785238Y-96887619D01*
X125832857Y-96982857D01*
X125880476Y-97173333D01*
X125880476Y-97411428D01*
X125832857Y-97601904D01*
X125785238Y-97697142D01*
X125737619Y-97744761D01*
X125642380Y-97792380D01*
X125547142Y-97792380D01*
X125451904Y-97744761D01*
X125404285Y-97697142D01*
X125356666Y-97601904D01*
X125309047Y-97411428D01*
X125309047Y-97173333D01*
X125356666Y-96982857D01*
X125404285Y-96887619D01*
X125451904Y-96840000D01*
X125547142Y-96792380D01*
M02*
