M48
; DRILL file {KiCad 5.1.4} date Mon 26 Aug 2019 12:11:46 AM CEST
; FORMAT={-:-/ absolute / metric / decimal}
; #@! TF.CreationDate,2019-08-26T00:11:46+02:00
; #@! TF.GenerationSoftware,Kicad,Pcbnew,5.1.4
; #@! TF.FileFunction,Plated,1,2,PTH
FMAT,2
METRIC
T1C1.000
T2C1.200
%
G90
G05
T1
X149.86Y-85.09
X149.86Y-96.52
X109.22Y-101.6
X125.73Y-106.68
X105.41Y-107.95
X96.52Y-86.36
X96.52Y-88.9
X96.52Y-91.44
X96.52Y-93.98
X96.52Y-96.52
X99.06Y-86.36
X99.06Y-88.9
X99.06Y-91.44
X99.06Y-93.98
X99.06Y-96.52
X105.41Y-85.09
X107.95Y-85.09
X109.22Y-95.25
X116.84Y-90.17
X105.41Y-87.63
X105.41Y-90.17
X107.95Y-87.63
X107.95Y-90.17
X105.41Y-95.25
X109.22Y-107.95
X105.41Y-101.6
T2
X149.86Y-104.22
X149.86Y-109.22
T0
M30
