G04 #@! TF.GenerationSoftware,KiCad,Pcbnew,5.1.4*
G04 #@! TF.CreationDate,2019-08-27T08:05:14+02:00*
G04 #@! TF.ProjectId,CS5490_UEXT,43533534-3930-45f5-9545-58542e6b6963,rev?*
G04 #@! TF.SameCoordinates,Original*
G04 #@! TF.FileFunction,Soldermask,Bot*
G04 #@! TF.FilePolarity,Negative*
%FSLAX46Y46*%
G04 Gerber Fmt 4.6, Leading zero omitted, Abs format (unit mm)*
G04 Created by KiCad (PCBNEW 5.1.4) date 2019-08-27 08:05:14*
%MOMM*%
%LPD*%
G04 APERTURE LIST*
%ADD10C,0.100000*%
G04 APERTURE END LIST*
D10*
G36*
X151111000Y-110471000D02*
G01*
X148609000Y-110471000D01*
X148609000Y-107969000D01*
X151111000Y-107969000D01*
X151111000Y-110471000D01*
X151111000Y-110471000D01*
G37*
G36*
X110121000Y-108851000D02*
G01*
X108319000Y-108851000D01*
X108319000Y-107049000D01*
X110121000Y-107049000D01*
X110121000Y-108851000D01*
X110121000Y-108851000D01*
G37*
G36*
X106311000Y-108851000D02*
G01*
X104509000Y-108851000D01*
X104509000Y-107049000D01*
X106311000Y-107049000D01*
X106311000Y-108851000D01*
X106311000Y-108851000D01*
G37*
G36*
X126631000Y-107581000D02*
G01*
X124829000Y-107581000D01*
X124829000Y-105779000D01*
X126631000Y-105779000D01*
X126631000Y-107581000D01*
X126631000Y-107581000D01*
G37*
G36*
X150224903Y-103017075D02*
G01*
X150452571Y-103111378D01*
X150657466Y-103248285D01*
X150831715Y-103422534D01*
X150968622Y-103627429D01*
X151062925Y-103855097D01*
X151111000Y-104096787D01*
X151111000Y-104343213D01*
X151062925Y-104584903D01*
X150968622Y-104812571D01*
X150831715Y-105017466D01*
X150657466Y-105191715D01*
X150452571Y-105328622D01*
X150452570Y-105328623D01*
X150452569Y-105328623D01*
X150224903Y-105422925D01*
X149983214Y-105471000D01*
X149736786Y-105471000D01*
X149495097Y-105422925D01*
X149267431Y-105328623D01*
X149267430Y-105328623D01*
X149267429Y-105328622D01*
X149062534Y-105191715D01*
X148888285Y-105017466D01*
X148751378Y-104812571D01*
X148657075Y-104584903D01*
X148609000Y-104343213D01*
X148609000Y-104096787D01*
X148657075Y-103855097D01*
X148751378Y-103627429D01*
X148888285Y-103422534D01*
X149062534Y-103248285D01*
X149267429Y-103111378D01*
X149495097Y-103017075D01*
X149736786Y-102969000D01*
X149983214Y-102969000D01*
X150224903Y-103017075D01*
X150224903Y-103017075D01*
G37*
G36*
X106311000Y-102501000D02*
G01*
X104509000Y-102501000D01*
X104509000Y-100699000D01*
X106311000Y-100699000D01*
X106311000Y-102501000D01*
X106311000Y-102501000D01*
G37*
G36*
X110121000Y-102501000D02*
G01*
X108319000Y-102501000D01*
X108319000Y-100699000D01*
X110121000Y-100699000D01*
X110121000Y-102501000D01*
X110121000Y-102501000D01*
G37*
G36*
X150239487Y-95268996D02*
G01*
X150476253Y-95367068D01*
X150476255Y-95367069D01*
X150689339Y-95509447D01*
X150870553Y-95690661D01*
X150996942Y-95879815D01*
X151012932Y-95903747D01*
X151111004Y-96140513D01*
X151161000Y-96391861D01*
X151161000Y-96648139D01*
X151111004Y-96899487D01*
X151012932Y-97136253D01*
X151012931Y-97136255D01*
X150870553Y-97349339D01*
X150689339Y-97530553D01*
X150476255Y-97672931D01*
X150476254Y-97672932D01*
X150476253Y-97672932D01*
X150239487Y-97771004D01*
X149988139Y-97821000D01*
X149731861Y-97821000D01*
X149480513Y-97771004D01*
X149243747Y-97672932D01*
X149243746Y-97672932D01*
X149243745Y-97672931D01*
X149030661Y-97530553D01*
X148849447Y-97349339D01*
X148707069Y-97136255D01*
X148707068Y-97136253D01*
X148608996Y-96899487D01*
X148559000Y-96648139D01*
X148559000Y-96391861D01*
X148608996Y-96140513D01*
X148707068Y-95903747D01*
X148723059Y-95879815D01*
X148849447Y-95690661D01*
X149030661Y-95509447D01*
X149243745Y-95367069D01*
X149243747Y-95367068D01*
X149480513Y-95268996D01*
X149731861Y-95219000D01*
X149988139Y-95219000D01*
X150239487Y-95268996D01*
X150239487Y-95268996D01*
G37*
G36*
X99170442Y-95625518D02*
G01*
X99236627Y-95632037D01*
X99406466Y-95683557D01*
X99562991Y-95767222D01*
X99598729Y-95796552D01*
X99700186Y-95879814D01*
X99783448Y-95981271D01*
X99812778Y-96017009D01*
X99896443Y-96173534D01*
X99947963Y-96343373D01*
X99965359Y-96520000D01*
X99947963Y-96696627D01*
X99896443Y-96866466D01*
X99812778Y-97022991D01*
X99783448Y-97058729D01*
X99700186Y-97160186D01*
X99598729Y-97243448D01*
X99562991Y-97272778D01*
X99406466Y-97356443D01*
X99236627Y-97407963D01*
X99170442Y-97414482D01*
X99104260Y-97421000D01*
X99015740Y-97421000D01*
X98949558Y-97414482D01*
X98883373Y-97407963D01*
X98713534Y-97356443D01*
X98557009Y-97272778D01*
X98521271Y-97243448D01*
X98419814Y-97160186D01*
X98336552Y-97058729D01*
X98307222Y-97022991D01*
X98223557Y-96866466D01*
X98172037Y-96696627D01*
X98154641Y-96520000D01*
X98172037Y-96343373D01*
X98223557Y-96173534D01*
X98307222Y-96017009D01*
X98336552Y-95981271D01*
X98419814Y-95879814D01*
X98521271Y-95796552D01*
X98557009Y-95767222D01*
X98713534Y-95683557D01*
X98883373Y-95632037D01*
X98949558Y-95625518D01*
X99015740Y-95619000D01*
X99104260Y-95619000D01*
X99170442Y-95625518D01*
X99170442Y-95625518D01*
G37*
G36*
X96630442Y-95625518D02*
G01*
X96696627Y-95632037D01*
X96866466Y-95683557D01*
X97022991Y-95767222D01*
X97058729Y-95796552D01*
X97160186Y-95879814D01*
X97243448Y-95981271D01*
X97272778Y-96017009D01*
X97356443Y-96173534D01*
X97407963Y-96343373D01*
X97425359Y-96520000D01*
X97407963Y-96696627D01*
X97356443Y-96866466D01*
X97272778Y-97022991D01*
X97243448Y-97058729D01*
X97160186Y-97160186D01*
X97058729Y-97243448D01*
X97022991Y-97272778D01*
X96866466Y-97356443D01*
X96696627Y-97407963D01*
X96630442Y-97414482D01*
X96564260Y-97421000D01*
X96475740Y-97421000D01*
X96409558Y-97414482D01*
X96343373Y-97407963D01*
X96173534Y-97356443D01*
X96017009Y-97272778D01*
X95981271Y-97243448D01*
X95879814Y-97160186D01*
X95796552Y-97058729D01*
X95767222Y-97022991D01*
X95683557Y-96866466D01*
X95632037Y-96696627D01*
X95614641Y-96520000D01*
X95632037Y-96343373D01*
X95683557Y-96173534D01*
X95767222Y-96017009D01*
X95796552Y-95981271D01*
X95879814Y-95879814D01*
X95981271Y-95796552D01*
X96017009Y-95767222D01*
X96173534Y-95683557D01*
X96343373Y-95632037D01*
X96409558Y-95625518D01*
X96475740Y-95619000D01*
X96564260Y-95619000D01*
X96630442Y-95625518D01*
X96630442Y-95625518D01*
G37*
G36*
X110121000Y-96151000D02*
G01*
X108319000Y-96151000D01*
X108319000Y-94349000D01*
X110121000Y-94349000D01*
X110121000Y-96151000D01*
X110121000Y-96151000D01*
G37*
G36*
X106311000Y-96151000D02*
G01*
X104509000Y-96151000D01*
X104509000Y-94349000D01*
X106311000Y-94349000D01*
X106311000Y-96151000D01*
X106311000Y-96151000D01*
G37*
G36*
X99170443Y-93085519D02*
G01*
X99236627Y-93092037D01*
X99406466Y-93143557D01*
X99562991Y-93227222D01*
X99598729Y-93256552D01*
X99700186Y-93339814D01*
X99783448Y-93441271D01*
X99812778Y-93477009D01*
X99896443Y-93633534D01*
X99947963Y-93803373D01*
X99965359Y-93980000D01*
X99947963Y-94156627D01*
X99896443Y-94326466D01*
X99812778Y-94482991D01*
X99783448Y-94518729D01*
X99700186Y-94620186D01*
X99598729Y-94703448D01*
X99562991Y-94732778D01*
X99406466Y-94816443D01*
X99236627Y-94867963D01*
X99170443Y-94874481D01*
X99104260Y-94881000D01*
X99015740Y-94881000D01*
X98949557Y-94874481D01*
X98883373Y-94867963D01*
X98713534Y-94816443D01*
X98557009Y-94732778D01*
X98521271Y-94703448D01*
X98419814Y-94620186D01*
X98336552Y-94518729D01*
X98307222Y-94482991D01*
X98223557Y-94326466D01*
X98172037Y-94156627D01*
X98154641Y-93980000D01*
X98172037Y-93803373D01*
X98223557Y-93633534D01*
X98307222Y-93477009D01*
X98336552Y-93441271D01*
X98419814Y-93339814D01*
X98521271Y-93256552D01*
X98557009Y-93227222D01*
X98713534Y-93143557D01*
X98883373Y-93092037D01*
X98949557Y-93085519D01*
X99015740Y-93079000D01*
X99104260Y-93079000D01*
X99170443Y-93085519D01*
X99170443Y-93085519D01*
G37*
G36*
X96630443Y-93085519D02*
G01*
X96696627Y-93092037D01*
X96866466Y-93143557D01*
X97022991Y-93227222D01*
X97058729Y-93256552D01*
X97160186Y-93339814D01*
X97243448Y-93441271D01*
X97272778Y-93477009D01*
X97356443Y-93633534D01*
X97407963Y-93803373D01*
X97425359Y-93980000D01*
X97407963Y-94156627D01*
X97356443Y-94326466D01*
X97272778Y-94482991D01*
X97243448Y-94518729D01*
X97160186Y-94620186D01*
X97058729Y-94703448D01*
X97022991Y-94732778D01*
X96866466Y-94816443D01*
X96696627Y-94867963D01*
X96630443Y-94874481D01*
X96564260Y-94881000D01*
X96475740Y-94881000D01*
X96409557Y-94874481D01*
X96343373Y-94867963D01*
X96173534Y-94816443D01*
X96017009Y-94732778D01*
X95981271Y-94703448D01*
X95879814Y-94620186D01*
X95796552Y-94518729D01*
X95767222Y-94482991D01*
X95683557Y-94326466D01*
X95632037Y-94156627D01*
X95614641Y-93980000D01*
X95632037Y-93803373D01*
X95683557Y-93633534D01*
X95767222Y-93477009D01*
X95796552Y-93441271D01*
X95879814Y-93339814D01*
X95981271Y-93256552D01*
X96017009Y-93227222D01*
X96173534Y-93143557D01*
X96343373Y-93092037D01*
X96409557Y-93085519D01*
X96475740Y-93079000D01*
X96564260Y-93079000D01*
X96630443Y-93085519D01*
X96630443Y-93085519D01*
G37*
G36*
X96630443Y-90545519D02*
G01*
X96696627Y-90552037D01*
X96866466Y-90603557D01*
X97022991Y-90687222D01*
X97058729Y-90716552D01*
X97160186Y-90799814D01*
X97243448Y-90901271D01*
X97272778Y-90937009D01*
X97356443Y-91093534D01*
X97407963Y-91263373D01*
X97425359Y-91440000D01*
X97407963Y-91616627D01*
X97356443Y-91786466D01*
X97272778Y-91942991D01*
X97243448Y-91978729D01*
X97160186Y-92080186D01*
X97058729Y-92163448D01*
X97022991Y-92192778D01*
X96866466Y-92276443D01*
X96696627Y-92327963D01*
X96630443Y-92334481D01*
X96564260Y-92341000D01*
X96475740Y-92341000D01*
X96409557Y-92334481D01*
X96343373Y-92327963D01*
X96173534Y-92276443D01*
X96017009Y-92192778D01*
X95981271Y-92163448D01*
X95879814Y-92080186D01*
X95796552Y-91978729D01*
X95767222Y-91942991D01*
X95683557Y-91786466D01*
X95632037Y-91616627D01*
X95614641Y-91440000D01*
X95632037Y-91263373D01*
X95683557Y-91093534D01*
X95767222Y-90937009D01*
X95796552Y-90901271D01*
X95879814Y-90799814D01*
X95981271Y-90716552D01*
X96017009Y-90687222D01*
X96173534Y-90603557D01*
X96343373Y-90552037D01*
X96409557Y-90545519D01*
X96475740Y-90539000D01*
X96564260Y-90539000D01*
X96630443Y-90545519D01*
X96630443Y-90545519D01*
G37*
G36*
X99170443Y-90545519D02*
G01*
X99236627Y-90552037D01*
X99406466Y-90603557D01*
X99562991Y-90687222D01*
X99598729Y-90716552D01*
X99700186Y-90799814D01*
X99783448Y-90901271D01*
X99812778Y-90937009D01*
X99896443Y-91093534D01*
X99947963Y-91263373D01*
X99965359Y-91440000D01*
X99947963Y-91616627D01*
X99896443Y-91786466D01*
X99812778Y-91942991D01*
X99783448Y-91978729D01*
X99700186Y-92080186D01*
X99598729Y-92163448D01*
X99562991Y-92192778D01*
X99406466Y-92276443D01*
X99236627Y-92327963D01*
X99170443Y-92334481D01*
X99104260Y-92341000D01*
X99015740Y-92341000D01*
X98949557Y-92334481D01*
X98883373Y-92327963D01*
X98713534Y-92276443D01*
X98557009Y-92192778D01*
X98521271Y-92163448D01*
X98419814Y-92080186D01*
X98336552Y-91978729D01*
X98307222Y-91942991D01*
X98223557Y-91786466D01*
X98172037Y-91616627D01*
X98154641Y-91440000D01*
X98172037Y-91263373D01*
X98223557Y-91093534D01*
X98307222Y-90937009D01*
X98336552Y-90901271D01*
X98419814Y-90799814D01*
X98521271Y-90716552D01*
X98557009Y-90687222D01*
X98713534Y-90603557D01*
X98883373Y-90552037D01*
X98949557Y-90545519D01*
X99015740Y-90539000D01*
X99104260Y-90539000D01*
X99170443Y-90545519D01*
X99170443Y-90545519D01*
G37*
G36*
X117741000Y-91071000D02*
G01*
X115939000Y-91071000D01*
X115939000Y-89269000D01*
X117741000Y-89269000D01*
X117741000Y-91071000D01*
X117741000Y-91071000D01*
G37*
G36*
X105520443Y-89275519D02*
G01*
X105586627Y-89282037D01*
X105756466Y-89333557D01*
X105912991Y-89417222D01*
X105948729Y-89446552D01*
X106050186Y-89529814D01*
X106133448Y-89631271D01*
X106162778Y-89667009D01*
X106246443Y-89823534D01*
X106297963Y-89993373D01*
X106315359Y-90170000D01*
X106297963Y-90346627D01*
X106246443Y-90516466D01*
X106162778Y-90672991D01*
X106133448Y-90708729D01*
X106050186Y-90810186D01*
X105948729Y-90893448D01*
X105912991Y-90922778D01*
X105756466Y-91006443D01*
X105586627Y-91057963D01*
X105520442Y-91064482D01*
X105454260Y-91071000D01*
X105365740Y-91071000D01*
X105299558Y-91064482D01*
X105233373Y-91057963D01*
X105063534Y-91006443D01*
X104907009Y-90922778D01*
X104871271Y-90893448D01*
X104769814Y-90810186D01*
X104686552Y-90708729D01*
X104657222Y-90672991D01*
X104573557Y-90516466D01*
X104522037Y-90346627D01*
X104504641Y-90170000D01*
X104522037Y-89993373D01*
X104573557Y-89823534D01*
X104657222Y-89667009D01*
X104686552Y-89631271D01*
X104769814Y-89529814D01*
X104871271Y-89446552D01*
X104907009Y-89417222D01*
X105063534Y-89333557D01*
X105233373Y-89282037D01*
X105299557Y-89275519D01*
X105365740Y-89269000D01*
X105454260Y-89269000D01*
X105520443Y-89275519D01*
X105520443Y-89275519D01*
G37*
G36*
X108060443Y-89275519D02*
G01*
X108126627Y-89282037D01*
X108296466Y-89333557D01*
X108452991Y-89417222D01*
X108488729Y-89446552D01*
X108590186Y-89529814D01*
X108673448Y-89631271D01*
X108702778Y-89667009D01*
X108786443Y-89823534D01*
X108837963Y-89993373D01*
X108855359Y-90170000D01*
X108837963Y-90346627D01*
X108786443Y-90516466D01*
X108702778Y-90672991D01*
X108673448Y-90708729D01*
X108590186Y-90810186D01*
X108488729Y-90893448D01*
X108452991Y-90922778D01*
X108296466Y-91006443D01*
X108126627Y-91057963D01*
X108060442Y-91064482D01*
X107994260Y-91071000D01*
X107905740Y-91071000D01*
X107839558Y-91064482D01*
X107773373Y-91057963D01*
X107603534Y-91006443D01*
X107447009Y-90922778D01*
X107411271Y-90893448D01*
X107309814Y-90810186D01*
X107226552Y-90708729D01*
X107197222Y-90672991D01*
X107113557Y-90516466D01*
X107062037Y-90346627D01*
X107044641Y-90170000D01*
X107062037Y-89993373D01*
X107113557Y-89823534D01*
X107197222Y-89667009D01*
X107226552Y-89631271D01*
X107309814Y-89529814D01*
X107411271Y-89446552D01*
X107447009Y-89417222D01*
X107603534Y-89333557D01*
X107773373Y-89282037D01*
X107839557Y-89275519D01*
X107905740Y-89269000D01*
X107994260Y-89269000D01*
X108060443Y-89275519D01*
X108060443Y-89275519D01*
G37*
G36*
X96630443Y-88005519D02*
G01*
X96696627Y-88012037D01*
X96866466Y-88063557D01*
X97022991Y-88147222D01*
X97058729Y-88176552D01*
X97160186Y-88259814D01*
X97243448Y-88361271D01*
X97272778Y-88397009D01*
X97356443Y-88553534D01*
X97407963Y-88723373D01*
X97425359Y-88900000D01*
X97407963Y-89076627D01*
X97356443Y-89246466D01*
X97272778Y-89402991D01*
X97243448Y-89438729D01*
X97160186Y-89540186D01*
X97058729Y-89623448D01*
X97022991Y-89652778D01*
X96866466Y-89736443D01*
X96696627Y-89787963D01*
X96630443Y-89794481D01*
X96564260Y-89801000D01*
X96475740Y-89801000D01*
X96409557Y-89794481D01*
X96343373Y-89787963D01*
X96173534Y-89736443D01*
X96017009Y-89652778D01*
X95981271Y-89623448D01*
X95879814Y-89540186D01*
X95796552Y-89438729D01*
X95767222Y-89402991D01*
X95683557Y-89246466D01*
X95632037Y-89076627D01*
X95614641Y-88900000D01*
X95632037Y-88723373D01*
X95683557Y-88553534D01*
X95767222Y-88397009D01*
X95796552Y-88361271D01*
X95879814Y-88259814D01*
X95981271Y-88176552D01*
X96017009Y-88147222D01*
X96173534Y-88063557D01*
X96343373Y-88012037D01*
X96409557Y-88005519D01*
X96475740Y-87999000D01*
X96564260Y-87999000D01*
X96630443Y-88005519D01*
X96630443Y-88005519D01*
G37*
G36*
X99170443Y-88005519D02*
G01*
X99236627Y-88012037D01*
X99406466Y-88063557D01*
X99562991Y-88147222D01*
X99598729Y-88176552D01*
X99700186Y-88259814D01*
X99783448Y-88361271D01*
X99812778Y-88397009D01*
X99896443Y-88553534D01*
X99947963Y-88723373D01*
X99965359Y-88900000D01*
X99947963Y-89076627D01*
X99896443Y-89246466D01*
X99812778Y-89402991D01*
X99783448Y-89438729D01*
X99700186Y-89540186D01*
X99598729Y-89623448D01*
X99562991Y-89652778D01*
X99406466Y-89736443D01*
X99236627Y-89787963D01*
X99170443Y-89794481D01*
X99104260Y-89801000D01*
X99015740Y-89801000D01*
X98949557Y-89794481D01*
X98883373Y-89787963D01*
X98713534Y-89736443D01*
X98557009Y-89652778D01*
X98521271Y-89623448D01*
X98419814Y-89540186D01*
X98336552Y-89438729D01*
X98307222Y-89402991D01*
X98223557Y-89246466D01*
X98172037Y-89076627D01*
X98154641Y-88900000D01*
X98172037Y-88723373D01*
X98223557Y-88553534D01*
X98307222Y-88397009D01*
X98336552Y-88361271D01*
X98419814Y-88259814D01*
X98521271Y-88176552D01*
X98557009Y-88147222D01*
X98713534Y-88063557D01*
X98883373Y-88012037D01*
X98949557Y-88005519D01*
X99015740Y-87999000D01*
X99104260Y-87999000D01*
X99170443Y-88005519D01*
X99170443Y-88005519D01*
G37*
G36*
X108060442Y-86735518D02*
G01*
X108126627Y-86742037D01*
X108296466Y-86793557D01*
X108452991Y-86877222D01*
X108488729Y-86906552D01*
X108590186Y-86989814D01*
X108673448Y-87091271D01*
X108702778Y-87127009D01*
X108786443Y-87283534D01*
X108837963Y-87453373D01*
X108855359Y-87630000D01*
X108837963Y-87806627D01*
X108786443Y-87976466D01*
X108702778Y-88132991D01*
X108673448Y-88168729D01*
X108590186Y-88270186D01*
X108488729Y-88353448D01*
X108452991Y-88382778D01*
X108296466Y-88466443D01*
X108126627Y-88517963D01*
X108060442Y-88524482D01*
X107994260Y-88531000D01*
X107905740Y-88531000D01*
X107839558Y-88524482D01*
X107773373Y-88517963D01*
X107603534Y-88466443D01*
X107447009Y-88382778D01*
X107411271Y-88353448D01*
X107309814Y-88270186D01*
X107226552Y-88168729D01*
X107197222Y-88132991D01*
X107113557Y-87976466D01*
X107062037Y-87806627D01*
X107044641Y-87630000D01*
X107062037Y-87453373D01*
X107113557Y-87283534D01*
X107197222Y-87127009D01*
X107226552Y-87091271D01*
X107309814Y-86989814D01*
X107411271Y-86906552D01*
X107447009Y-86877222D01*
X107603534Y-86793557D01*
X107773373Y-86742037D01*
X107839558Y-86735518D01*
X107905740Y-86729000D01*
X107994260Y-86729000D01*
X108060442Y-86735518D01*
X108060442Y-86735518D01*
G37*
G36*
X106311000Y-88531000D02*
G01*
X104509000Y-88531000D01*
X104509000Y-86729000D01*
X106311000Y-86729000D01*
X106311000Y-88531000D01*
X106311000Y-88531000D01*
G37*
G36*
X97421000Y-87261000D02*
G01*
X95619000Y-87261000D01*
X95619000Y-85459000D01*
X97421000Y-85459000D01*
X97421000Y-87261000D01*
X97421000Y-87261000D01*
G37*
G36*
X99170442Y-85465518D02*
G01*
X99236627Y-85472037D01*
X99406466Y-85523557D01*
X99562991Y-85607222D01*
X99598729Y-85636552D01*
X99700186Y-85719814D01*
X99783448Y-85821271D01*
X99812778Y-85857009D01*
X99896443Y-86013534D01*
X99947963Y-86183373D01*
X99965359Y-86360000D01*
X99947963Y-86536627D01*
X99896443Y-86706466D01*
X99812778Y-86862991D01*
X99783448Y-86898729D01*
X99700186Y-87000186D01*
X99598729Y-87083448D01*
X99562991Y-87112778D01*
X99406466Y-87196443D01*
X99236627Y-87247963D01*
X99170442Y-87254482D01*
X99104260Y-87261000D01*
X99015740Y-87261000D01*
X98949558Y-87254482D01*
X98883373Y-87247963D01*
X98713534Y-87196443D01*
X98557009Y-87112778D01*
X98521271Y-87083448D01*
X98419814Y-87000186D01*
X98336552Y-86898729D01*
X98307222Y-86862991D01*
X98223557Y-86706466D01*
X98172037Y-86536627D01*
X98154641Y-86360000D01*
X98172037Y-86183373D01*
X98223557Y-86013534D01*
X98307222Y-85857009D01*
X98336552Y-85821271D01*
X98419814Y-85719814D01*
X98521271Y-85636552D01*
X98557009Y-85607222D01*
X98713534Y-85523557D01*
X98883373Y-85472037D01*
X98949558Y-85465518D01*
X99015740Y-85459000D01*
X99104260Y-85459000D01*
X99170442Y-85465518D01*
X99170442Y-85465518D01*
G37*
G36*
X150239487Y-83838996D02*
G01*
X150476253Y-83937068D01*
X150476255Y-83937069D01*
X150689339Y-84079447D01*
X150870553Y-84260661D01*
X150996942Y-84449815D01*
X151012932Y-84473747D01*
X151111004Y-84710513D01*
X151161000Y-84961861D01*
X151161000Y-85218139D01*
X151111004Y-85469487D01*
X151053952Y-85607222D01*
X151012931Y-85706255D01*
X150870553Y-85919339D01*
X150689339Y-86100553D01*
X150476255Y-86242931D01*
X150476254Y-86242932D01*
X150476253Y-86242932D01*
X150239487Y-86341004D01*
X149988139Y-86391000D01*
X149731861Y-86391000D01*
X149480513Y-86341004D01*
X149243747Y-86242932D01*
X149243746Y-86242932D01*
X149243745Y-86242931D01*
X149030661Y-86100553D01*
X148849447Y-85919339D01*
X148707069Y-85706255D01*
X148666048Y-85607222D01*
X148608996Y-85469487D01*
X148559000Y-85218139D01*
X148559000Y-84961861D01*
X148608996Y-84710513D01*
X148707068Y-84473747D01*
X148723059Y-84449815D01*
X148849447Y-84260661D01*
X149030661Y-84079447D01*
X149243745Y-83937069D01*
X149243747Y-83937068D01*
X149480513Y-83838996D01*
X149731861Y-83789000D01*
X149988139Y-83789000D01*
X150239487Y-83838996D01*
X150239487Y-83838996D01*
G37*
G36*
X108851000Y-85991000D02*
G01*
X107049000Y-85991000D01*
X107049000Y-84189000D01*
X108851000Y-84189000D01*
X108851000Y-85991000D01*
X108851000Y-85991000D01*
G37*
G36*
X105520442Y-84195518D02*
G01*
X105586627Y-84202037D01*
X105756466Y-84253557D01*
X105912991Y-84337222D01*
X105948729Y-84366552D01*
X106050186Y-84449814D01*
X106133448Y-84551271D01*
X106162778Y-84587009D01*
X106246443Y-84743534D01*
X106297963Y-84913373D01*
X106315359Y-85090000D01*
X106297963Y-85266627D01*
X106246443Y-85436466D01*
X106162778Y-85592991D01*
X106133448Y-85628729D01*
X106050186Y-85730186D01*
X105948729Y-85813448D01*
X105912991Y-85842778D01*
X105756466Y-85926443D01*
X105586627Y-85977963D01*
X105520442Y-85984482D01*
X105454260Y-85991000D01*
X105365740Y-85991000D01*
X105299558Y-85984482D01*
X105233373Y-85977963D01*
X105063534Y-85926443D01*
X104907009Y-85842778D01*
X104871271Y-85813448D01*
X104769814Y-85730186D01*
X104686552Y-85628729D01*
X104657222Y-85592991D01*
X104573557Y-85436466D01*
X104522037Y-85266627D01*
X104504641Y-85090000D01*
X104522037Y-84913373D01*
X104573557Y-84743534D01*
X104657222Y-84587009D01*
X104686552Y-84551271D01*
X104769814Y-84449814D01*
X104871271Y-84366552D01*
X104907009Y-84337222D01*
X105063534Y-84253557D01*
X105233373Y-84202037D01*
X105299558Y-84195518D01*
X105365740Y-84189000D01*
X105454260Y-84189000D01*
X105520442Y-84195518D01*
X105520442Y-84195518D01*
G37*
M02*
