G04 #@! TF.GenerationSoftware,KiCad,Pcbnew,5.1.4*
G04 #@! TF.CreationDate,2019-08-27T08:05:14+02:00*
G04 #@! TF.ProjectId,CS5490_UEXT,43533534-3930-45f5-9545-58542e6b6963,rev?*
G04 #@! TF.SameCoordinates,Original*
G04 #@! TF.FileFunction,Soldermask,Top*
G04 #@! TF.FilePolarity,Negative*
%FSLAX46Y46*%
G04 Gerber Fmt 4.6, Leading zero omitted, Abs format (unit mm)*
G04 Created by KiCad (PCBNEW 5.1.4) date 2019-08-27 08:05:14*
%MOMM*%
%LPD*%
G04 APERTURE LIST*
%ADD10C,0.100000*%
G04 APERTURE END LIST*
D10*
G36*
X142853062Y-109568181D02*
G01*
X142887981Y-109578774D01*
X142920163Y-109595976D01*
X142948373Y-109619127D01*
X142971524Y-109647337D01*
X142988726Y-109679519D01*
X142999319Y-109714438D01*
X143003500Y-109756895D01*
X143003500Y-111223105D01*
X142999319Y-111265562D01*
X142988726Y-111300481D01*
X142971524Y-111332663D01*
X142948373Y-111360873D01*
X142920163Y-111384024D01*
X142887981Y-111401226D01*
X142853062Y-111411819D01*
X142810605Y-111416000D01*
X141669395Y-111416000D01*
X141626938Y-111411819D01*
X141592019Y-111401226D01*
X141559837Y-111384024D01*
X141531627Y-111360873D01*
X141508476Y-111332663D01*
X141491274Y-111300481D01*
X141480681Y-111265562D01*
X141476500Y-111223105D01*
X141476500Y-109756895D01*
X141480681Y-109714438D01*
X141491274Y-109679519D01*
X141508476Y-109647337D01*
X141531627Y-109619127D01*
X141559837Y-109595976D01*
X141592019Y-109578774D01*
X141626938Y-109568181D01*
X141669395Y-109564000D01*
X142810605Y-109564000D01*
X142853062Y-109568181D01*
X142853062Y-109568181D01*
G37*
G36*
X139878062Y-109568181D02*
G01*
X139912981Y-109578774D01*
X139945163Y-109595976D01*
X139973373Y-109619127D01*
X139996524Y-109647337D01*
X140013726Y-109679519D01*
X140024319Y-109714438D01*
X140028500Y-109756895D01*
X140028500Y-111223105D01*
X140024319Y-111265562D01*
X140013726Y-111300481D01*
X139996524Y-111332663D01*
X139973373Y-111360873D01*
X139945163Y-111384024D01*
X139912981Y-111401226D01*
X139878062Y-111411819D01*
X139835605Y-111416000D01*
X138694395Y-111416000D01*
X138651938Y-111411819D01*
X138617019Y-111401226D01*
X138584837Y-111384024D01*
X138556627Y-111360873D01*
X138533476Y-111332663D01*
X138516274Y-111300481D01*
X138505681Y-111265562D01*
X138501500Y-111223105D01*
X138501500Y-109756895D01*
X138505681Y-109714438D01*
X138516274Y-109679519D01*
X138533476Y-109647337D01*
X138556627Y-109619127D01*
X138584837Y-109595976D01*
X138617019Y-109578774D01*
X138651938Y-109568181D01*
X138694395Y-109564000D01*
X139835605Y-109564000D01*
X139878062Y-109568181D01*
X139878062Y-109568181D01*
G37*
G36*
X136503062Y-109568181D02*
G01*
X136537981Y-109578774D01*
X136570163Y-109595976D01*
X136598373Y-109619127D01*
X136621524Y-109647337D01*
X136638726Y-109679519D01*
X136649319Y-109714438D01*
X136653500Y-109756895D01*
X136653500Y-111223105D01*
X136649319Y-111265562D01*
X136638726Y-111300481D01*
X136621524Y-111332663D01*
X136598373Y-111360873D01*
X136570163Y-111384024D01*
X136537981Y-111401226D01*
X136503062Y-111411819D01*
X136460605Y-111416000D01*
X135319395Y-111416000D01*
X135276938Y-111411819D01*
X135242019Y-111401226D01*
X135209837Y-111384024D01*
X135181627Y-111360873D01*
X135158476Y-111332663D01*
X135141274Y-111300481D01*
X135130681Y-111265562D01*
X135126500Y-111223105D01*
X135126500Y-109756895D01*
X135130681Y-109714438D01*
X135141274Y-109679519D01*
X135158476Y-109647337D01*
X135181627Y-109619127D01*
X135209837Y-109595976D01*
X135242019Y-109578774D01*
X135276938Y-109568181D01*
X135319395Y-109564000D01*
X136460605Y-109564000D01*
X136503062Y-109568181D01*
X136503062Y-109568181D01*
G37*
G36*
X133528062Y-109568181D02*
G01*
X133562981Y-109578774D01*
X133595163Y-109595976D01*
X133623373Y-109619127D01*
X133646524Y-109647337D01*
X133663726Y-109679519D01*
X133674319Y-109714438D01*
X133678500Y-109756895D01*
X133678500Y-111223105D01*
X133674319Y-111265562D01*
X133663726Y-111300481D01*
X133646524Y-111332663D01*
X133623373Y-111360873D01*
X133595163Y-111384024D01*
X133562981Y-111401226D01*
X133528062Y-111411819D01*
X133485605Y-111416000D01*
X132344395Y-111416000D01*
X132301938Y-111411819D01*
X132267019Y-111401226D01*
X132234837Y-111384024D01*
X132206627Y-111360873D01*
X132183476Y-111332663D01*
X132166274Y-111300481D01*
X132155681Y-111265562D01*
X132151500Y-111223105D01*
X132151500Y-109756895D01*
X132155681Y-109714438D01*
X132166274Y-109679519D01*
X132183476Y-109647337D01*
X132206627Y-109619127D01*
X132234837Y-109595976D01*
X132267019Y-109578774D01*
X132301938Y-109568181D01*
X132344395Y-109564000D01*
X133485605Y-109564000D01*
X133528062Y-109568181D01*
X133528062Y-109568181D01*
G37*
G36*
X151111000Y-110471000D02*
G01*
X148609000Y-110471000D01*
X148609000Y-107969000D01*
X151111000Y-107969000D01*
X151111000Y-110471000D01*
X151111000Y-110471000D01*
G37*
G36*
X110121000Y-108851000D02*
G01*
X108319000Y-108851000D01*
X108319000Y-107049000D01*
X110121000Y-107049000D01*
X110121000Y-108851000D01*
X110121000Y-108851000D01*
G37*
G36*
X106311000Y-108851000D02*
G01*
X104509000Y-108851000D01*
X104509000Y-107049000D01*
X106311000Y-107049000D01*
X106311000Y-108851000D01*
X106311000Y-108851000D01*
G37*
G36*
X131861000Y-108128500D02*
G01*
X129759000Y-108128500D01*
X129759000Y-100151500D01*
X131861000Y-100151500D01*
X131861000Y-108128500D01*
X131861000Y-108128500D01*
G37*
G36*
X136030562Y-106555681D02*
G01*
X136065481Y-106566274D01*
X136097663Y-106583476D01*
X136125873Y-106606627D01*
X136149024Y-106634837D01*
X136166226Y-106667019D01*
X136176819Y-106701938D01*
X136181000Y-106744395D01*
X136181000Y-107885605D01*
X136176819Y-107928062D01*
X136166226Y-107962981D01*
X136149024Y-107995163D01*
X136125873Y-108023373D01*
X136097663Y-108046524D01*
X136065481Y-108063726D01*
X136030562Y-108074319D01*
X135988105Y-108078500D01*
X134521895Y-108078500D01*
X134479438Y-108074319D01*
X134444519Y-108063726D01*
X134412337Y-108046524D01*
X134384127Y-108023373D01*
X134360976Y-107995163D01*
X134343774Y-107962981D01*
X134333181Y-107928062D01*
X134329000Y-107885605D01*
X134329000Y-106744395D01*
X134333181Y-106701938D01*
X134343774Y-106667019D01*
X134360976Y-106634837D01*
X134384127Y-106606627D01*
X134412337Y-106583476D01*
X134444519Y-106566274D01*
X134479438Y-106555681D01*
X134521895Y-106551500D01*
X135988105Y-106551500D01*
X136030562Y-106555681D01*
X136030562Y-106555681D01*
G37*
G36*
X139878062Y-105758181D02*
G01*
X139912981Y-105768774D01*
X139945163Y-105785976D01*
X139973373Y-105809127D01*
X139996524Y-105837337D01*
X140013726Y-105869519D01*
X140024319Y-105904438D01*
X140028500Y-105946895D01*
X140028500Y-107413105D01*
X140024319Y-107455562D01*
X140013726Y-107490481D01*
X139996524Y-107522663D01*
X139973373Y-107550873D01*
X139945163Y-107574024D01*
X139912981Y-107591226D01*
X139878062Y-107601819D01*
X139835605Y-107606000D01*
X138694395Y-107606000D01*
X138651938Y-107601819D01*
X138617019Y-107591226D01*
X138584837Y-107574024D01*
X138556627Y-107550873D01*
X138533476Y-107522663D01*
X138516274Y-107490481D01*
X138505681Y-107455562D01*
X138501500Y-107413105D01*
X138501500Y-105946895D01*
X138505681Y-105904438D01*
X138516274Y-105869519D01*
X138533476Y-105837337D01*
X138556627Y-105809127D01*
X138584837Y-105785976D01*
X138617019Y-105768774D01*
X138651938Y-105758181D01*
X138694395Y-105754000D01*
X139835605Y-105754000D01*
X139878062Y-105758181D01*
X139878062Y-105758181D01*
G37*
G36*
X142853062Y-105758181D02*
G01*
X142887981Y-105768774D01*
X142920163Y-105785976D01*
X142948373Y-105809127D01*
X142971524Y-105837337D01*
X142988726Y-105869519D01*
X142999319Y-105904438D01*
X143003500Y-105946895D01*
X143003500Y-107413105D01*
X142999319Y-107455562D01*
X142988726Y-107490481D01*
X142971524Y-107522663D01*
X142948373Y-107550873D01*
X142920163Y-107574024D01*
X142887981Y-107591226D01*
X142853062Y-107601819D01*
X142810605Y-107606000D01*
X141669395Y-107606000D01*
X141626938Y-107601819D01*
X141592019Y-107591226D01*
X141559837Y-107574024D01*
X141531627Y-107550873D01*
X141508476Y-107522663D01*
X141491274Y-107490481D01*
X141480681Y-107455562D01*
X141476500Y-107413105D01*
X141476500Y-105946895D01*
X141480681Y-105904438D01*
X141491274Y-105869519D01*
X141508476Y-105837337D01*
X141531627Y-105809127D01*
X141559837Y-105785976D01*
X141592019Y-105768774D01*
X141626938Y-105758181D01*
X141669395Y-105754000D01*
X142810605Y-105754000D01*
X142853062Y-105758181D01*
X142853062Y-105758181D01*
G37*
G36*
X126631000Y-107581000D02*
G01*
X124829000Y-107581000D01*
X124829000Y-105779000D01*
X126631000Y-105779000D01*
X126631000Y-107581000D01*
X126631000Y-107581000D01*
G37*
G36*
X150224903Y-103017075D02*
G01*
X150452571Y-103111378D01*
X150657466Y-103248285D01*
X150831715Y-103422534D01*
X150952369Y-103603105D01*
X150968623Y-103627431D01*
X150970361Y-103631627D01*
X151062925Y-103855097D01*
X151111000Y-104096787D01*
X151111000Y-104343213D01*
X151062925Y-104584903D01*
X150968622Y-104812571D01*
X150831715Y-105017466D01*
X150657466Y-105191715D01*
X150452571Y-105328622D01*
X150452570Y-105328623D01*
X150452569Y-105328623D01*
X150224903Y-105422925D01*
X149983214Y-105471000D01*
X149736786Y-105471000D01*
X149495097Y-105422925D01*
X149267431Y-105328623D01*
X149267430Y-105328623D01*
X149267429Y-105328622D01*
X149062534Y-105191715D01*
X148888285Y-105017466D01*
X148751378Y-104812571D01*
X148657075Y-104584903D01*
X148609000Y-104343213D01*
X148609000Y-104096787D01*
X148657075Y-103855097D01*
X148749639Y-103631627D01*
X148751377Y-103627431D01*
X148767631Y-103603105D01*
X148888285Y-103422534D01*
X149062534Y-103248285D01*
X149267429Y-103111378D01*
X149495097Y-103017075D01*
X149736786Y-102969000D01*
X149983214Y-102969000D01*
X150224903Y-103017075D01*
X150224903Y-103017075D01*
G37*
G36*
X136030562Y-103580681D02*
G01*
X136065481Y-103591274D01*
X136097663Y-103608476D01*
X136125873Y-103631627D01*
X136149024Y-103659837D01*
X136166226Y-103692019D01*
X136176819Y-103726938D01*
X136181000Y-103769395D01*
X136181000Y-104910605D01*
X136176819Y-104953062D01*
X136166226Y-104987981D01*
X136149024Y-105020163D01*
X136125873Y-105048373D01*
X136097663Y-105071524D01*
X136065481Y-105088726D01*
X136030562Y-105099319D01*
X135988105Y-105103500D01*
X134521895Y-105103500D01*
X134479438Y-105099319D01*
X134444519Y-105088726D01*
X134412337Y-105071524D01*
X134384127Y-105048373D01*
X134360976Y-105020163D01*
X134343774Y-104987981D01*
X134333181Y-104953062D01*
X134329000Y-104910605D01*
X134329000Y-103769395D01*
X134333181Y-103726938D01*
X134343774Y-103692019D01*
X134360976Y-103659837D01*
X134384127Y-103631627D01*
X134412337Y-103608476D01*
X134444519Y-103591274D01*
X134479438Y-103580681D01*
X134521895Y-103576500D01*
X135988105Y-103576500D01*
X136030562Y-103580681D01*
X136030562Y-103580681D01*
G37*
G36*
X127613062Y-101948181D02*
G01*
X127647981Y-101958774D01*
X127680163Y-101975976D01*
X127708373Y-101999127D01*
X127731524Y-102027337D01*
X127748726Y-102059519D01*
X127759319Y-102094438D01*
X127763500Y-102136895D01*
X127763500Y-103603105D01*
X127759319Y-103645562D01*
X127748726Y-103680481D01*
X127731524Y-103712663D01*
X127708373Y-103740873D01*
X127680163Y-103764024D01*
X127647981Y-103781226D01*
X127613062Y-103791819D01*
X127570605Y-103796000D01*
X126429395Y-103796000D01*
X126386938Y-103791819D01*
X126352019Y-103781226D01*
X126319837Y-103764024D01*
X126291627Y-103740873D01*
X126268476Y-103712663D01*
X126251274Y-103680481D01*
X126240681Y-103645562D01*
X126236500Y-103603105D01*
X126236500Y-102136895D01*
X126240681Y-102094438D01*
X126251274Y-102059519D01*
X126268476Y-102027337D01*
X126291627Y-101999127D01*
X126319837Y-101975976D01*
X126352019Y-101958774D01*
X126386938Y-101948181D01*
X126429395Y-101944000D01*
X127570605Y-101944000D01*
X127613062Y-101948181D01*
X127613062Y-101948181D01*
G37*
G36*
X124638062Y-101948181D02*
G01*
X124672981Y-101958774D01*
X124705163Y-101975976D01*
X124733373Y-101999127D01*
X124756524Y-102027337D01*
X124773726Y-102059519D01*
X124784319Y-102094438D01*
X124788500Y-102136895D01*
X124788500Y-103603105D01*
X124784319Y-103645562D01*
X124773726Y-103680481D01*
X124756524Y-103712663D01*
X124733373Y-103740873D01*
X124705163Y-103764024D01*
X124672981Y-103781226D01*
X124638062Y-103791819D01*
X124595605Y-103796000D01*
X123454395Y-103796000D01*
X123411938Y-103791819D01*
X123377019Y-103781226D01*
X123344837Y-103764024D01*
X123316627Y-103740873D01*
X123293476Y-103712663D01*
X123276274Y-103680481D01*
X123265681Y-103645562D01*
X123261500Y-103603105D01*
X123261500Y-102136895D01*
X123265681Y-102094438D01*
X123276274Y-102059519D01*
X123293476Y-102027337D01*
X123316627Y-101999127D01*
X123344837Y-101975976D01*
X123377019Y-101958774D01*
X123411938Y-101948181D01*
X123454395Y-101944000D01*
X124595605Y-101944000D01*
X124638062Y-101948181D01*
X124638062Y-101948181D01*
G37*
G36*
X140313062Y-100678181D02*
G01*
X140347981Y-100688774D01*
X140380163Y-100705976D01*
X140408373Y-100729127D01*
X140431524Y-100757337D01*
X140448726Y-100789519D01*
X140459319Y-100824438D01*
X140463500Y-100866895D01*
X140463500Y-102333105D01*
X140459319Y-102375562D01*
X140448726Y-102410481D01*
X140431524Y-102442663D01*
X140408373Y-102470873D01*
X140380163Y-102494024D01*
X140347981Y-102511226D01*
X140313062Y-102521819D01*
X140270605Y-102526000D01*
X139129395Y-102526000D01*
X139086938Y-102521819D01*
X139052019Y-102511226D01*
X139019837Y-102494024D01*
X138991627Y-102470873D01*
X138968476Y-102442663D01*
X138951274Y-102410481D01*
X138940681Y-102375562D01*
X138936500Y-102333105D01*
X138936500Y-100866895D01*
X138940681Y-100824438D01*
X138951274Y-100789519D01*
X138968476Y-100757337D01*
X138991627Y-100729127D01*
X139019837Y-100705976D01*
X139052019Y-100688774D01*
X139086938Y-100678181D01*
X139129395Y-100674000D01*
X140270605Y-100674000D01*
X140313062Y-100678181D01*
X140313062Y-100678181D01*
G37*
G36*
X137338062Y-100678181D02*
G01*
X137372981Y-100688774D01*
X137405163Y-100705976D01*
X137433373Y-100729127D01*
X137456524Y-100757337D01*
X137473726Y-100789519D01*
X137484319Y-100824438D01*
X137488500Y-100866895D01*
X137488500Y-102333105D01*
X137484319Y-102375562D01*
X137473726Y-102410481D01*
X137456524Y-102442663D01*
X137433373Y-102470873D01*
X137405163Y-102494024D01*
X137372981Y-102511226D01*
X137338062Y-102521819D01*
X137295605Y-102526000D01*
X136154395Y-102526000D01*
X136111938Y-102521819D01*
X136077019Y-102511226D01*
X136044837Y-102494024D01*
X136016627Y-102470873D01*
X135993476Y-102442663D01*
X135976274Y-102410481D01*
X135965681Y-102375562D01*
X135961500Y-102333105D01*
X135961500Y-100866895D01*
X135965681Y-100824438D01*
X135976274Y-100789519D01*
X135993476Y-100757337D01*
X136016627Y-100729127D01*
X136044837Y-100705976D01*
X136077019Y-100688774D01*
X136111938Y-100678181D01*
X136154395Y-100674000D01*
X137295605Y-100674000D01*
X137338062Y-100678181D01*
X137338062Y-100678181D01*
G37*
G36*
X106311000Y-102501000D02*
G01*
X104509000Y-102501000D01*
X104509000Y-100699000D01*
X106311000Y-100699000D01*
X106311000Y-102501000D01*
X106311000Y-102501000D01*
G37*
G36*
X110121000Y-102501000D02*
G01*
X108319000Y-102501000D01*
X108319000Y-100699000D01*
X110121000Y-100699000D01*
X110121000Y-102501000D01*
X110121000Y-102501000D01*
G37*
G36*
X124638062Y-98138181D02*
G01*
X124672981Y-98148774D01*
X124705163Y-98165976D01*
X124733373Y-98189127D01*
X124756524Y-98217337D01*
X124773726Y-98249519D01*
X124784319Y-98284438D01*
X124788500Y-98326895D01*
X124788500Y-99793105D01*
X124784319Y-99835562D01*
X124773726Y-99870481D01*
X124756524Y-99902663D01*
X124733373Y-99930873D01*
X124705163Y-99954024D01*
X124672981Y-99971226D01*
X124638062Y-99981819D01*
X124595605Y-99986000D01*
X123454395Y-99986000D01*
X123411938Y-99981819D01*
X123377019Y-99971226D01*
X123344837Y-99954024D01*
X123316627Y-99930873D01*
X123293476Y-99902663D01*
X123276274Y-99870481D01*
X123265681Y-99835562D01*
X123261500Y-99793105D01*
X123261500Y-98326895D01*
X123265681Y-98284438D01*
X123276274Y-98249519D01*
X123293476Y-98217337D01*
X123316627Y-98189127D01*
X123344837Y-98165976D01*
X123377019Y-98148774D01*
X123411938Y-98138181D01*
X123454395Y-98134000D01*
X124595605Y-98134000D01*
X124638062Y-98138181D01*
X124638062Y-98138181D01*
G37*
G36*
X127613062Y-98138181D02*
G01*
X127647981Y-98148774D01*
X127680163Y-98165976D01*
X127708373Y-98189127D01*
X127731524Y-98217337D01*
X127748726Y-98249519D01*
X127759319Y-98284438D01*
X127763500Y-98326895D01*
X127763500Y-99793105D01*
X127759319Y-99835562D01*
X127748726Y-99870481D01*
X127731524Y-99902663D01*
X127708373Y-99930873D01*
X127680163Y-99954024D01*
X127647981Y-99971226D01*
X127613062Y-99981819D01*
X127570605Y-99986000D01*
X126429395Y-99986000D01*
X126386938Y-99981819D01*
X126352019Y-99971226D01*
X126319837Y-99954024D01*
X126291627Y-99930873D01*
X126268476Y-99902663D01*
X126251274Y-99870481D01*
X126240681Y-99835562D01*
X126236500Y-99793105D01*
X126236500Y-98326895D01*
X126240681Y-98284438D01*
X126251274Y-98249519D01*
X126268476Y-98217337D01*
X126291627Y-98189127D01*
X126319837Y-98165976D01*
X126352019Y-98148774D01*
X126386938Y-98138181D01*
X126429395Y-98134000D01*
X127570605Y-98134000D01*
X127613062Y-98138181D01*
X127613062Y-98138181D01*
G37*
G36*
X118668062Y-98100681D02*
G01*
X118702981Y-98111274D01*
X118735163Y-98128476D01*
X118763373Y-98151627D01*
X118786524Y-98179837D01*
X118803726Y-98212019D01*
X118814319Y-98246938D01*
X118818500Y-98289395D01*
X118818500Y-99430605D01*
X118814319Y-99473062D01*
X118803726Y-99507981D01*
X118786524Y-99540163D01*
X118763373Y-99568373D01*
X118735163Y-99591524D01*
X118702981Y-99608726D01*
X118668062Y-99619319D01*
X118625605Y-99623500D01*
X117159395Y-99623500D01*
X117116938Y-99619319D01*
X117082019Y-99608726D01*
X117049837Y-99591524D01*
X117021627Y-99568373D01*
X116998476Y-99540163D01*
X116981274Y-99507981D01*
X116970681Y-99473062D01*
X116966500Y-99430605D01*
X116966500Y-98289395D01*
X116970681Y-98246938D01*
X116981274Y-98212019D01*
X116998476Y-98179837D01*
X117021627Y-98151627D01*
X117049837Y-98128476D01*
X117082019Y-98111274D01*
X117116938Y-98100681D01*
X117159395Y-98096500D01*
X118625605Y-98096500D01*
X118668062Y-98100681D01*
X118668062Y-98100681D01*
G37*
G36*
X136068062Y-96868181D02*
G01*
X136102981Y-96878774D01*
X136135163Y-96895976D01*
X136163373Y-96919127D01*
X136186524Y-96947337D01*
X136203726Y-96979519D01*
X136214319Y-97014438D01*
X136218500Y-97056895D01*
X136218500Y-98523105D01*
X136214319Y-98565562D01*
X136203726Y-98600481D01*
X136186524Y-98632663D01*
X136163373Y-98660873D01*
X136135163Y-98684024D01*
X136102981Y-98701226D01*
X136068062Y-98711819D01*
X136025605Y-98716000D01*
X134884395Y-98716000D01*
X134841938Y-98711819D01*
X134807019Y-98701226D01*
X134774837Y-98684024D01*
X134746627Y-98660873D01*
X134723476Y-98632663D01*
X134706274Y-98600481D01*
X134695681Y-98565562D01*
X134691500Y-98523105D01*
X134691500Y-97056895D01*
X134695681Y-97014438D01*
X134706274Y-96979519D01*
X134723476Y-96947337D01*
X134746627Y-96919127D01*
X134774837Y-96895976D01*
X134807019Y-96878774D01*
X134841938Y-96868181D01*
X134884395Y-96864000D01*
X136025605Y-96864000D01*
X136068062Y-96868181D01*
X136068062Y-96868181D01*
G37*
G36*
X139043062Y-96868181D02*
G01*
X139077981Y-96878774D01*
X139110163Y-96895976D01*
X139138373Y-96919127D01*
X139161524Y-96947337D01*
X139178726Y-96979519D01*
X139189319Y-97014438D01*
X139193500Y-97056895D01*
X139193500Y-98523105D01*
X139189319Y-98565562D01*
X139178726Y-98600481D01*
X139161524Y-98632663D01*
X139138373Y-98660873D01*
X139110163Y-98684024D01*
X139077981Y-98701226D01*
X139043062Y-98711819D01*
X139000605Y-98716000D01*
X137859395Y-98716000D01*
X137816938Y-98711819D01*
X137782019Y-98701226D01*
X137749837Y-98684024D01*
X137721627Y-98660873D01*
X137698476Y-98632663D01*
X137681274Y-98600481D01*
X137670681Y-98565562D01*
X137666500Y-98523105D01*
X137666500Y-97056895D01*
X137670681Y-97014438D01*
X137681274Y-96979519D01*
X137698476Y-96947337D01*
X137721627Y-96919127D01*
X137749837Y-96895976D01*
X137782019Y-96878774D01*
X137816938Y-96868181D01*
X137859395Y-96864000D01*
X139000605Y-96864000D01*
X139043062Y-96868181D01*
X139043062Y-96868181D01*
G37*
G36*
X115075562Y-97030681D02*
G01*
X115110481Y-97041274D01*
X115142663Y-97058476D01*
X115170873Y-97081627D01*
X115194024Y-97109837D01*
X115211226Y-97142019D01*
X115221819Y-97176938D01*
X115226000Y-97219395D01*
X115226000Y-98360605D01*
X115221819Y-98403062D01*
X115211226Y-98437981D01*
X115194024Y-98470163D01*
X115170873Y-98498373D01*
X115142663Y-98521524D01*
X115110481Y-98538726D01*
X115075562Y-98549319D01*
X115033105Y-98553500D01*
X113566895Y-98553500D01*
X113524438Y-98549319D01*
X113489519Y-98538726D01*
X113457337Y-98521524D01*
X113429127Y-98498373D01*
X113405976Y-98470163D01*
X113388774Y-98437981D01*
X113378181Y-98403062D01*
X113374000Y-98360605D01*
X113374000Y-97219395D01*
X113378181Y-97176938D01*
X113388774Y-97142019D01*
X113405976Y-97109837D01*
X113429127Y-97081627D01*
X113457337Y-97058476D01*
X113489519Y-97041274D01*
X113524438Y-97030681D01*
X113566895Y-97026500D01*
X115033105Y-97026500D01*
X115075562Y-97030681D01*
X115075562Y-97030681D01*
G37*
G36*
X143015562Y-97030681D02*
G01*
X143050481Y-97041274D01*
X143082663Y-97058476D01*
X143110873Y-97081627D01*
X143134024Y-97109837D01*
X143151226Y-97142019D01*
X143161819Y-97176938D01*
X143166000Y-97219395D01*
X143166000Y-98360605D01*
X143161819Y-98403062D01*
X143151226Y-98437981D01*
X143134024Y-98470163D01*
X143110873Y-98498373D01*
X143082663Y-98521524D01*
X143050481Y-98538726D01*
X143015562Y-98549319D01*
X142973105Y-98553500D01*
X141506895Y-98553500D01*
X141464438Y-98549319D01*
X141429519Y-98538726D01*
X141397337Y-98521524D01*
X141369127Y-98498373D01*
X141345976Y-98470163D01*
X141328774Y-98437981D01*
X141318181Y-98403062D01*
X141314000Y-98360605D01*
X141314000Y-97219395D01*
X141318181Y-97176938D01*
X141328774Y-97142019D01*
X141345976Y-97109837D01*
X141369127Y-97081627D01*
X141397337Y-97058476D01*
X141429519Y-97041274D01*
X141464438Y-97030681D01*
X141506895Y-97026500D01*
X142973105Y-97026500D01*
X143015562Y-97030681D01*
X143015562Y-97030681D01*
G37*
G36*
X150239487Y-95268996D02*
G01*
X150476253Y-95367068D01*
X150476255Y-95367069D01*
X150689339Y-95509447D01*
X150870553Y-95690661D01*
X150996942Y-95879815D01*
X151012932Y-95903747D01*
X151111004Y-96140513D01*
X151161000Y-96391861D01*
X151161000Y-96648139D01*
X151111004Y-96899487D01*
X151035559Y-97081627D01*
X151012931Y-97136255D01*
X150870553Y-97349339D01*
X150689339Y-97530553D01*
X150476255Y-97672931D01*
X150476254Y-97672932D01*
X150476253Y-97672932D01*
X150239487Y-97771004D01*
X149988139Y-97821000D01*
X149731861Y-97821000D01*
X149480513Y-97771004D01*
X149243747Y-97672932D01*
X149243746Y-97672932D01*
X149243745Y-97672931D01*
X149030661Y-97530553D01*
X148849447Y-97349339D01*
X148707069Y-97136255D01*
X148684441Y-97081627D01*
X148608996Y-96899487D01*
X148559000Y-96648139D01*
X148559000Y-96391861D01*
X148608996Y-96140513D01*
X148707068Y-95903747D01*
X148723059Y-95879815D01*
X148849447Y-95690661D01*
X149030661Y-95509447D01*
X149243745Y-95367069D01*
X149243747Y-95367068D01*
X149480513Y-95268996D01*
X149731861Y-95219000D01*
X149988139Y-95219000D01*
X150239487Y-95268996D01*
X150239487Y-95268996D01*
G37*
G36*
X99165909Y-95625072D02*
G01*
X99236627Y-95632037D01*
X99406466Y-95683557D01*
X99562991Y-95767222D01*
X99598729Y-95796552D01*
X99700186Y-95879814D01*
X99783448Y-95981271D01*
X99812778Y-96017009D01*
X99896443Y-96173534D01*
X99947963Y-96343373D01*
X99965359Y-96520000D01*
X99947963Y-96696627D01*
X99896443Y-96866466D01*
X99812778Y-97022991D01*
X99783656Y-97058476D01*
X99700186Y-97160186D01*
X99600334Y-97242131D01*
X99562991Y-97272778D01*
X99406466Y-97356443D01*
X99236627Y-97407963D01*
X99170442Y-97414482D01*
X99104260Y-97421000D01*
X99015740Y-97421000D01*
X98949558Y-97414482D01*
X98883373Y-97407963D01*
X98713534Y-97356443D01*
X98557009Y-97272778D01*
X98519666Y-97242131D01*
X98419814Y-97160186D01*
X98336344Y-97058476D01*
X98307222Y-97022991D01*
X98223557Y-96866466D01*
X98172037Y-96696627D01*
X98154641Y-96520000D01*
X98172037Y-96343373D01*
X98223557Y-96173534D01*
X98307222Y-96017009D01*
X98336552Y-95981271D01*
X98419814Y-95879814D01*
X98521271Y-95796552D01*
X98557009Y-95767222D01*
X98713534Y-95683557D01*
X98883373Y-95632037D01*
X98954091Y-95625072D01*
X99015740Y-95619000D01*
X99104260Y-95619000D01*
X99165909Y-95625072D01*
X99165909Y-95625072D01*
G37*
G36*
X96625909Y-95625072D02*
G01*
X96696627Y-95632037D01*
X96866466Y-95683557D01*
X97022991Y-95767222D01*
X97058729Y-95796552D01*
X97160186Y-95879814D01*
X97243448Y-95981271D01*
X97272778Y-96017009D01*
X97356443Y-96173534D01*
X97407963Y-96343373D01*
X97425359Y-96520000D01*
X97407963Y-96696627D01*
X97356443Y-96866466D01*
X97272778Y-97022991D01*
X97243656Y-97058476D01*
X97160186Y-97160186D01*
X97060334Y-97242131D01*
X97022991Y-97272778D01*
X96866466Y-97356443D01*
X96696627Y-97407963D01*
X96630442Y-97414482D01*
X96564260Y-97421000D01*
X96475740Y-97421000D01*
X96409558Y-97414482D01*
X96343373Y-97407963D01*
X96173534Y-97356443D01*
X96017009Y-97272778D01*
X95979666Y-97242131D01*
X95879814Y-97160186D01*
X95796344Y-97058476D01*
X95767222Y-97022991D01*
X95683557Y-96866466D01*
X95632037Y-96696627D01*
X95614641Y-96520000D01*
X95632037Y-96343373D01*
X95683557Y-96173534D01*
X95767222Y-96017009D01*
X95796552Y-95981271D01*
X95879814Y-95879814D01*
X95981271Y-95796552D01*
X96017009Y-95767222D01*
X96173534Y-95683557D01*
X96343373Y-95632037D01*
X96414091Y-95625072D01*
X96475740Y-95619000D01*
X96564260Y-95619000D01*
X96625909Y-95625072D01*
X96625909Y-95625072D01*
G37*
G36*
X118668062Y-95125681D02*
G01*
X118702981Y-95136274D01*
X118735163Y-95153476D01*
X118763373Y-95176627D01*
X118786524Y-95204837D01*
X118803726Y-95237019D01*
X118814319Y-95271938D01*
X118818500Y-95314395D01*
X118818500Y-96455605D01*
X118814319Y-96498062D01*
X118803726Y-96532981D01*
X118786524Y-96565163D01*
X118763373Y-96593373D01*
X118735163Y-96616524D01*
X118702981Y-96633726D01*
X118668062Y-96644319D01*
X118625605Y-96648500D01*
X117159395Y-96648500D01*
X117116938Y-96644319D01*
X117082019Y-96633726D01*
X117049837Y-96616524D01*
X117021627Y-96593373D01*
X116998476Y-96565163D01*
X116981274Y-96532981D01*
X116970681Y-96498062D01*
X116966500Y-96455605D01*
X116966500Y-95314395D01*
X116970681Y-95271938D01*
X116981274Y-95237019D01*
X116998476Y-95204837D01*
X117021627Y-95176627D01*
X117049837Y-95153476D01*
X117082019Y-95136274D01*
X117116938Y-95125681D01*
X117159395Y-95121500D01*
X118625605Y-95121500D01*
X118668062Y-95125681D01*
X118668062Y-95125681D01*
G37*
G36*
X131861000Y-96253500D02*
G01*
X129759000Y-96253500D01*
X129759000Y-88276500D01*
X131861000Y-88276500D01*
X131861000Y-96253500D01*
X131861000Y-96253500D01*
G37*
G36*
X121649928Y-95536764D02*
G01*
X121671009Y-95543160D01*
X121690445Y-95553548D01*
X121707476Y-95567524D01*
X121721452Y-95584555D01*
X121731840Y-95603991D01*
X121738236Y-95625072D01*
X121741000Y-95653140D01*
X121741000Y-96116860D01*
X121738236Y-96144928D01*
X121731840Y-96166009D01*
X121721452Y-96185445D01*
X121707476Y-96202476D01*
X121690445Y-96216452D01*
X121671009Y-96226840D01*
X121649928Y-96233236D01*
X121621860Y-96236000D01*
X119808140Y-96236000D01*
X119780072Y-96233236D01*
X119758991Y-96226840D01*
X119739555Y-96216452D01*
X119722524Y-96202476D01*
X119708548Y-96185445D01*
X119698160Y-96166009D01*
X119691764Y-96144928D01*
X119689000Y-96116860D01*
X119689000Y-95653140D01*
X119691764Y-95625072D01*
X119698160Y-95603991D01*
X119708548Y-95584555D01*
X119722524Y-95567524D01*
X119739555Y-95553548D01*
X119758991Y-95543160D01*
X119780072Y-95536764D01*
X119808140Y-95534000D01*
X121621860Y-95534000D01*
X121649928Y-95536764D01*
X121649928Y-95536764D01*
G37*
G36*
X126599928Y-95536764D02*
G01*
X126621009Y-95543160D01*
X126640445Y-95553548D01*
X126657476Y-95567524D01*
X126671452Y-95584555D01*
X126681840Y-95603991D01*
X126688236Y-95625072D01*
X126691000Y-95653140D01*
X126691000Y-96116860D01*
X126688236Y-96144928D01*
X126681840Y-96166009D01*
X126671452Y-96185445D01*
X126657476Y-96202476D01*
X126640445Y-96216452D01*
X126621009Y-96226840D01*
X126599928Y-96233236D01*
X126571860Y-96236000D01*
X124758140Y-96236000D01*
X124730072Y-96233236D01*
X124708991Y-96226840D01*
X124689555Y-96216452D01*
X124672524Y-96202476D01*
X124658548Y-96185445D01*
X124648160Y-96166009D01*
X124641764Y-96144928D01*
X124639000Y-96116860D01*
X124639000Y-95653140D01*
X124641764Y-95625072D01*
X124648160Y-95603991D01*
X124658548Y-95584555D01*
X124672524Y-95567524D01*
X124689555Y-95553548D01*
X124708991Y-95543160D01*
X124730072Y-95536764D01*
X124758140Y-95534000D01*
X126571860Y-95534000D01*
X126599928Y-95536764D01*
X126599928Y-95536764D01*
G37*
G36*
X110121000Y-96151000D02*
G01*
X108319000Y-96151000D01*
X108319000Y-94349000D01*
X110121000Y-94349000D01*
X110121000Y-96151000D01*
X110121000Y-96151000D01*
G37*
G36*
X106311000Y-96151000D02*
G01*
X104509000Y-96151000D01*
X104509000Y-94349000D01*
X106311000Y-94349000D01*
X106311000Y-96151000D01*
X106311000Y-96151000D01*
G37*
G36*
X115075562Y-94055681D02*
G01*
X115110481Y-94066274D01*
X115142663Y-94083476D01*
X115170873Y-94106627D01*
X115194024Y-94134837D01*
X115211226Y-94167019D01*
X115221819Y-94201938D01*
X115226000Y-94244395D01*
X115226000Y-95385605D01*
X115221819Y-95428062D01*
X115211226Y-95462981D01*
X115194024Y-95495163D01*
X115170873Y-95523373D01*
X115142663Y-95546524D01*
X115110481Y-95563726D01*
X115075562Y-95574319D01*
X115033105Y-95578500D01*
X113566895Y-95578500D01*
X113524438Y-95574319D01*
X113489519Y-95563726D01*
X113457337Y-95546524D01*
X113429127Y-95523373D01*
X113405976Y-95495163D01*
X113388774Y-95462981D01*
X113378181Y-95428062D01*
X113374000Y-95385605D01*
X113374000Y-94244395D01*
X113378181Y-94201938D01*
X113388774Y-94167019D01*
X113405976Y-94134837D01*
X113429127Y-94106627D01*
X113457337Y-94083476D01*
X113489519Y-94066274D01*
X113524438Y-94055681D01*
X113566895Y-94051500D01*
X115033105Y-94051500D01*
X115075562Y-94055681D01*
X115075562Y-94055681D01*
G37*
G36*
X143015562Y-94055681D02*
G01*
X143050481Y-94066274D01*
X143082663Y-94083476D01*
X143110873Y-94106627D01*
X143134024Y-94134837D01*
X143151226Y-94167019D01*
X143161819Y-94201938D01*
X143166000Y-94244395D01*
X143166000Y-95385605D01*
X143161819Y-95428062D01*
X143151226Y-95462981D01*
X143134024Y-95495163D01*
X143110873Y-95523373D01*
X143082663Y-95546524D01*
X143050481Y-95563726D01*
X143015562Y-95574319D01*
X142973105Y-95578500D01*
X141506895Y-95578500D01*
X141464438Y-95574319D01*
X141429519Y-95563726D01*
X141397337Y-95546524D01*
X141369127Y-95523373D01*
X141345976Y-95495163D01*
X141328774Y-95462981D01*
X141318181Y-95428062D01*
X141314000Y-95385605D01*
X141314000Y-94244395D01*
X141318181Y-94201938D01*
X141328774Y-94167019D01*
X141345976Y-94134837D01*
X141369127Y-94106627D01*
X141397337Y-94083476D01*
X141429519Y-94066274D01*
X141464438Y-94055681D01*
X141506895Y-94051500D01*
X142973105Y-94051500D01*
X143015562Y-94055681D01*
X143015562Y-94055681D01*
G37*
G36*
X121649928Y-94266764D02*
G01*
X121671009Y-94273160D01*
X121690445Y-94283548D01*
X121707476Y-94297524D01*
X121721452Y-94314555D01*
X121731840Y-94333991D01*
X121738236Y-94355072D01*
X121741000Y-94383140D01*
X121741000Y-94846860D01*
X121738236Y-94874928D01*
X121731840Y-94896009D01*
X121721452Y-94915445D01*
X121707476Y-94932476D01*
X121690445Y-94946452D01*
X121671009Y-94956840D01*
X121649928Y-94963236D01*
X121621860Y-94966000D01*
X119808140Y-94966000D01*
X119780072Y-94963236D01*
X119758991Y-94956840D01*
X119739555Y-94946452D01*
X119722524Y-94932476D01*
X119708548Y-94915445D01*
X119698160Y-94896009D01*
X119691764Y-94874928D01*
X119689000Y-94846860D01*
X119689000Y-94383140D01*
X119691764Y-94355072D01*
X119698160Y-94333991D01*
X119708548Y-94314555D01*
X119722524Y-94297524D01*
X119739555Y-94283548D01*
X119758991Y-94273160D01*
X119780072Y-94266764D01*
X119808140Y-94264000D01*
X121621860Y-94264000D01*
X121649928Y-94266764D01*
X121649928Y-94266764D01*
G37*
G36*
X126599928Y-94266764D02*
G01*
X126621009Y-94273160D01*
X126640445Y-94283548D01*
X126657476Y-94297524D01*
X126671452Y-94314555D01*
X126681840Y-94333991D01*
X126688236Y-94355072D01*
X126691000Y-94383140D01*
X126691000Y-94846860D01*
X126688236Y-94874928D01*
X126681840Y-94896009D01*
X126671452Y-94915445D01*
X126657476Y-94932476D01*
X126640445Y-94946452D01*
X126621009Y-94956840D01*
X126599928Y-94963236D01*
X126571860Y-94966000D01*
X124758140Y-94966000D01*
X124730072Y-94963236D01*
X124708991Y-94956840D01*
X124689555Y-94946452D01*
X124672524Y-94932476D01*
X124658548Y-94915445D01*
X124648160Y-94896009D01*
X124641764Y-94874928D01*
X124639000Y-94846860D01*
X124639000Y-94383140D01*
X124641764Y-94355072D01*
X124648160Y-94333991D01*
X124658548Y-94314555D01*
X124672524Y-94297524D01*
X124689555Y-94283548D01*
X124708991Y-94273160D01*
X124730072Y-94266764D01*
X124758140Y-94264000D01*
X126571860Y-94264000D01*
X126599928Y-94266764D01*
X126599928Y-94266764D01*
G37*
G36*
X137338062Y-93058181D02*
G01*
X137372981Y-93068774D01*
X137405163Y-93085976D01*
X137433373Y-93109127D01*
X137456524Y-93137337D01*
X137473726Y-93169519D01*
X137484319Y-93204438D01*
X137488500Y-93246895D01*
X137488500Y-94713105D01*
X137484319Y-94755562D01*
X137473726Y-94790481D01*
X137456524Y-94822663D01*
X137433373Y-94850873D01*
X137405163Y-94874024D01*
X137372981Y-94891226D01*
X137338062Y-94901819D01*
X137295605Y-94906000D01*
X136154395Y-94906000D01*
X136111938Y-94901819D01*
X136077019Y-94891226D01*
X136044837Y-94874024D01*
X136016627Y-94850873D01*
X135993476Y-94822663D01*
X135976274Y-94790481D01*
X135965681Y-94755562D01*
X135961500Y-94713105D01*
X135961500Y-93246895D01*
X135965681Y-93204438D01*
X135976274Y-93169519D01*
X135993476Y-93137337D01*
X136016627Y-93109127D01*
X136044837Y-93085976D01*
X136077019Y-93068774D01*
X136111938Y-93058181D01*
X136154395Y-93054000D01*
X137295605Y-93054000D01*
X137338062Y-93058181D01*
X137338062Y-93058181D01*
G37*
G36*
X140313062Y-93058181D02*
G01*
X140347981Y-93068774D01*
X140380163Y-93085976D01*
X140408373Y-93109127D01*
X140431524Y-93137337D01*
X140448726Y-93169519D01*
X140459319Y-93204438D01*
X140463500Y-93246895D01*
X140463500Y-94713105D01*
X140459319Y-94755562D01*
X140448726Y-94790481D01*
X140431524Y-94822663D01*
X140408373Y-94850873D01*
X140380163Y-94874024D01*
X140347981Y-94891226D01*
X140313062Y-94901819D01*
X140270605Y-94906000D01*
X139129395Y-94906000D01*
X139086938Y-94901819D01*
X139052019Y-94891226D01*
X139019837Y-94874024D01*
X138991627Y-94850873D01*
X138968476Y-94822663D01*
X138951274Y-94790481D01*
X138940681Y-94755562D01*
X138936500Y-94713105D01*
X138936500Y-93246895D01*
X138940681Y-93204438D01*
X138951274Y-93169519D01*
X138968476Y-93137337D01*
X138991627Y-93109127D01*
X139019837Y-93085976D01*
X139052019Y-93068774D01*
X139086938Y-93058181D01*
X139129395Y-93054000D01*
X140270605Y-93054000D01*
X140313062Y-93058181D01*
X140313062Y-93058181D01*
G37*
G36*
X96625909Y-93085072D02*
G01*
X96696627Y-93092037D01*
X96866466Y-93143557D01*
X97022991Y-93227222D01*
X97046962Y-93246895D01*
X97160186Y-93339814D01*
X97243448Y-93441271D01*
X97272778Y-93477009D01*
X97356443Y-93633534D01*
X97407963Y-93803373D01*
X97425359Y-93980000D01*
X97407963Y-94156627D01*
X97356443Y-94326466D01*
X97272778Y-94482991D01*
X97243448Y-94518729D01*
X97160186Y-94620186D01*
X97058729Y-94703448D01*
X97022991Y-94732778D01*
X96866466Y-94816443D01*
X96696627Y-94867963D01*
X96635088Y-94874024D01*
X96564260Y-94881000D01*
X96475740Y-94881000D01*
X96404912Y-94874024D01*
X96343373Y-94867963D01*
X96173534Y-94816443D01*
X96017009Y-94732778D01*
X95981271Y-94703448D01*
X95879814Y-94620186D01*
X95796552Y-94518729D01*
X95767222Y-94482991D01*
X95683557Y-94326466D01*
X95632037Y-94156627D01*
X95614641Y-93980000D01*
X95632037Y-93803373D01*
X95683557Y-93633534D01*
X95767222Y-93477009D01*
X95796552Y-93441271D01*
X95879814Y-93339814D01*
X95993038Y-93246895D01*
X96017009Y-93227222D01*
X96173534Y-93143557D01*
X96343373Y-93092037D01*
X96414091Y-93085072D01*
X96475740Y-93079000D01*
X96564260Y-93079000D01*
X96625909Y-93085072D01*
X96625909Y-93085072D01*
G37*
G36*
X99165909Y-93085072D02*
G01*
X99236627Y-93092037D01*
X99406466Y-93143557D01*
X99562991Y-93227222D01*
X99586962Y-93246895D01*
X99700186Y-93339814D01*
X99783448Y-93441271D01*
X99812778Y-93477009D01*
X99896443Y-93633534D01*
X99947963Y-93803373D01*
X99965359Y-93980000D01*
X99947963Y-94156627D01*
X99896443Y-94326466D01*
X99812778Y-94482991D01*
X99783448Y-94518729D01*
X99700186Y-94620186D01*
X99598729Y-94703448D01*
X99562991Y-94732778D01*
X99406466Y-94816443D01*
X99236627Y-94867963D01*
X99175088Y-94874024D01*
X99104260Y-94881000D01*
X99015740Y-94881000D01*
X98944912Y-94874024D01*
X98883373Y-94867963D01*
X98713534Y-94816443D01*
X98557009Y-94732778D01*
X98521271Y-94703448D01*
X98419814Y-94620186D01*
X98336552Y-94518729D01*
X98307222Y-94482991D01*
X98223557Y-94326466D01*
X98172037Y-94156627D01*
X98154641Y-93980000D01*
X98172037Y-93803373D01*
X98223557Y-93633534D01*
X98307222Y-93477009D01*
X98336552Y-93441271D01*
X98419814Y-93339814D01*
X98533038Y-93246895D01*
X98557009Y-93227222D01*
X98713534Y-93143557D01*
X98883373Y-93092037D01*
X98954091Y-93085072D01*
X99015740Y-93079000D01*
X99104260Y-93079000D01*
X99165909Y-93085072D01*
X99165909Y-93085072D01*
G37*
G36*
X126599928Y-92996764D02*
G01*
X126621009Y-93003160D01*
X126640445Y-93013548D01*
X126657476Y-93027524D01*
X126671452Y-93044555D01*
X126681840Y-93063991D01*
X126688236Y-93085072D01*
X126691000Y-93113140D01*
X126691000Y-93576860D01*
X126688236Y-93604928D01*
X126681840Y-93626009D01*
X126671452Y-93645445D01*
X126657476Y-93662476D01*
X126640445Y-93676452D01*
X126621009Y-93686840D01*
X126599928Y-93693236D01*
X126571860Y-93696000D01*
X124758140Y-93696000D01*
X124730072Y-93693236D01*
X124708991Y-93686840D01*
X124689555Y-93676452D01*
X124672524Y-93662476D01*
X124658548Y-93645445D01*
X124648160Y-93626009D01*
X124641764Y-93604928D01*
X124639000Y-93576860D01*
X124639000Y-93113140D01*
X124641764Y-93085072D01*
X124648160Y-93063991D01*
X124658548Y-93044555D01*
X124672524Y-93027524D01*
X124689555Y-93013548D01*
X124708991Y-93003160D01*
X124730072Y-92996764D01*
X124758140Y-92994000D01*
X126571860Y-92994000D01*
X126599928Y-92996764D01*
X126599928Y-92996764D01*
G37*
G36*
X121649928Y-92996764D02*
G01*
X121671009Y-93003160D01*
X121690445Y-93013548D01*
X121707476Y-93027524D01*
X121721452Y-93044555D01*
X121731840Y-93063991D01*
X121738236Y-93085072D01*
X121741000Y-93113140D01*
X121741000Y-93576860D01*
X121738236Y-93604928D01*
X121731840Y-93626009D01*
X121721452Y-93645445D01*
X121707476Y-93662476D01*
X121690445Y-93676452D01*
X121671009Y-93686840D01*
X121649928Y-93693236D01*
X121621860Y-93696000D01*
X119808140Y-93696000D01*
X119780072Y-93693236D01*
X119758991Y-93686840D01*
X119739555Y-93676452D01*
X119722524Y-93662476D01*
X119708548Y-93645445D01*
X119698160Y-93626009D01*
X119691764Y-93604928D01*
X119689000Y-93576860D01*
X119689000Y-93113140D01*
X119691764Y-93085072D01*
X119698160Y-93063991D01*
X119708548Y-93044555D01*
X119722524Y-93027524D01*
X119739555Y-93013548D01*
X119758991Y-93003160D01*
X119780072Y-92996764D01*
X119808140Y-92994000D01*
X121621860Y-92994000D01*
X121649928Y-92996764D01*
X121649928Y-92996764D01*
G37*
G36*
X126599928Y-91726764D02*
G01*
X126621009Y-91733160D01*
X126640445Y-91743548D01*
X126657476Y-91757524D01*
X126671452Y-91774555D01*
X126681840Y-91793991D01*
X126688236Y-91815072D01*
X126691000Y-91843140D01*
X126691000Y-92306860D01*
X126688236Y-92334928D01*
X126681840Y-92356009D01*
X126671452Y-92375445D01*
X126657476Y-92392476D01*
X126640445Y-92406452D01*
X126621009Y-92416840D01*
X126599928Y-92423236D01*
X126571860Y-92426000D01*
X124758140Y-92426000D01*
X124730072Y-92423236D01*
X124708991Y-92416840D01*
X124689555Y-92406452D01*
X124672524Y-92392476D01*
X124658548Y-92375445D01*
X124648160Y-92356009D01*
X124641764Y-92334928D01*
X124639000Y-92306860D01*
X124639000Y-91843140D01*
X124641764Y-91815072D01*
X124648160Y-91793991D01*
X124658548Y-91774555D01*
X124672524Y-91757524D01*
X124689555Y-91743548D01*
X124708991Y-91733160D01*
X124730072Y-91726764D01*
X124758140Y-91724000D01*
X126571860Y-91724000D01*
X126599928Y-91726764D01*
X126599928Y-91726764D01*
G37*
G36*
X121649928Y-91726764D02*
G01*
X121671009Y-91733160D01*
X121690445Y-91743548D01*
X121707476Y-91757524D01*
X121721452Y-91774555D01*
X121731840Y-91793991D01*
X121738236Y-91815072D01*
X121741000Y-91843140D01*
X121741000Y-92306860D01*
X121738236Y-92334928D01*
X121731840Y-92356009D01*
X121721452Y-92375445D01*
X121707476Y-92392476D01*
X121690445Y-92406452D01*
X121671009Y-92416840D01*
X121649928Y-92423236D01*
X121621860Y-92426000D01*
X119808140Y-92426000D01*
X119780072Y-92423236D01*
X119758991Y-92416840D01*
X119739555Y-92406452D01*
X119722524Y-92392476D01*
X119708548Y-92375445D01*
X119698160Y-92356009D01*
X119691764Y-92334928D01*
X119689000Y-92306860D01*
X119689000Y-91843140D01*
X119691764Y-91815072D01*
X119698160Y-91793991D01*
X119708548Y-91774555D01*
X119722524Y-91757524D01*
X119739555Y-91743548D01*
X119758991Y-91733160D01*
X119780072Y-91726764D01*
X119808140Y-91724000D01*
X121621860Y-91724000D01*
X121649928Y-91726764D01*
X121649928Y-91726764D01*
G37*
G36*
X99165909Y-90545072D02*
G01*
X99236627Y-90552037D01*
X99406466Y-90603557D01*
X99562991Y-90687222D01*
X99598729Y-90716552D01*
X99700186Y-90799814D01*
X99772846Y-90888352D01*
X99812778Y-90937009D01*
X99896443Y-91093534D01*
X99947963Y-91263373D01*
X99965359Y-91440000D01*
X99947963Y-91616627D01*
X99896443Y-91786466D01*
X99812778Y-91942991D01*
X99783448Y-91978729D01*
X99700186Y-92080186D01*
X99598729Y-92163448D01*
X99562991Y-92192778D01*
X99406466Y-92276443D01*
X99236627Y-92327963D01*
X99170443Y-92334481D01*
X99104260Y-92341000D01*
X99015740Y-92341000D01*
X98949557Y-92334481D01*
X98883373Y-92327963D01*
X98713534Y-92276443D01*
X98557009Y-92192778D01*
X98521271Y-92163448D01*
X98419814Y-92080186D01*
X98336552Y-91978729D01*
X98307222Y-91942991D01*
X98223557Y-91786466D01*
X98172037Y-91616627D01*
X98154641Y-91440000D01*
X98172037Y-91263373D01*
X98223557Y-91093534D01*
X98307222Y-90937009D01*
X98347154Y-90888352D01*
X98419814Y-90799814D01*
X98521271Y-90716552D01*
X98557009Y-90687222D01*
X98713534Y-90603557D01*
X98883373Y-90552037D01*
X98954091Y-90545072D01*
X99015740Y-90539000D01*
X99104260Y-90539000D01*
X99165909Y-90545072D01*
X99165909Y-90545072D01*
G37*
G36*
X96625909Y-90545072D02*
G01*
X96696627Y-90552037D01*
X96866466Y-90603557D01*
X97022991Y-90687222D01*
X97058729Y-90716552D01*
X97160186Y-90799814D01*
X97232846Y-90888352D01*
X97272778Y-90937009D01*
X97356443Y-91093534D01*
X97407963Y-91263373D01*
X97425359Y-91440000D01*
X97407963Y-91616627D01*
X97356443Y-91786466D01*
X97272778Y-91942991D01*
X97243448Y-91978729D01*
X97160186Y-92080186D01*
X97058729Y-92163448D01*
X97022991Y-92192778D01*
X96866466Y-92276443D01*
X96696627Y-92327963D01*
X96630443Y-92334481D01*
X96564260Y-92341000D01*
X96475740Y-92341000D01*
X96409557Y-92334481D01*
X96343373Y-92327963D01*
X96173534Y-92276443D01*
X96017009Y-92192778D01*
X95981271Y-92163448D01*
X95879814Y-92080186D01*
X95796552Y-91978729D01*
X95767222Y-91942991D01*
X95683557Y-91786466D01*
X95632037Y-91616627D01*
X95614641Y-91440000D01*
X95632037Y-91263373D01*
X95683557Y-91093534D01*
X95767222Y-90937009D01*
X95807154Y-90888352D01*
X95879814Y-90799814D01*
X95981271Y-90716552D01*
X96017009Y-90687222D01*
X96173534Y-90603557D01*
X96343373Y-90552037D01*
X96414091Y-90545072D01*
X96475740Y-90539000D01*
X96564260Y-90539000D01*
X96625909Y-90545072D01*
X96625909Y-90545072D01*
G37*
G36*
X126599928Y-90456764D02*
G01*
X126621009Y-90463160D01*
X126640445Y-90473548D01*
X126657476Y-90487524D01*
X126671452Y-90504555D01*
X126681840Y-90523991D01*
X126688236Y-90545072D01*
X126691000Y-90573140D01*
X126691000Y-91036860D01*
X126688236Y-91064928D01*
X126681840Y-91086009D01*
X126671452Y-91105445D01*
X126657476Y-91122476D01*
X126640445Y-91136452D01*
X126621009Y-91146840D01*
X126599928Y-91153236D01*
X126571860Y-91156000D01*
X124758140Y-91156000D01*
X124730072Y-91153236D01*
X124708991Y-91146840D01*
X124689555Y-91136452D01*
X124672524Y-91122476D01*
X124658548Y-91105445D01*
X124648160Y-91086009D01*
X124641764Y-91064928D01*
X124639000Y-91036860D01*
X124639000Y-90573140D01*
X124641764Y-90545072D01*
X124648160Y-90523991D01*
X124658548Y-90504555D01*
X124672524Y-90487524D01*
X124689555Y-90473548D01*
X124708991Y-90463160D01*
X124730072Y-90456764D01*
X124758140Y-90454000D01*
X126571860Y-90454000D01*
X126599928Y-90456764D01*
X126599928Y-90456764D01*
G37*
G36*
X121649928Y-90456764D02*
G01*
X121671009Y-90463160D01*
X121690445Y-90473548D01*
X121707476Y-90487524D01*
X121721452Y-90504555D01*
X121731840Y-90523991D01*
X121738236Y-90545072D01*
X121741000Y-90573140D01*
X121741000Y-91036860D01*
X121738236Y-91064928D01*
X121731840Y-91086009D01*
X121721452Y-91105445D01*
X121707476Y-91122476D01*
X121690445Y-91136452D01*
X121671009Y-91146840D01*
X121649928Y-91153236D01*
X121621860Y-91156000D01*
X119808140Y-91156000D01*
X119780072Y-91153236D01*
X119758991Y-91146840D01*
X119739555Y-91136452D01*
X119722524Y-91122476D01*
X119708548Y-91105445D01*
X119698160Y-91086009D01*
X119691764Y-91064928D01*
X119689000Y-91036860D01*
X119689000Y-90573140D01*
X119691764Y-90545072D01*
X119698160Y-90523991D01*
X119708548Y-90504555D01*
X119722524Y-90487524D01*
X119739555Y-90473548D01*
X119758991Y-90463160D01*
X119780072Y-90456764D01*
X119808140Y-90454000D01*
X121621860Y-90454000D01*
X121649928Y-90456764D01*
X121649928Y-90456764D01*
G37*
G36*
X140313062Y-89248181D02*
G01*
X140347981Y-89258774D01*
X140380163Y-89275976D01*
X140408373Y-89299127D01*
X140431524Y-89327337D01*
X140448726Y-89359519D01*
X140459319Y-89394438D01*
X140463500Y-89436895D01*
X140463500Y-90903105D01*
X140459319Y-90945562D01*
X140448726Y-90980481D01*
X140431524Y-91012663D01*
X140408373Y-91040873D01*
X140380163Y-91064024D01*
X140347981Y-91081226D01*
X140313062Y-91091819D01*
X140270605Y-91096000D01*
X139129395Y-91096000D01*
X139086938Y-91091819D01*
X139052019Y-91081226D01*
X139019837Y-91064024D01*
X138991627Y-91040873D01*
X138968476Y-91012663D01*
X138951274Y-90980481D01*
X138940681Y-90945562D01*
X138936500Y-90903105D01*
X138936500Y-89436895D01*
X138940681Y-89394438D01*
X138951274Y-89359519D01*
X138968476Y-89327337D01*
X138991627Y-89299127D01*
X139019837Y-89275976D01*
X139052019Y-89258774D01*
X139086938Y-89248181D01*
X139129395Y-89244000D01*
X140270605Y-89244000D01*
X140313062Y-89248181D01*
X140313062Y-89248181D01*
G37*
G36*
X137338062Y-89248181D02*
G01*
X137372981Y-89258774D01*
X137405163Y-89275976D01*
X137433373Y-89299127D01*
X137456524Y-89327337D01*
X137473726Y-89359519D01*
X137484319Y-89394438D01*
X137488500Y-89436895D01*
X137488500Y-90903105D01*
X137484319Y-90945562D01*
X137473726Y-90980481D01*
X137456524Y-91012663D01*
X137433373Y-91040873D01*
X137405163Y-91064024D01*
X137372981Y-91081226D01*
X137338062Y-91091819D01*
X137295605Y-91096000D01*
X136154395Y-91096000D01*
X136111938Y-91091819D01*
X136077019Y-91081226D01*
X136044837Y-91064024D01*
X136016627Y-91040873D01*
X135993476Y-91012663D01*
X135976274Y-90980481D01*
X135965681Y-90945562D01*
X135961500Y-90903105D01*
X135961500Y-89436895D01*
X135965681Y-89394438D01*
X135976274Y-89359519D01*
X135993476Y-89327337D01*
X136016627Y-89299127D01*
X136044837Y-89275976D01*
X136077019Y-89258774D01*
X136111938Y-89248181D01*
X136154395Y-89244000D01*
X137295605Y-89244000D01*
X137338062Y-89248181D01*
X137338062Y-89248181D01*
G37*
G36*
X108055909Y-89275072D02*
G01*
X108126627Y-89282037D01*
X108296466Y-89333557D01*
X108452991Y-89417222D01*
X108476962Y-89436895D01*
X108590186Y-89529814D01*
X108665947Y-89622131D01*
X108702778Y-89667009D01*
X108786443Y-89823534D01*
X108837963Y-89993373D01*
X108855359Y-90170000D01*
X108837963Y-90346627D01*
X108786443Y-90516466D01*
X108702778Y-90672991D01*
X108673448Y-90708729D01*
X108590186Y-90810186D01*
X108494939Y-90888352D01*
X108452991Y-90922778D01*
X108296466Y-91006443D01*
X108126627Y-91057963D01*
X108065088Y-91064024D01*
X107994260Y-91071000D01*
X107905740Y-91071000D01*
X107834912Y-91064024D01*
X107773373Y-91057963D01*
X107603534Y-91006443D01*
X107447009Y-90922778D01*
X107405061Y-90888352D01*
X107309814Y-90810186D01*
X107226552Y-90708729D01*
X107197222Y-90672991D01*
X107113557Y-90516466D01*
X107062037Y-90346627D01*
X107044641Y-90170000D01*
X107062037Y-89993373D01*
X107113557Y-89823534D01*
X107197222Y-89667009D01*
X107234053Y-89622131D01*
X107309814Y-89529814D01*
X107423038Y-89436895D01*
X107447009Y-89417222D01*
X107603534Y-89333557D01*
X107773373Y-89282037D01*
X107844091Y-89275072D01*
X107905740Y-89269000D01*
X107994260Y-89269000D01*
X108055909Y-89275072D01*
X108055909Y-89275072D01*
G37*
G36*
X105515909Y-89275072D02*
G01*
X105586627Y-89282037D01*
X105756466Y-89333557D01*
X105912991Y-89417222D01*
X105936962Y-89436895D01*
X106050186Y-89529814D01*
X106125947Y-89622131D01*
X106162778Y-89667009D01*
X106246443Y-89823534D01*
X106297963Y-89993373D01*
X106315359Y-90170000D01*
X106297963Y-90346627D01*
X106246443Y-90516466D01*
X106162778Y-90672991D01*
X106133448Y-90708729D01*
X106050186Y-90810186D01*
X105954939Y-90888352D01*
X105912991Y-90922778D01*
X105756466Y-91006443D01*
X105586627Y-91057963D01*
X105525088Y-91064024D01*
X105454260Y-91071000D01*
X105365740Y-91071000D01*
X105294912Y-91064024D01*
X105233373Y-91057963D01*
X105063534Y-91006443D01*
X104907009Y-90922778D01*
X104865061Y-90888352D01*
X104769814Y-90810186D01*
X104686552Y-90708729D01*
X104657222Y-90672991D01*
X104573557Y-90516466D01*
X104522037Y-90346627D01*
X104504641Y-90170000D01*
X104522037Y-89993373D01*
X104573557Y-89823534D01*
X104657222Y-89667009D01*
X104694053Y-89622131D01*
X104769814Y-89529814D01*
X104883038Y-89436895D01*
X104907009Y-89417222D01*
X105063534Y-89333557D01*
X105233373Y-89282037D01*
X105304091Y-89275072D01*
X105365740Y-89269000D01*
X105454260Y-89269000D01*
X105515909Y-89275072D01*
X105515909Y-89275072D01*
G37*
G36*
X117741000Y-91071000D02*
G01*
X115939000Y-91071000D01*
X115939000Y-89269000D01*
X117741000Y-89269000D01*
X117741000Y-91071000D01*
X117741000Y-91071000D01*
G37*
G36*
X143015562Y-89410681D02*
G01*
X143050481Y-89421274D01*
X143082663Y-89438476D01*
X143110873Y-89461627D01*
X143134024Y-89489837D01*
X143151226Y-89522019D01*
X143161819Y-89556938D01*
X143166000Y-89599395D01*
X143166000Y-90740605D01*
X143161819Y-90783062D01*
X143151226Y-90817981D01*
X143134024Y-90850163D01*
X143110873Y-90878373D01*
X143082663Y-90901524D01*
X143050481Y-90918726D01*
X143015562Y-90929319D01*
X142973105Y-90933500D01*
X141506895Y-90933500D01*
X141464438Y-90929319D01*
X141429519Y-90918726D01*
X141397337Y-90901524D01*
X141369127Y-90878373D01*
X141345976Y-90850163D01*
X141328774Y-90817981D01*
X141318181Y-90783062D01*
X141314000Y-90740605D01*
X141314000Y-89599395D01*
X141318181Y-89556938D01*
X141328774Y-89522019D01*
X141345976Y-89489837D01*
X141369127Y-89461627D01*
X141397337Y-89438476D01*
X141429519Y-89421274D01*
X141464438Y-89410681D01*
X141506895Y-89406500D01*
X142973105Y-89406500D01*
X143015562Y-89410681D01*
X143015562Y-89410681D01*
G37*
G36*
X126599928Y-89186764D02*
G01*
X126621009Y-89193160D01*
X126640445Y-89203548D01*
X126657476Y-89217524D01*
X126671452Y-89234555D01*
X126681840Y-89253991D01*
X126688236Y-89275072D01*
X126691000Y-89303140D01*
X126691000Y-89766860D01*
X126688236Y-89794928D01*
X126681840Y-89816009D01*
X126671452Y-89835445D01*
X126657476Y-89852476D01*
X126640445Y-89866452D01*
X126621009Y-89876840D01*
X126599928Y-89883236D01*
X126571860Y-89886000D01*
X124758140Y-89886000D01*
X124730072Y-89883236D01*
X124708991Y-89876840D01*
X124689555Y-89866452D01*
X124672524Y-89852476D01*
X124658548Y-89835445D01*
X124648160Y-89816009D01*
X124641764Y-89794928D01*
X124639000Y-89766860D01*
X124639000Y-89303140D01*
X124641764Y-89275072D01*
X124648160Y-89253991D01*
X124658548Y-89234555D01*
X124672524Y-89217524D01*
X124689555Y-89203548D01*
X124708991Y-89193160D01*
X124730072Y-89186764D01*
X124758140Y-89184000D01*
X126571860Y-89184000D01*
X126599928Y-89186764D01*
X126599928Y-89186764D01*
G37*
G36*
X121649928Y-89186764D02*
G01*
X121671009Y-89193160D01*
X121690445Y-89203548D01*
X121707476Y-89217524D01*
X121721452Y-89234555D01*
X121731840Y-89253991D01*
X121738236Y-89275072D01*
X121741000Y-89303140D01*
X121741000Y-89766860D01*
X121738236Y-89794928D01*
X121731840Y-89816009D01*
X121721452Y-89835445D01*
X121707476Y-89852476D01*
X121690445Y-89866452D01*
X121671009Y-89876840D01*
X121649928Y-89883236D01*
X121621860Y-89886000D01*
X119808140Y-89886000D01*
X119780072Y-89883236D01*
X119758991Y-89876840D01*
X119739555Y-89866452D01*
X119722524Y-89852476D01*
X119708548Y-89835445D01*
X119698160Y-89816009D01*
X119691764Y-89794928D01*
X119689000Y-89766860D01*
X119689000Y-89303140D01*
X119691764Y-89275072D01*
X119698160Y-89253991D01*
X119708548Y-89234555D01*
X119722524Y-89217524D01*
X119739555Y-89203548D01*
X119758991Y-89193160D01*
X119780072Y-89186764D01*
X119808140Y-89184000D01*
X121621860Y-89184000D01*
X121649928Y-89186764D01*
X121649928Y-89186764D01*
G37*
G36*
X99165909Y-88005072D02*
G01*
X99236627Y-88012037D01*
X99406466Y-88063557D01*
X99562991Y-88147222D01*
X99598729Y-88176552D01*
X99700186Y-88259814D01*
X99783448Y-88361271D01*
X99812778Y-88397009D01*
X99896443Y-88553534D01*
X99947963Y-88723373D01*
X99965359Y-88900000D01*
X99947963Y-89076627D01*
X99896443Y-89246466D01*
X99812778Y-89402991D01*
X99783656Y-89438476D01*
X99700186Y-89540186D01*
X99600334Y-89622131D01*
X99562991Y-89652778D01*
X99406466Y-89736443D01*
X99236627Y-89787963D01*
X99170443Y-89794481D01*
X99104260Y-89801000D01*
X99015740Y-89801000D01*
X98949557Y-89794481D01*
X98883373Y-89787963D01*
X98713534Y-89736443D01*
X98557009Y-89652778D01*
X98519666Y-89622131D01*
X98419814Y-89540186D01*
X98336344Y-89438476D01*
X98307222Y-89402991D01*
X98223557Y-89246466D01*
X98172037Y-89076627D01*
X98154641Y-88900000D01*
X98172037Y-88723373D01*
X98223557Y-88553534D01*
X98307222Y-88397009D01*
X98336552Y-88361271D01*
X98419814Y-88259814D01*
X98521271Y-88176552D01*
X98557009Y-88147222D01*
X98713534Y-88063557D01*
X98883373Y-88012037D01*
X98954091Y-88005072D01*
X99015740Y-87999000D01*
X99104260Y-87999000D01*
X99165909Y-88005072D01*
X99165909Y-88005072D01*
G37*
G36*
X96625909Y-88005072D02*
G01*
X96696627Y-88012037D01*
X96866466Y-88063557D01*
X97022991Y-88147222D01*
X97058729Y-88176552D01*
X97160186Y-88259814D01*
X97243448Y-88361271D01*
X97272778Y-88397009D01*
X97356443Y-88553534D01*
X97407963Y-88723373D01*
X97425359Y-88900000D01*
X97407963Y-89076627D01*
X97356443Y-89246466D01*
X97272778Y-89402991D01*
X97243656Y-89438476D01*
X97160186Y-89540186D01*
X97060334Y-89622131D01*
X97022991Y-89652778D01*
X96866466Y-89736443D01*
X96696627Y-89787963D01*
X96630443Y-89794481D01*
X96564260Y-89801000D01*
X96475740Y-89801000D01*
X96409557Y-89794481D01*
X96343373Y-89787963D01*
X96173534Y-89736443D01*
X96017009Y-89652778D01*
X95979666Y-89622131D01*
X95879814Y-89540186D01*
X95796344Y-89438476D01*
X95767222Y-89402991D01*
X95683557Y-89246466D01*
X95632037Y-89076627D01*
X95614641Y-88900000D01*
X95632037Y-88723373D01*
X95683557Y-88553534D01*
X95767222Y-88397009D01*
X95796552Y-88361271D01*
X95879814Y-88259814D01*
X95981271Y-88176552D01*
X96017009Y-88147222D01*
X96173534Y-88063557D01*
X96343373Y-88012037D01*
X96414091Y-88005072D01*
X96475740Y-87999000D01*
X96564260Y-87999000D01*
X96625909Y-88005072D01*
X96625909Y-88005072D01*
G37*
G36*
X126599928Y-87916764D02*
G01*
X126621009Y-87923160D01*
X126640445Y-87933548D01*
X126657476Y-87947524D01*
X126671452Y-87964555D01*
X126681840Y-87983991D01*
X126688236Y-88005072D01*
X126691000Y-88033140D01*
X126691000Y-88496860D01*
X126688236Y-88524928D01*
X126681840Y-88546009D01*
X126671452Y-88565445D01*
X126657476Y-88582476D01*
X126640445Y-88596452D01*
X126621009Y-88606840D01*
X126599928Y-88613236D01*
X126571860Y-88616000D01*
X124758140Y-88616000D01*
X124730072Y-88613236D01*
X124708991Y-88606840D01*
X124689555Y-88596452D01*
X124672524Y-88582476D01*
X124658548Y-88565445D01*
X124648160Y-88546009D01*
X124641764Y-88524928D01*
X124639000Y-88496860D01*
X124639000Y-88033140D01*
X124641764Y-88005072D01*
X124648160Y-87983991D01*
X124658548Y-87964555D01*
X124672524Y-87947524D01*
X124689555Y-87933548D01*
X124708991Y-87923160D01*
X124730072Y-87916764D01*
X124758140Y-87914000D01*
X126571860Y-87914000D01*
X126599928Y-87916764D01*
X126599928Y-87916764D01*
G37*
G36*
X121649928Y-87916764D02*
G01*
X121671009Y-87923160D01*
X121690445Y-87933548D01*
X121707476Y-87947524D01*
X121721452Y-87964555D01*
X121731840Y-87983991D01*
X121738236Y-88005072D01*
X121741000Y-88033140D01*
X121741000Y-88496860D01*
X121738236Y-88524928D01*
X121731840Y-88546009D01*
X121721452Y-88565445D01*
X121707476Y-88582476D01*
X121690445Y-88596452D01*
X121671009Y-88606840D01*
X121649928Y-88613236D01*
X121621860Y-88616000D01*
X119808140Y-88616000D01*
X119780072Y-88613236D01*
X119758991Y-88606840D01*
X119739555Y-88596452D01*
X119722524Y-88582476D01*
X119708548Y-88565445D01*
X119698160Y-88546009D01*
X119691764Y-88524928D01*
X119689000Y-88496860D01*
X119689000Y-88033140D01*
X119691764Y-88005072D01*
X119698160Y-87983991D01*
X119708548Y-87964555D01*
X119722524Y-87947524D01*
X119739555Y-87933548D01*
X119758991Y-87923160D01*
X119780072Y-87916764D01*
X119808140Y-87914000D01*
X121621860Y-87914000D01*
X121649928Y-87916764D01*
X121649928Y-87916764D01*
G37*
G36*
X106311000Y-88531000D02*
G01*
X104509000Y-88531000D01*
X104509000Y-86729000D01*
X106311000Y-86729000D01*
X106311000Y-88531000D01*
X106311000Y-88531000D01*
G37*
G36*
X108055909Y-86735072D02*
G01*
X108126627Y-86742037D01*
X108296466Y-86793557D01*
X108452991Y-86877222D01*
X108488729Y-86906552D01*
X108590186Y-86989814D01*
X108673448Y-87091271D01*
X108702778Y-87127009D01*
X108786443Y-87283534D01*
X108837963Y-87453373D01*
X108855359Y-87630000D01*
X108837963Y-87806627D01*
X108786443Y-87976466D01*
X108702778Y-88132991D01*
X108673448Y-88168729D01*
X108590186Y-88270186D01*
X108488729Y-88353448D01*
X108452991Y-88382778D01*
X108296466Y-88466443D01*
X108126627Y-88517963D01*
X108060442Y-88524482D01*
X107994260Y-88531000D01*
X107905740Y-88531000D01*
X107839558Y-88524482D01*
X107773373Y-88517963D01*
X107603534Y-88466443D01*
X107447009Y-88382778D01*
X107411271Y-88353448D01*
X107309814Y-88270186D01*
X107226552Y-88168729D01*
X107197222Y-88132991D01*
X107113557Y-87976466D01*
X107062037Y-87806627D01*
X107044641Y-87630000D01*
X107062037Y-87453373D01*
X107113557Y-87283534D01*
X107197222Y-87127009D01*
X107226552Y-87091271D01*
X107309814Y-86989814D01*
X107411271Y-86906552D01*
X107447009Y-86877222D01*
X107603534Y-86793557D01*
X107773373Y-86742037D01*
X107844091Y-86735072D01*
X107905740Y-86729000D01*
X107994260Y-86729000D01*
X108055909Y-86735072D01*
X108055909Y-86735072D01*
G37*
G36*
X143015562Y-86435681D02*
G01*
X143050481Y-86446274D01*
X143082663Y-86463476D01*
X143110873Y-86486627D01*
X143134024Y-86514837D01*
X143151226Y-86547019D01*
X143161819Y-86581938D01*
X143166000Y-86624395D01*
X143166000Y-87765605D01*
X143161819Y-87808062D01*
X143151226Y-87842981D01*
X143134024Y-87875163D01*
X143110873Y-87903373D01*
X143082663Y-87926524D01*
X143050481Y-87943726D01*
X143015562Y-87954319D01*
X142973105Y-87958500D01*
X141506895Y-87958500D01*
X141464438Y-87954319D01*
X141429519Y-87943726D01*
X141397337Y-87926524D01*
X141369127Y-87903373D01*
X141345976Y-87875163D01*
X141328774Y-87842981D01*
X141318181Y-87808062D01*
X141314000Y-87765605D01*
X141314000Y-86624395D01*
X141318181Y-86581938D01*
X141328774Y-86547019D01*
X141345976Y-86514837D01*
X141369127Y-86486627D01*
X141397337Y-86463476D01*
X141429519Y-86446274D01*
X141464438Y-86435681D01*
X141506895Y-86431500D01*
X142973105Y-86431500D01*
X143015562Y-86435681D01*
X143015562Y-86435681D01*
G37*
G36*
X117888062Y-86073181D02*
G01*
X117922981Y-86083774D01*
X117955163Y-86100976D01*
X117983373Y-86124127D01*
X118006524Y-86152337D01*
X118023726Y-86184519D01*
X118034319Y-86219438D01*
X118038500Y-86261895D01*
X118038500Y-87728105D01*
X118034319Y-87770562D01*
X118023726Y-87805481D01*
X118006524Y-87837663D01*
X117983373Y-87865873D01*
X117955163Y-87889024D01*
X117922981Y-87906226D01*
X117888062Y-87916819D01*
X117845605Y-87921000D01*
X116704395Y-87921000D01*
X116661938Y-87916819D01*
X116627019Y-87906226D01*
X116594837Y-87889024D01*
X116566627Y-87865873D01*
X116543476Y-87837663D01*
X116526274Y-87805481D01*
X116515681Y-87770562D01*
X116511500Y-87728105D01*
X116511500Y-86261895D01*
X116515681Y-86219438D01*
X116526274Y-86184519D01*
X116543476Y-86152337D01*
X116566627Y-86124127D01*
X116594837Y-86100976D01*
X116627019Y-86083774D01*
X116661938Y-86073181D01*
X116704395Y-86069000D01*
X117845605Y-86069000D01*
X117888062Y-86073181D01*
X117888062Y-86073181D01*
G37*
G36*
X114913062Y-86073181D02*
G01*
X114947981Y-86083774D01*
X114980163Y-86100976D01*
X115008373Y-86124127D01*
X115031524Y-86152337D01*
X115048726Y-86184519D01*
X115059319Y-86219438D01*
X115063500Y-86261895D01*
X115063500Y-87728105D01*
X115059319Y-87770562D01*
X115048726Y-87805481D01*
X115031524Y-87837663D01*
X115008373Y-87865873D01*
X114980163Y-87889024D01*
X114947981Y-87906226D01*
X114913062Y-87916819D01*
X114870605Y-87921000D01*
X113729395Y-87921000D01*
X113686938Y-87916819D01*
X113652019Y-87906226D01*
X113619837Y-87889024D01*
X113591627Y-87865873D01*
X113568476Y-87837663D01*
X113551274Y-87805481D01*
X113540681Y-87770562D01*
X113536500Y-87728105D01*
X113536500Y-86261895D01*
X113540681Y-86219438D01*
X113551274Y-86184519D01*
X113568476Y-86152337D01*
X113591627Y-86124127D01*
X113619837Y-86100976D01*
X113652019Y-86083774D01*
X113686938Y-86073181D01*
X113729395Y-86069000D01*
X114870605Y-86069000D01*
X114913062Y-86073181D01*
X114913062Y-86073181D01*
G37*
G36*
X126599928Y-86646764D02*
G01*
X126621009Y-86653160D01*
X126640445Y-86663548D01*
X126657476Y-86677524D01*
X126671452Y-86694555D01*
X126681840Y-86713991D01*
X126688236Y-86735072D01*
X126691000Y-86763140D01*
X126691000Y-87226860D01*
X126688236Y-87254928D01*
X126681840Y-87276009D01*
X126671452Y-87295445D01*
X126657476Y-87312476D01*
X126640445Y-87326452D01*
X126621009Y-87336840D01*
X126599928Y-87343236D01*
X126571860Y-87346000D01*
X124758140Y-87346000D01*
X124730072Y-87343236D01*
X124708991Y-87336840D01*
X124689555Y-87326452D01*
X124672524Y-87312476D01*
X124658548Y-87295445D01*
X124648160Y-87276009D01*
X124641764Y-87254928D01*
X124639000Y-87226860D01*
X124639000Y-86763140D01*
X124641764Y-86735072D01*
X124648160Y-86713991D01*
X124658548Y-86694555D01*
X124672524Y-86677524D01*
X124689555Y-86663548D01*
X124708991Y-86653160D01*
X124730072Y-86646764D01*
X124758140Y-86644000D01*
X126571860Y-86644000D01*
X126599928Y-86646764D01*
X126599928Y-86646764D01*
G37*
G36*
X121649928Y-86646764D02*
G01*
X121671009Y-86653160D01*
X121690445Y-86663548D01*
X121707476Y-86677524D01*
X121721452Y-86694555D01*
X121731840Y-86713991D01*
X121738236Y-86735072D01*
X121741000Y-86763140D01*
X121741000Y-87226860D01*
X121738236Y-87254928D01*
X121731840Y-87276009D01*
X121721452Y-87295445D01*
X121707476Y-87312476D01*
X121690445Y-87326452D01*
X121671009Y-87336840D01*
X121649928Y-87343236D01*
X121621860Y-87346000D01*
X119808140Y-87346000D01*
X119780072Y-87343236D01*
X119758991Y-87336840D01*
X119739555Y-87326452D01*
X119722524Y-87312476D01*
X119708548Y-87295445D01*
X119698160Y-87276009D01*
X119691764Y-87254928D01*
X119689000Y-87226860D01*
X119689000Y-86763140D01*
X119691764Y-86735072D01*
X119698160Y-86713991D01*
X119708548Y-86694555D01*
X119722524Y-86677524D01*
X119739555Y-86663548D01*
X119758991Y-86653160D01*
X119780072Y-86646764D01*
X119808140Y-86644000D01*
X121621860Y-86644000D01*
X121649928Y-86646764D01*
X121649928Y-86646764D01*
G37*
G36*
X99170442Y-85465518D02*
G01*
X99236627Y-85472037D01*
X99406466Y-85523557D01*
X99562991Y-85607222D01*
X99598729Y-85636552D01*
X99700186Y-85719814D01*
X99783448Y-85821271D01*
X99812778Y-85857009D01*
X99896443Y-86013534D01*
X99947963Y-86183373D01*
X99965359Y-86360000D01*
X99947963Y-86536627D01*
X99896443Y-86706466D01*
X99812778Y-86862991D01*
X99783448Y-86898729D01*
X99700186Y-87000186D01*
X99598729Y-87083448D01*
X99562991Y-87112778D01*
X99406466Y-87196443D01*
X99236627Y-87247963D01*
X99170442Y-87254482D01*
X99104260Y-87261000D01*
X99015740Y-87261000D01*
X98949558Y-87254482D01*
X98883373Y-87247963D01*
X98713534Y-87196443D01*
X98557009Y-87112778D01*
X98521271Y-87083448D01*
X98419814Y-87000186D01*
X98336552Y-86898729D01*
X98307222Y-86862991D01*
X98223557Y-86706466D01*
X98172037Y-86536627D01*
X98154641Y-86360000D01*
X98172037Y-86183373D01*
X98223557Y-86013534D01*
X98307222Y-85857009D01*
X98336552Y-85821271D01*
X98419814Y-85719814D01*
X98521271Y-85636552D01*
X98557009Y-85607222D01*
X98713534Y-85523557D01*
X98883373Y-85472037D01*
X98949558Y-85465518D01*
X99015740Y-85459000D01*
X99104260Y-85459000D01*
X99170442Y-85465518D01*
X99170442Y-85465518D01*
G37*
G36*
X97421000Y-87261000D02*
G01*
X95619000Y-87261000D01*
X95619000Y-85459000D01*
X97421000Y-85459000D01*
X97421000Y-87261000D01*
X97421000Y-87261000D01*
G37*
G36*
X150239487Y-83838996D02*
G01*
X150476253Y-83937068D01*
X150476255Y-83937069D01*
X150689339Y-84079447D01*
X150870553Y-84260661D01*
X150996942Y-84449815D01*
X151012932Y-84473747D01*
X151111004Y-84710513D01*
X151161000Y-84961861D01*
X151161000Y-85218139D01*
X151111004Y-85469487D01*
X151053952Y-85607222D01*
X151012931Y-85706255D01*
X150870553Y-85919339D01*
X150689339Y-86100553D01*
X150476255Y-86242931D01*
X150476254Y-86242932D01*
X150476253Y-86242932D01*
X150239487Y-86341004D01*
X149988139Y-86391000D01*
X149731861Y-86391000D01*
X149480513Y-86341004D01*
X149243747Y-86242932D01*
X149243746Y-86242932D01*
X149243745Y-86242931D01*
X149030661Y-86100553D01*
X148849447Y-85919339D01*
X148707069Y-85706255D01*
X148666048Y-85607222D01*
X148608996Y-85469487D01*
X148559000Y-85218139D01*
X148559000Y-84961861D01*
X148608996Y-84710513D01*
X148707068Y-84473747D01*
X148723059Y-84449815D01*
X148849447Y-84260661D01*
X149030661Y-84079447D01*
X149243745Y-83937069D01*
X149243747Y-83937068D01*
X149480513Y-83838996D01*
X149731861Y-83789000D01*
X149988139Y-83789000D01*
X150239487Y-83838996D01*
X150239487Y-83838996D01*
G37*
G36*
X108851000Y-85991000D02*
G01*
X107049000Y-85991000D01*
X107049000Y-84189000D01*
X108851000Y-84189000D01*
X108851000Y-85991000D01*
X108851000Y-85991000D01*
G37*
G36*
X105520442Y-84195518D02*
G01*
X105586627Y-84202037D01*
X105756466Y-84253557D01*
X105912991Y-84337222D01*
X105948729Y-84366552D01*
X106050186Y-84449814D01*
X106127860Y-84544462D01*
X106162778Y-84587009D01*
X106183526Y-84625826D01*
X106239513Y-84730568D01*
X106246443Y-84743534D01*
X106297963Y-84913373D01*
X106315359Y-85090000D01*
X106297963Y-85266627D01*
X106246443Y-85436466D01*
X106162778Y-85592991D01*
X106133448Y-85628729D01*
X106050186Y-85730186D01*
X105948729Y-85813448D01*
X105912991Y-85842778D01*
X105756466Y-85926443D01*
X105586627Y-85977963D01*
X105520442Y-85984482D01*
X105454260Y-85991000D01*
X105365740Y-85991000D01*
X105299558Y-85984482D01*
X105233373Y-85977963D01*
X105063534Y-85926443D01*
X104907009Y-85842778D01*
X104871271Y-85813448D01*
X104769814Y-85730186D01*
X104686552Y-85628729D01*
X104657222Y-85592991D01*
X104573557Y-85436466D01*
X104522037Y-85266627D01*
X104504641Y-85090000D01*
X104522037Y-84913373D01*
X104573557Y-84743534D01*
X104580488Y-84730568D01*
X104636474Y-84625826D01*
X104657222Y-84587009D01*
X104692140Y-84544462D01*
X104769814Y-84449814D01*
X104871271Y-84366552D01*
X104907009Y-84337222D01*
X105063534Y-84253557D01*
X105233373Y-84202037D01*
X105299558Y-84195518D01*
X105365740Y-84189000D01*
X105454260Y-84189000D01*
X105520442Y-84195518D01*
X105520442Y-84195518D01*
G37*
G36*
X117897797Y-82873068D02*
G01*
X117931609Y-82883325D01*
X117962779Y-82899986D01*
X117990096Y-82922404D01*
X118012514Y-82949721D01*
X118029175Y-82980891D01*
X118039432Y-83014703D01*
X118043500Y-83056012D01*
X118043500Y-84583988D01*
X118039432Y-84625297D01*
X118029175Y-84659109D01*
X118012514Y-84690279D01*
X117990096Y-84717596D01*
X117962779Y-84740014D01*
X117931609Y-84756675D01*
X117897797Y-84766932D01*
X117856488Y-84771000D01*
X116553512Y-84771000D01*
X116512203Y-84766932D01*
X116470097Y-84754159D01*
X116463399Y-84751384D01*
X116439366Y-84746602D01*
X116427109Y-84746000D01*
X116114538Y-84746000D01*
X116070396Y-84741653D01*
X116033856Y-84730568D01*
X116000179Y-84712567D01*
X115970659Y-84688341D01*
X115946433Y-84658821D01*
X115928432Y-84625144D01*
X115917347Y-84588604D01*
X115913000Y-84544462D01*
X115913000Y-83095538D01*
X115917347Y-83051396D01*
X115928432Y-83014856D01*
X115946433Y-82981179D01*
X115970659Y-82951659D01*
X116000179Y-82927433D01*
X116033856Y-82909432D01*
X116070396Y-82898347D01*
X116114538Y-82894000D01*
X116427109Y-82894000D01*
X116451495Y-82891598D01*
X116474944Y-82884485D01*
X116475616Y-82884167D01*
X116512203Y-82873068D01*
X116553512Y-82869000D01*
X117856488Y-82869000D01*
X117897797Y-82873068D01*
X117897797Y-82873068D01*
G37*
G36*
X113722797Y-82873068D02*
G01*
X113764903Y-82885841D01*
X113771601Y-82888616D01*
X113795634Y-82893398D01*
X113807891Y-82894000D01*
X114263462Y-82894000D01*
X114307604Y-82898347D01*
X114344144Y-82909432D01*
X114377821Y-82927433D01*
X114407341Y-82951659D01*
X114431567Y-82981179D01*
X114449568Y-83014856D01*
X114460653Y-83051396D01*
X114465000Y-83095538D01*
X114465000Y-84544462D01*
X114460653Y-84588604D01*
X114449568Y-84625144D01*
X114431567Y-84658821D01*
X114407341Y-84688341D01*
X114377821Y-84712567D01*
X114344144Y-84730568D01*
X114307604Y-84741653D01*
X114263462Y-84746000D01*
X113807891Y-84746000D01*
X113783505Y-84748402D01*
X113760056Y-84755515D01*
X113759384Y-84755833D01*
X113722797Y-84766932D01*
X113681488Y-84771000D01*
X112378512Y-84771000D01*
X112337203Y-84766932D01*
X112303391Y-84756675D01*
X112272221Y-84740014D01*
X112244904Y-84717596D01*
X112222486Y-84690279D01*
X112205825Y-84659109D01*
X112195568Y-84625297D01*
X112191500Y-84583988D01*
X112191500Y-83056012D01*
X112195568Y-83014703D01*
X112205825Y-82980891D01*
X112222486Y-82949721D01*
X112244904Y-82922404D01*
X112272221Y-82899986D01*
X112303391Y-82883325D01*
X112337203Y-82873068D01*
X112378512Y-82869000D01*
X113681488Y-82869000D01*
X113722797Y-82873068D01*
X113722797Y-82873068D01*
G37*
G36*
X125508062Y-82898181D02*
G01*
X125542981Y-82908774D01*
X125575163Y-82925976D01*
X125603373Y-82949127D01*
X125626524Y-82977337D01*
X125643726Y-83009519D01*
X125654319Y-83044438D01*
X125658500Y-83086895D01*
X125658500Y-84553105D01*
X125654319Y-84595562D01*
X125643726Y-84630481D01*
X125626524Y-84662663D01*
X125603373Y-84690873D01*
X125575163Y-84714024D01*
X125542981Y-84731226D01*
X125508062Y-84741819D01*
X125465605Y-84746000D01*
X124324395Y-84746000D01*
X124281938Y-84741819D01*
X124247019Y-84731226D01*
X124214837Y-84714024D01*
X124186627Y-84690873D01*
X124163476Y-84662663D01*
X124146274Y-84630481D01*
X124135681Y-84595562D01*
X124131500Y-84553105D01*
X124131500Y-83086895D01*
X124135681Y-83044438D01*
X124146274Y-83009519D01*
X124163476Y-82977337D01*
X124186627Y-82949127D01*
X124214837Y-82925976D01*
X124247019Y-82908774D01*
X124281938Y-82898181D01*
X124324395Y-82894000D01*
X125465605Y-82894000D01*
X125508062Y-82898181D01*
X125508062Y-82898181D01*
G37*
G36*
X142853062Y-82898181D02*
G01*
X142887981Y-82908774D01*
X142920163Y-82925976D01*
X142948373Y-82949127D01*
X142971524Y-82977337D01*
X142988726Y-83009519D01*
X142999319Y-83044438D01*
X143003500Y-83086895D01*
X143003500Y-84553105D01*
X142999319Y-84595562D01*
X142988726Y-84630481D01*
X142971524Y-84662663D01*
X142948373Y-84690873D01*
X142920163Y-84714024D01*
X142887981Y-84731226D01*
X142853062Y-84741819D01*
X142810605Y-84746000D01*
X141669395Y-84746000D01*
X141626938Y-84741819D01*
X141592019Y-84731226D01*
X141559837Y-84714024D01*
X141531627Y-84690873D01*
X141508476Y-84662663D01*
X141491274Y-84630481D01*
X141480681Y-84595562D01*
X141476500Y-84553105D01*
X141476500Y-83086895D01*
X141480681Y-83044438D01*
X141491274Y-83009519D01*
X141508476Y-82977337D01*
X141531627Y-82949127D01*
X141559837Y-82925976D01*
X141592019Y-82908774D01*
X141626938Y-82898181D01*
X141669395Y-82894000D01*
X142810605Y-82894000D01*
X142853062Y-82898181D01*
X142853062Y-82898181D01*
G37*
G36*
X139878062Y-82898181D02*
G01*
X139912981Y-82908774D01*
X139945163Y-82925976D01*
X139973373Y-82949127D01*
X139996524Y-82977337D01*
X140013726Y-83009519D01*
X140024319Y-83044438D01*
X140028500Y-83086895D01*
X140028500Y-84553105D01*
X140024319Y-84595562D01*
X140013726Y-84630481D01*
X139996524Y-84662663D01*
X139973373Y-84690873D01*
X139945163Y-84714024D01*
X139912981Y-84731226D01*
X139878062Y-84741819D01*
X139835605Y-84746000D01*
X138694395Y-84746000D01*
X138651938Y-84741819D01*
X138617019Y-84731226D01*
X138584837Y-84714024D01*
X138556627Y-84690873D01*
X138533476Y-84662663D01*
X138516274Y-84630481D01*
X138505681Y-84595562D01*
X138501500Y-84553105D01*
X138501500Y-83086895D01*
X138505681Y-83044438D01*
X138516274Y-83009519D01*
X138533476Y-82977337D01*
X138556627Y-82949127D01*
X138584837Y-82925976D01*
X138617019Y-82908774D01*
X138651938Y-82898181D01*
X138694395Y-82894000D01*
X139835605Y-82894000D01*
X139878062Y-82898181D01*
X139878062Y-82898181D01*
G37*
G36*
X122533062Y-82898181D02*
G01*
X122567981Y-82908774D01*
X122600163Y-82925976D01*
X122628373Y-82949127D01*
X122651524Y-82977337D01*
X122668726Y-83009519D01*
X122679319Y-83044438D01*
X122683500Y-83086895D01*
X122683500Y-84553105D01*
X122679319Y-84595562D01*
X122668726Y-84630481D01*
X122651524Y-84662663D01*
X122628373Y-84690873D01*
X122600163Y-84714024D01*
X122567981Y-84731226D01*
X122533062Y-84741819D01*
X122490605Y-84746000D01*
X121349395Y-84746000D01*
X121306938Y-84741819D01*
X121272019Y-84731226D01*
X121239837Y-84714024D01*
X121211627Y-84690873D01*
X121188476Y-84662663D01*
X121171274Y-84630481D01*
X121160681Y-84595562D01*
X121156500Y-84553105D01*
X121156500Y-83086895D01*
X121160681Y-83044438D01*
X121171274Y-83009519D01*
X121188476Y-82977337D01*
X121211627Y-82949127D01*
X121239837Y-82925976D01*
X121272019Y-82908774D01*
X121306938Y-82898181D01*
X121349395Y-82894000D01*
X122490605Y-82894000D01*
X122533062Y-82898181D01*
X122533062Y-82898181D01*
G37*
M02*
